SplineFontDB: 3.2
FontName: Kinnari-BoldOblique
FullName: Kinnari Bold Oblique
FamilyName: Kinnari
Weight: Bold
Copyright: Copyright (C) 1999 Db Type. All Rights Reserved.\nCopyright (C) 2007 National Electronics and Computer Technology Center. All Rights Reserved.
Version: 003.003
ItalicAngle: -12
UnderlinePosition: -70
UnderlineWidth: 25
Ascent: 800
Descent: 200
InvalidEm: 0
LayerCount: 3
Layer: 0 0 "Back" 1
Layer: 1 0 "Fore" 0
Layer: 2 1 "Quad" 0
FSType: 0
OS2Version: 4
OS2_WeightWidthSlopeOnly: 0
OS2_UseTypoMetrics: 1
CreationTime: 1136287438
ModificationTime: 1782060435
PfmFamily: 17
TTFWeight: 700
TTFWidth: 5
LineGap: 0
VLineGap: 0
Panose: 0 0 0 0 0 0 0 0 0 0
OS2TypoAscent: 1286
OS2TypoAOffset: 0
OS2TypoDescent: -496
OS2TypoDOffset: 0
OS2TypoLinegap: 0
OS2WinAscent: 1286
OS2WinAOffset: 0
OS2WinDescent: 496
OS2WinDOffset: 0
HheadAscent: 1286
HheadAOffset: 0
HheadDescent: -496
HheadDOffset: 0
OS2Vendor: 'PfEd'
Lookup: 4 0 1 "'liga' Standard Ligatures in Latin lookup 0" { "'liga' Standard Ligatures in Latin lookup 0 subtable"  } ['liga' ('latn' <'dflt' > ) ]
Lookup: 6 0 0 "'ccmp' Thai Tone Tilde Reordering" { "'ccmp' Thai Tone Tilde Reordering"  } ['ccmp' ('DFLT' <'dflt' > 'latn' <'dflt' > 'thai' <'KUY ' 'MLY ' 'PAL ' 'SAN ' 'THA ' 'dflt' > ) ]
Lookup: 6 0 0 "'ccmp' Thai Tone Macron Reordering" { "'ccmp' Thai Tone Macron Reordering"  } ['ccmp' ('DFLT' <'dflt' > 'latn' <'dflt' > 'thai' <'KUY ' 'MLY ' 'PAL ' 'SAN ' 'THA ' 'dflt' > ) ]
Lookup: 6 0 0 "'ccmp' Thai Below Vowel Macron Reordering" { "'ccmp' Thai Below Vowel Macron Reordering"  } ['ccmp' ('DFLT' <'dflt' > 'latn' <'dflt' > 'thai' <'KUY ' 'MLY ' 'PAL ' 'SAN ' 'THA ' 'dflt' > ) ]
Lookup: 4 0 0 "'ccmp' Patani Malay Ligatures" { "'ccmp' Patani Malay Ligatures"  } ['ccmp' ('DFLT' <'dflt' > 'thai' <'KUY ' 'MLY ' 'PAL ' 'SAN ' 'THA ' 'dflt' > ) ]

StartChar: .notdef
Encoding: 0 0 0
Width: 384
Flags: W
HStem: 0 23<28 366> 568 23<144 482>
DStem2: 0 0 23.1112 0 0.207912 0.978148<28.3189 585.527> 361.111 0 384 0 0.207912 0.978148<23.5138 580.722>
LayerCount: 3
Fore
SplineSet
144 568 m 1
 28 23 l 1
 366 23 l 1
 482 568 l 1
 144 568 l 1
384 0 m 1
 0 0 l 1
 126 591 l 1
 510 591 l 1
 384 0 l 1
EndSplineSet
Validated: 1
Layer: 2
SplineSet
144 568 m 1,0,-1
 28 23 l 1,1,-1
 366 23 l 1,2,-1
 482 568 l 1,3,-1
 144 568 l 1,0,-1
384 0 m 1,4,-1
 0 0 l 1,5,-1
 126 591 l 1,6,-1
 510 591 l 1,7,-1
 384 0 l 1,4,-1
EndSplineSet
EndChar

StartChar: exclam
Encoding: 33 33 2
Width: 333
Flags: W
HStem: -14 140<139.462 219.181> 680 20G<291 335>
VStem: 107 143<16.8218 93.077> 230 135<547.062 659.804>
LayerCount: 3
Fore
SplineSet
365 644 m 0xd0
 365 612 353 575 348 558 c 2
 222 177 l 1
 187 177 l 1
 223 559 l 1
 226 574 227 591 230 608 c 0
 239 647 266 700 316 700 c 0
 354 700 365 673 365 644 c 0xd0
250 70 m 0xe0
 250 24 207 -14 163 -14 c 0
 133 -14 107 11 107 43 c 0
 107 76 144 126 194 126 c 0
 227 126 250 101 250 70 c 0xe0
EndSplineSet
Validated: 1
Layer: 2
SplineSet
365 644 m 0,0,1
 365 616 365 616 348 558 c 2,2,-1
 222 177 l 1,3,-1
 187 177 l 1,4,-1
 223 559 l 2,5,6
 225 567 225 567 227 583.5 c 128,-1,7
 229 600 229 600 230 608 c 0,8,9
 238 644 238 644 260 672 c 128,-1,10
 282 700 282 700 316 700 c 0,11,12
 365 700 365 700 365 644 c 0,0,1
250 70 m 0,13,14
 250 36 250 36 223.5 11 c 128,-1,15
 197 -14 197 -14 163 -14 c 0,16,17
 140 -14 140 -14 123.5 2.5 c 128,-1,18
 107 19 107 19 107 43 c 0,19,20
 107 70 107 70 133 98 c 128,-1,21
 159 126 159 126 194 126 c 0,22,23
 218 126 218 126 234 110 c 128,-1,24
 250 94 250 94 250 70 c 0,13,14
EndSplineSet
EndChar

StartChar: numbersign
Encoding: 35 35 4
Width: 499
Flags: W
HStem: 0 21G<65 154.281 258 348.097> 217 78<55 143 255 335 447 528> 404 80<121 213 324 404 515 593>
DStem2: 65 0 147 0 0.34317 0.939273<28.1399 230.59 342.288 430.256 543.489 731.073> 258 0 341 0 0.338331 0.941027<28.0815 230.254 341.548 429.571 542.408 730.053>
LayerCount: 3
Fore
SplineSet
593 404 m 1
 487 404 l 1
 447 295 l 1
 545 295 l 1
 528 217 l 1
 418 217 l 1
 341 0 l 1
 258 0 l 1
 335 217 l 1
 226 217 l 1
 147 0 l 1
 65 0 l 1
 143 217 l 1
 38 217 l 1
 55 295 l 1
 172 295 l 1
 213 404 l 1
 104 404 l 1
 121 484 l 1
 241 484 l 1
 315 687 l 1
 398 687 l 1
 324 484 l 1
 432 484 l 1
 505 687 l 1
 587 687 l 1
 515 484 l 1
 610 484 l 1
 593 404 l 1
404 404 m 1
 296 404 l 1
 255 295 l 1
 364 295 l 1
 404 404 l 1
EndSplineSet
Validated: 1
Layer: 2
SplineSet
593 404 m 1,0,-1
 487 404 l 1,1,-1
 447 295 l 1,2,-1
 545 295 l 1,3,-1
 528 217 l 1,4,-1
 418 217 l 1,5,-1
 341 0 l 1,6,-1
 258 0 l 1,7,-1
 335 217 l 1,8,-1
 226 217 l 1,9,-1
 147 0 l 1,10,-1
 65 0 l 1,11,-1
 143 217 l 1,12,-1
 38 217 l 1,13,-1
 55 295 l 1,14,-1
 172 295 l 1,15,-1
 213 404 l 1,16,-1
 104 404 l 1,17,-1
 121 484 l 1,18,-1
 241 484 l 1,19,-1
 315 687 l 1,20,-1
 398 687 l 1,21,-1
 324 484 l 1,22,-1
 432 484 l 1,23,-1
 505 687 l 1,24,-1
 587 687 l 1,25,-1
 515 484 l 1,26,-1
 610 484 l 1,27,-1
 593 404 l 1,0,-1
404 404 m 1,28,-1
 296 404 l 1,29,-1
 255 295 l 1,30,-1
 364 295 l 1,31,-1
 404 404 l 1,28,-1
EndSplineSet
EndChar

StartChar: dollar
Encoding: 36 36 5
Width: 499
Flags: W
HStem: -12 52<161.378 215 285 331.801> 622 52<308.652 350 419 461.495>
VStem: 73 39<160.969 194> 145 106<463.927 558.371> 401 109<127.486 231.299> 503 37<487 520.444>
DStem2: 197 -100 255 -100 0.207912 0.978148<12.0589 89.8194 156.215 392.355 541.704 738.033 803.243 857.674>
LayerCount: 3
Fore
SplineSet
510 217 m 0xf8
 510 126 440 6 274 -11 c 1
 255 -100 l 1
 197 -100 l 1
 215 -12 l 1
 153 -11 94 8 41 43 c 1
 73 194 l 1
 112 194 l 1
 112 178 l 2
 112 94 150 46 227 40 c 1
 282 303 l 1
 221 342 145 394 145 477 c 0
 145 556 211 663 361 674 c 1
 375 739 l 1
 433 739 l 1
 419 674 l 1
 474 670 528 653 567 616 c 1
 540 487 l 1
 503 487 l 1
 503 499 l 2xf4
 503 569 470 613 408 622 c 1
 361 398 l 1
 431 355 510 310 510 217 c 0xf8
350 622 m 1
 321 615 251 579 251 514 c 0
 251 475 281 453 309 430 c 1
 350 622 l 1
285 41 m 1
 375 61 401 135 401 175 c 0xf8
 401 220 369 248 334 272 c 1
 285 41 l 1
EndSplineSet
Validated: 1
Layer: 2
SplineSet
510 217 m 0,0,1
 510 139 510 139 449.5 70 c 128,-1,2
 389 1 389 1 274 -11 c 1,3,-1
 255 -100 l 1,4,-1
 197 -100 l 1,5,-1
 215 -12 l 1,6,7
 122 -11 122 -11 41 43 c 1,8,-1
 73 194 l 1,9,-1
 112 194 l 1,10,-1
 112 178 l 2,11,12
 112 49 112 49 227 40 c 1,13,-1
 282 303 l 1,14,15
 253 322 253 322 234 336 c 128,-1,16
 215 350 215 350 191.5 372.5 c 128,-1,17
 168 395 168 395 156.5 421.5 c 128,-1,18
 145 448 145 448 145 477 c 0,19,20
 145 545 145 545 201 605.5 c 128,-1,21
 257 666 257 666 361 674 c 1,22,-1
 375 739 l 1,23,-1
 433 739 l 1,24,-1
 419 674 l 1,25,26
 513 667 513 667 567 616 c 1,27,-1
 540 487 l 1,28,-1
 503 487 l 1,29,-1
 503 499 l 2,30,31
 503 608 503 608 408 622 c 1,32,-1
 361 398 l 1,33,34
 400 374 400 374 416 363 c 128,-1,35
 432 352 432 352 459.5 328 c 128,-1,36
 487 304 487 304 498.5 277 c 128,-1,37
 510 250 510 250 510 217 c 0,0,1
350 622 m 1,38,39
 319 614 319 614 285 585.5 c 128,-1,40
 251 557 251 557 251 514 c 0,41,42
 251 496 251 496 261.5 479 c 128,-1,43
 272 462 272 462 280 454.5 c 128,-1,44
 288 447 288 447 309 430 c 1,45,-1
 350 622 l 1,38,39
285 41 m 1,46,47
 345 54 345 54 373 95 c 128,-1,48
 401 136 401 136 401 175 c 0,49,50
 401 226 401 226 334 272 c 1,51,-1
 285 41 l 1,46,47
EndSplineSet
EndChar

StartChar: percent
Encoding: 37 37 6
Width: 832
Flags: W
HStem: -11 56<557.928 649.482> 290 60<237.372 317.511> 327 57<693.011 782.58> 588 46<516.461 651.105> 636 54<373.26 449.242> 683 20G<706.5 803>
VStem: 137 97<353.289 468.132> 459 96<48.6264 152.135> 469 47<508.257 591> 790 52<203.491 320.408>
DStem2: 178 -11 255 -11 0.608851 0.793284<46.8815 776.465 823.3 901.273>
LayerCount: 3
Fore
SplineSet
137 393 m 0xd6c0
 137 535 301 690 423 690 c 0xdac0
 513 690 476 634 571 634 c 0
 627 634 685 659 728 703 c 1
 803 703 l 1
 255 -11 l 1
 178 -11 l 1
 652 604 l 1
 617 593 582 588 553 588 c 0
 539 588 527 589 516 591 c 1
 516 579 516 565 514 554 c 0
 484 412 334 290 242 290 c 0
 172 290 137 328 137 393 c 0xd6c0
459 86 m 0xb340
 459 238 627 384 747 384 c 0
 811 384 842 338 842 288 c 0
 842 280 841 271 839 263 c 0
 804 98 665 -11 574 -11 c 0
 487 -11 459 29 459 86 c 0xb340
272 350 m 1xdac0
 379 360 469 514 469 590 c 0
 469 595 468 600 468 605 c 1
 440 616 431 636 416 636 c 0
 381 636 264 541 237 412 c 0
 235 403 234 394 234 387 c 0
 234 364 244 350 272 350 c 1xdac0
597 45 m 0
 692 45 790 211 790 276 c 0
 790 302 777 327 746 327 c 0
 659 327 555 140 555 83 c 0xb340
 555 59 568 45 597 45 c 0
EndSplineSet
Validated: 1
Layer: 2
SplineSet
137 393 m 0,0,1
 137 497 137 497 233 593.5 c 128,-1,2
 329 690 329 690 423 690 c 0,3,4
 453 690 453 690 471 681 c 128,-1,5
 489 672 489 672 495.5 662 c 128,-1,6
 502 652 502 652 520.5 643 c 128,-1,7
 539 634 539 634 571 634 c 0,8,9
 661 634 661 634 728 703 c 1,10,-1
 803 703 l 1,11,-1
 255 -11 l 1,12,-1
 178 -11 l 1,13,-1
 652 604 l 1,14,15
 601 588 601 588 553 588 c 0,16,17
 532 588 532 588 516 591 c 1,18,19
 516 565 516 565 514 554 c 0,20,21
 492 452 492 452 403.5 371 c 128,-1,22
 315 290 315 290 242 290 c 0,23,24
 190 290 190 290 163.5 317 c 128,-1,25
 137 344 137 344 137 393 c 0,0,1
459 86 m 0,26,27
 459 159 459 159 506 229.5 c 128,-1,28
 553 300 553 300 620 342 c 128,-1,29
 687 384 687 384 747 384 c 0,30,31
 793 384 793 384 817.5 356 c 128,-1,32
 842 328 842 328 842 288 c 0,33,34
 842 275 842 275 839 263 c 0,35,36
 814 146 814 146 731 67.5 c 128,-1,37
 648 -11 648 -11 574 -11 c 0,38,39
 459 -11 459 -11 459 86 c 0,26,27
272 350 m 1,40,41
 346 357 346 357 407.5 441 c 128,-1,42
 469 525 469 525 469 590 c 0,43,44
 469 592 469 592 468.5 597 c 128,-1,45
 468 602 468 602 468 605 c 0,46,47
 454 610 454 610 439 623 c 128,-1,48
 424 636 424 636 416 636 c 0,49,50
 383 636 383 636 319 567.5 c 128,-1,51
 255 499 255 499 237 412 c 0,52,53
 234 398 234 398 234 387 c 0,54,55
 234 350 234 350 272 350 c 1,40,41
597 45 m 0,56,57
 662 45 662 45 726 132 c 128,-1,58
 790 219 790 219 790 276 c 0,59,60
 790 297 790 297 779 312 c 128,-1,61
 768 327 768 327 746 327 c 0,62,63
 706 327 706 327 659.5 277.5 c 128,-1,64
 613 228 613 228 584 170.5 c 128,-1,65
 555 113 555 113 555 83 c 0,66,67
 555 45 555 45 597 45 c 0,56,57
EndSplineSet
EndChar

StartChar: ampersand
Encoding: 38 38 7
Width: 777
Flags: W
HStem: -11 97<594.144 676.484> -11 79<167 327.566> 412 41<578 624.833 743.093 810> 647 56<443.254 538.778>
VStem: 60 124<103.004 206.94> 297 113<449.778 577.454> 549 77<530.607 637.455>
LayerCount: 3
Fore
SplineSet
512 214 m 1x7e
 577 276 627 348 627 382 c 0
 627 399 613 408 570 412 c 1
 578 453 l 1
 818 453 l 1
 810 412 l 1
 703 397 726 363 543 164 c 1
 571 123 603 86 662 86 c 0
 697 86 728 106 762 146 c 1
 794 120 l 1
 717 31 669 -11 597 -11 c 0xbe
 529 -11 483 31 445 75 c 1
 377 25 294 -11 218 -11 c 0
 116 -11 60 34 60 115 c 0
 60 268 233 363 306 398 c 1
 301 424 297 450 297 477 c 0
 297 617 406 703 504 703 c 0
 574 703 626 667 626 601 c 0
 626 518 559 444 437 393 c 1
 457 330 482 270 512 214 c 1x7e
422 449 m 1
 489 479 549 534 549 591 c 0
 549 622 530 647 497 647 c 0
 428 647 410 575 410 534 c 0
 410 505 416 472 422 449 c 1
319 341 m 1
 306 334 184 270 184 165 c 0
 184 113 223 68 277 68 c 0x7e
 312 68 368 91 413 121 c 1
 373 189 345 264 319 341 c 1
EndSplineSet
Validated: 1
Layer: 2
SplineSet
512 214 m 1,0,1
 561 261 561 261 594 309 c 128,-1,2
 627 357 627 357 627 382 c 128,-1,3
 627 407 627 407 570 412 c 1,4,-1
 578 453 l 1,5,-1
 818 453 l 1,6,-1
 810 412 l 1,7,8
 778 407 778 407 759.5 400.5 c 128,-1,9
 741 394 741 394 721.5 374.5 c 128,-1,10
 702 355 702 355 686 334 c 128,-1,11
 670 313 670 313 630 264 c 128,-1,12
 590 215 590 215 543 164 c 1,13,14
 568 127 568 127 595 106.5 c 128,-1,15
 622 86 622 86 662 86 c 0,16,17
 711 86 711 86 762 146 c 1,18,-1
 794 120 l 1,19,20
 732 48 732 48 690 18.5 c 128,-1,21
 648 -11 648 -11 597 -11 c 0,22,23
 519 -11 519 -11 445 75 c 1,24,25
 328 -11 328 -11 218 -11 c 0,26,27
 142 -11 142 -11 101 21.5 c 128,-1,28
 60 54 60 54 60 115 c 0,29,30
 60 169 60 169 86.5 217.5 c 128,-1,31
 113 266 113 266 157 302 c 128,-1,32
 201 338 201 338 235 359 c 128,-1,33
 269 380 269 380 306 398 c 1,34,35
 297 445 297 445 297 477 c 0,36,37
 297 577 297 577 361 640 c 128,-1,38
 425 703 425 703 504 703 c 0,39,40
 558 703 558 703 592 676 c 128,-1,41
 626 649 626 649 626 601 c 0,42,43
 626 539 626 539 577 485 c 128,-1,44
 528 431 528 431 437 393 c 1,45,46
 467 297 467 297 512 214 c 1,0,1
422 449 m 1,47,48
 476 473 476 473 512.5 511.5 c 128,-1,49
 549 550 549 550 549 591 c 0,50,51
 549 615 549 615 535 631 c 128,-1,52
 521 647 521 647 497 647 c 0,53,54
 451 647 451 647 430.5 611 c 128,-1,55
 410 575 410 575 410 534 c 0,56,57
 410 495 410 495 422 449 c 1,47,48
319 341 m 1,58,59
 309 335 309 335 299.5 329.5 c 128,-1,60
 290 324 290 324 266.5 306 c 128,-1,61
 243 288 243 288 227 270 c 128,-1,62
 211 252 211 252 197.5 223.5 c 128,-1,63
 184 195 184 195 184 165 c 0,64,65
 184 125 184 125 210.5 96.5 c 128,-1,66
 237 68 237 68 277 68 c 0,67,68
 334 68 334 68 413 121 c 1,69,70
 367 200 367 200 319 341 c 1,58,59
EndSplineSet
EndChar

StartChar: quotesingle
Encoding: 39 39 8
Width: 179
Flags: W
HStem: 442 265<189.999 205>
VStem: 173 114<601.25 688.976>
LayerCount: 3
Fore
SplineSet
284 650 m 2
 205 442 l 1
 163 442 l 1
 173 650 l 1
 173 679 208 707 241 707 c 0
 266 707 287 686 287 664 c 0
 287 659 286 655 284 650 c 2
EndSplineSet
Validated: 1
Layer: 2
SplineSet
284 650 m 2,0,-1
 205 442 l 1,1,-1
 163 442 l 1,2,-1
 173 650 l 2,3,4
 173 672 173 672 194.5 689.5 c 128,-1,5
 216 707 216 707 241 707 c 0,6,7
 260 707 260 707 273.5 694 c 128,-1,8
 287 681 287 681 287 664 c 0,9,10
 287 658 287 658 284 650 c 2,0,-1
EndSplineSet
EndChar

StartChar: parenleft
Encoding: 40 40 9
Width: 333
Flags: W
VStem: 82 101<26.2125 271.733>
LayerCount: 3
Fore
SplineSet
290 -147 m 1
 257 -181 l 1
 158 -104 82 4 82 159 c 0
 82 374 209 574 450 707 c 1
 463 667 l 1
 302 571 238 432 206 281 c 0
 193 219 183 161 183 104 c 0
 183 14 209 -70 290 -147 c 1
EndSplineSet
Validated: 1
Layer: 2
SplineSet
290 -147 m 1,0,-1
 257 -181 l 1,1,2
 82 -45 82 -45 82 159 c 0,3,4
 82 322 82 322 176.5 465 c 128,-1,5
 271 608 271 608 450 707 c 1,6,-1
 463 667 l 1,7,8
 351 600 351 600 292 503.5 c 128,-1,9
 233 407 233 407 206 281 c 0,10,11
 183 171 183 171 183 104 c 0,12,13
 183 -45 183 -45 290 -147 c 1,0,-1
EndSplineSet
EndChar

StartChar: parenright
Encoding: 41 41 10
Width: 333
Flags: W
VStem: 261 100<248.913 499.909>
LayerCount: 3
Fore
SplineSet
361 360 m 0
 361 89 165 -92 -3 -181 c 1
 -19 -146 l 1
 144 -48 206 91 238 241 c 0
 251 303 261 364 261 422 c 0
 261 516 235 602 154 668 c 1
 188 705 l 1
 226 683 361 573 361 360 c 0
EndSplineSet
Validated: 1
Layer: 2
SplineSet
361 360 m 0,0,1
 361 263 361 263 328.5 175 c 128,-1,2
 296 87 296 87 241 20 c 128,-1,3
 186 -47 186 -47 125.5 -96 c 128,-1,4
 65 -145 65 -145 -3 -181 c 1,5,-1
 -19 -146 l 1,6,7
 94 -78 94 -78 152.5 18 c 128,-1,8
 211 114 211 114 238 241 c 0,9,10
 261 351 261 351 261 422 c 0,11,12
 261 581 261 581 154 668 c 1,13,-1
 188 705 l 1,14,15
 202 697 202 697 220.5 681.5 c 128,-1,16
 239 666 239 666 265 635 c 128,-1,17
 291 604 291 604 311.5 567 c 128,-1,18
 332 530 332 530 346.5 475 c 128,-1,19
 361 420 361 420 361 360 c 0,0,1
EndSplineSet
EndChar

StartChar: asterisk
Encoding: 42 42 11
Width: 499
Flags: W
HStem: 346 107<155.164 215.92 440.659 522.625> 518 103<181.75 267.598 482.422 549.375> 690 20G<378.5 417>
VStem: 268 96<269.939 353.952> 346 94<605.479 698.8>
LayerCount: 3
Fore
SplineSet
539 405 m 0xe8
 539 382 513 346 482 346 c 0
 461 346 443 361 433 379 c 1
 418 402 402 418 367 447 c 1
 365 430 364 416 364 403 c 0
 364 374 368 354 368 335 c 0
 368 299 350 257 307 257 c 0
 278 257 268 273 268 294 c 0xf0
 268 339 293 333 324 447 c 1
 275 421 252 404 230 379 c 1
 211 362 187 347 166 347 c 0
 141 347 128 370 128 389 c 0
 128 415 161 443 203 455 c 1
 230 459 265 468 304 485 c 1
 268 507 244 515 218 518 c 1
 193 523 166 538 166 563 c 0
 166 582 189 621 223 621 c 0
 271 621 283 566 340 521 c 1
 345 552 346 573 346 588 c 0
 346 615 342 625 342 640 c 0
 342 665 354 710 403 710 c 0
 431 710 440 693 440 673 c 0
 440 633 415 612 383 521 c 1
 453 564 486 623 538 623 c 0
 562 623 576 603 576 583 c 0
 576 545 530 526 501 522 c 1
 471 516 443 504 393 484 c 1
 429 467 464 459 489 453 c 0
 512 447 539 430 539 405 c 0xe8
EndSplineSet
Validated: 1
Layer: 2
SplineSet
539 405 m 0,0,1
 539 386 539 386 521.5 366 c 128,-1,2
 504 346 504 346 482 346 c 0,3,4
 451 346 451 346 433 379 c 0,5,6
 414 408 414 408 367 447 c 1,7,8
 364 421 364 421 364 403 c 0,9,10
 364 387 364 387 366 365 c 128,-1,11
 368 343 368 343 368 335 c 0,12,13
 368 304 368 304 352.5 280.5 c 128,-1,14
 337 257 337 257 307 257 c 0,15,16
 268 257 268 257 268 294 c 0,17,18
 268 315 268 315 288 351 c 128,-1,19
 308 387 308 387 324 447 c 1,20,21
 260 413 260 413 230 379 c 1,22,23
 194 347 194 347 166 347 c 0,24,25
 149 347 149 347 138.5 360 c 128,-1,26
 128 373 128 373 128 389 c 0,27,28
 128 408 128 408 149.5 427 c 128,-1,29
 171 446 171 446 203 455 c 1,30,31
 252 462 252 462 304 485 c 1,32,33
 257 513 257 513 218 518 c 0,34,35
 197 522 197 522 181.5 534 c 128,-1,36
 166 546 166 546 166 563 c 128,-1,37
 166 580 166 580 183 600.5 c 128,-1,38
 200 621 200 621 223 621 c 0,39,40
 244 621 244 621 260 606.5 c 128,-1,41
 276 592 276 592 297 565 c 128,-1,42
 318 538 318 538 340 521 c 1,43,44
 346 558 346 558 346 588 c 0,45,46
 346 603 346 603 344 618.5 c 128,-1,47
 342 634 342 634 342 640 c 0,48,49
 342 665 342 665 356 687.5 c 128,-1,50
 370 710 370 710 403 710 c 0,51,52
 440 710 440 710 440 673 c 0,53,54
 440 655 440 655 433.5 638.5 c 128,-1,55
 427 622 427 622 411.5 589.5 c 128,-1,56
 396 557 396 557 383 521 c 1,57,58
 409 537 409 537 440 565 c 128,-1,59
 471 593 471 593 493 608 c 128,-1,60
 515 623 515 623 538 623 c 0,61,62
 555 623 555 623 565.5 611 c 128,-1,63
 576 599 576 599 576 583 c 0,64,65
 576 557 576 557 552 541.5 c 128,-1,66
 528 526 528 526 501 522 c 0,67,68
 475 517 475 517 393 484 c 1,69,70
 427 468 427 468 489 453 c 0,71,72
 509 448 509 448 524 435 c 128,-1,73
 539 422 539 422 539 405 c 0,0,1
EndSplineSet
EndChar

StartChar: plus
Encoding: 43 43 12
Width: 563
Flags: W
HStem: 241 89<88 289 396 596>
DStem2: 242 20 330 20 0.207912 0.978148<18.2962 225.942 335.244 539.748>
LayerCount: 3
Fore
SplineSet
596 241 m 1
 377 241 l 1
 330 20 l 1
 242 20 l 1
 289 241 l 1
 69 241 l 1
 88 330 l 1
 308 330 l 1
 354 548 l 1
 442 548 l 1
 396 330 l 1
 615 330 l 1
 596 241 l 1
EndSplineSet
Validated: 1
Layer: 2
SplineSet
596 241 m 1,0,-1
 377 241 l 1,1,-1
 330 20 l 1,2,-1
 242 20 l 1,3,-1
 289 241 l 1,4,-1
 69 241 l 1,5,-1
 88 330 l 1,6,-1
 308 330 l 1,7,-1
 354 548 l 1,8,-1
 442 548 l 1,9,-1
 396 330 l 1,10,-1
 615 330 l 1,11,-1
 596 241 l 1,0,-1
EndSplineSet
EndChar

StartChar: comma
Encoding: 44 44 13
Width: 250
Flags: W
HStem: -2 131<90.6387 149.999>
VStem: 150 72<-21.0691 70.5>
LayerCount: 3
Fore
SplineSet
61 44 m 0
 61 67 79 129 150 129 c 0
 203 129 222 91 222 50 c 0
 222 -50 97 -128 54 -143 c 1
 43 -103 l 1
 85 -84 144 -35 150 -5 c 0
 150 -3 149 -2 147 -2 c 0
 138 -2 123 -5 114 -5 c 0
 84 -2 61 15 61 44 c 0
EndSplineSet
Validated: 1
Layer: 2
SplineSet
61 44 m 0,0,1
 61 71 61 71 82.5 100 c 128,-1,2
 104 129 104 129 150 129 c 0,3,4
 187 129 187 129 204.5 106.5 c 128,-1,5
 222 84 222 84 222 50 c 0,6,7
 222 4 222 4 187.5 -40.5 c 128,-1,8
 153 -85 153 -85 117 -109.5 c 128,-1,9
 81 -134 81 -134 54 -143 c 1,10,-1
 43 -103 l 1,11,12
 76 -88 76 -88 111 -57.5 c 128,-1,13
 146 -27 146 -27 150 -5 c 0,14,15
 150 -2 150 -2 147 -2 c 0,16,17
 142 -2 142 -2 130 -3.5 c 128,-1,18
 118 -5 118 -5 114 -5 c 0,19,20
 91 -3 91 -3 76 10 c 128,-1,21
 61 23 61 23 61 44 c 0,0,1
EndSplineSet
EndChar

StartChar: hyphen
Encoding: 45 45 14
Width: 333
Flags: W
HStem: 241 88<101 352>
VStem: 82 289
LayerCount: 3
Fore
SplineSet
352 241 m 1
 82 241 l 1
 101 329 l 1
 371 329 l 1
 352 241 l 1
EndSplineSet
Validated: 1
Layer: 2
SplineSet
352 241 m 1,0,-1
 82 241 l 1,1,-1
 101 329 l 1,2,-1
 371 329 l 1,3,-1
 352 241 l 1,0,-1
EndSplineSet
EndChar

StartChar: period
Encoding: 46 46 15
Width: 250
Flags: W
HStem: -11 140<98.5701 178.102>
VStem: 66 143<18.3511 95.9553>
LayerCount: 3
Fore
SplineSet
209 74 m 0
 209 27 168 -11 122 -11 c 0
 90 -11 66 16 66 46 c 0
 66 85 108 129 151 129 c 0
 185 129 209 107 209 74 c 0
EndSplineSet
Validated: 1
Layer: 2
SplineSet
209 74 m 0,0,1
 209 39 209 39 183 14 c 128,-1,2
 157 -11 157 -11 122 -11 c 0,3,4
 98 -11 98 -11 82 6 c 128,-1,5
 66 23 66 23 66 46 c 0,6,7
 66 76 66 76 92.5 102.5 c 128,-1,8
 119 129 119 129 151 129 c 0,9,10
 177 129 177 129 193 114 c 128,-1,11
 209 99 209 99 209 74 c 0,0,1
EndSplineSet
EndChar

StartChar: slash
Encoding: 47 47 16
Width: 278
Flags: W
HStem: 690 20G<370.386 470>
DStem2: -51 -104 38 -104 0.468785 0.883312<41.7219 921.531>
LayerCount: 3
Fore
SplineSet
470 710 m 1
 38 -104 l 1
 -51 -104 l 1
 381 710 l 1
 470 710 l 1
EndSplineSet
Validated: 1
Layer: 2
SplineSet
470 710 m 1,0,-1
 38 -104 l 1,1,-1
 -51 -104 l 1,2,-1
 381 710 l 1,3,-1
 470 710 l 1,0,-1
EndSplineSet
EndChar

StartChar: zero
Encoding: 48 48 17
Width: 537
Flags: W
HStem: -14 52<225.751 336.636> 650 50<351.563 456.862>
VStem: 88 109<90.5247 318.763> 481 111<354.936 595.826>
LayerCount: 3
Fore
SplineSet
592 472 m 0
 592 278 476 -14 258 -14 c 0
 145 -14 88 79 88 215 c 0
 88 396 194 700 415 700 c 0
 535 700 592 608 592 472 c 0
456 338 m 0
 471 410 481 476 481 529 c 0
 481 602 462 650 410 650 c 0
 302 650 254 485 220 326 c 0
 207 267 197 207 197 157 c 0
 197 88 217 38 277 38 c 0
 384 38 425 192 456 338 c 0
EndSplineSet
Validated: 1
Layer: 2
SplineSet
592 472 m 0,0,1
 592 397 592 397 570 314 c 128,-1,2
 548 231 548 231 507.5 156.5 c 128,-1,3
 467 82 467 82 401.5 34 c 128,-1,4
 336 -14 336 -14 258 -14 c 0,5,6
 175 -14 175 -14 131.5 48 c 128,-1,7
 88 110 88 110 88 215 c 0,8,9
 88 271 88 271 100.5 335 c 128,-1,10
 113 399 113 399 140 464 c 128,-1,11
 167 529 167 529 204 581.5 c 128,-1,12
 241 634 241 634 296.5 667 c 128,-1,13
 352 700 352 700 415 700 c 0,14,15
 502 700 502 700 547 639 c 128,-1,16
 592 578 592 578 592 472 c 0,0,1
456 338 m 0,17,18
 481 458 481 458 481 529 c 0,19,20
 481 650 481 650 410 650 c 0,21,22
 379 650 379 650 352 631 c 128,-1,23
 325 612 325 612 306 582.5 c 128,-1,24
 287 553 287 553 270 508 c 128,-1,25
 253 463 253 463 242.5 421.5 c 128,-1,26
 232 380 232 380 220 326 c 0,27,28
 197 222 197 222 197 157 c 0,29,30
 197 38 197 38 277 38 c 0,31,32
 308 38 308 38 334 56 c 128,-1,33
 360 74 360 74 377.5 100.5 c 128,-1,34
 395 127 395 127 410.5 170 c 128,-1,35
 426 213 426 213 435.5 249.5 c 128,-1,36
 445 286 445 286 456 338 c 0,17,18
EndSplineSet
EndChar

StartChar: one
Encoding: 49 49 18
Width: 537
Flags: W
HStem: 0 37<137 221.464 358.832 427>
DStem2: 223.445 0 333.445 0 0.207912 0.978148<100.111 576.818>
LayerCount: 3
Fore
SplineSet
427 0 m 1
 129 0 l 1
 137 37 l 1
 218 43 235 55 243 92 c 2
 338 541 l 2
 340 551 341 559 341 565 c 0
 341 580 335 585 324 585 c 0
 307 585 280 574 239 561 c 1
 247 599 l 1
 483 708 l 1
 353 92 l 2
 352 86 351 80 351 75 c 0
 351 51 370 42 435 37 c 1
 427 0 l 1
EndSplineSet
Validated: 1
Layer: 2
SplineSet
427 0 m 1,0,-1
 129 0 l 1,1,-1
 137 37 l 1,2,3
 196 41 196 41 216.5 52 c 128,-1,4
 237 63 237 63 243 92 c 2,5,-1
 338 541 l 2,6,7
 341 556 341 556 341 565 c 0,8,9
 341 585 341 585 324 585 c 0,10,11
 315 585 315 585 239 561 c 1,12,-1
 247 599 l 1,13,-1
 483 708 l 1,14,-1
 353 92 l 2,15,16
 351 80 351 80 351 75 c 0,17,18
 351 57 351 57 368.5 49 c 128,-1,19
 386 41 386 41 435 37 c 1,20,-1
 427 0 l 1,0,-1
EndSplineSet
EndChar

StartChar: two
Encoding: 50 50 19
Width: 537
Flags: W
HStem: 0 101<201 450> 604 96<313.213 464.322>
VStem: 453 119<457.481 569.224>
DStem2: 259 214 201 101 0.752354 0.658759<-118.076 206.046>
LayerCount: 3
Fore
SplineSet
546 155 m 1
 450 0 l 1
 40 0 l 1
 50 31 l 1
 259 214 l 2
 320 267 453 389 453 506 c 0
 453 566 414 604 346 604 c 0
 274 604 224 542 183 470 c 1
 143 484 l 1
 193 613 290 700 418 700 c 0
 509 700 572 637 572 552 c 0
 572 430 461 324 372 247 c 2
 201 101 l 1
 385 101 l 2
 453 101 460 104 519 172 c 1
 546 155 l 1
EndSplineSet
Validated: 1
Layer: 2
SplineSet
546 155 m 1,0,-1
 450 0 l 1,1,-1
 40 0 l 1,2,-1
 50 31 l 1,3,-1
 259 214 l 2,4,5
 453 383 453 383 453 506 c 0,6,7
 453 551 453 551 425 577.5 c 128,-1,8
 397 604 397 604 346 604 c 0,9,10
 259 604 259 604 183 470 c 1,11,-1
 143 484 l 1,12,13
 182 584 182 584 253 642 c 128,-1,14
 324 700 324 700 418 700 c 0,15,16
 486 700 486 700 529 658 c 128,-1,17
 572 616 572 616 572 552 c 0,18,19
 572 471 572 471 516.5 397.5 c 128,-1,20
 461 324 461 324 372 247 c 2,21,-1
 201 101 l 1,22,-1
 385 101 l 2,23,24
 436 101 436 101 455.5 111 c 128,-1,25
 475 121 475 121 519 172 c 1,26,-1
 546 155 l 1,0,-1
EndSplineSet
EndChar

StartChar: three
Encoding: 51 51 20
Width: 537
Flags: W
HStem: -11 60<161 308.502> 333 36<241 289.213> 619 84<315.699 423.467>
VStem: 414 107<179.278 290.233> 444 111<512.034 599.517>
LayerCount: 3
Fore
SplineSet
521 287 m 0xf0
 521 108 357 -11 181 -11 c 0
 141 -11 66 -4 66 46 c 0
 66 75 88 104 126 104 c 0
 176 104 197 49 257 49 c 0
 347 49 414 133 414 227 c 0xf0
 414 300 361 333 235 333 c 1
 241 369 l 1
 428 421 444 512 444 548 c 0
 444 592 413 619 364 619 c 0
 302 619 251 584 198 513 c 1
 163 524 l 1
 227 641 312 703 413 703 c 0
 511 703 555 658 555 593 c 0xe8
 555 488 458 430 441 419 c 1
 493 390 521 350 521 287 c 0xf0
EndSplineSet
Validated: 1
Layer: 2
SplineSet
521 287 m 0,0,1
 521 157 521 157 419.5 73 c 128,-1,2
 318 -11 318 -11 181 -11 c 0,3,4
 66 -11 66 -11 66 46 c 0,5,6
 66 69 66 69 82.5 86.5 c 128,-1,7
 99 104 99 104 126 104 c 0,8,9
 150 104 150 104 188 76.5 c 128,-1,10
 226 49 226 49 257 49 c 0,11,12
 323 49 323 49 368.5 102 c 128,-1,13
 414 155 414 155 414 227 c 0,14,15
 414 282 414 282 371.5 307.5 c 128,-1,16
 329 333 329 333 235 333 c 1,17,-1
 241 369 l 1,18,19
 306 387 306 387 350.5 412.5 c 128,-1,20
 395 438 395 438 413.5 465.5 c 128,-1,21
 432 493 432 493 438 511.5 c 128,-1,22
 444 530 444 530 444 548 c 0,23,24
 444 581 444 581 422.5 600 c 128,-1,25
 401 619 401 619 364 619 c 0,26,27
 277 619 277 619 198 513 c 1,28,-1
 163 524 l 1,29,30
 261 703 261 703 413 703 c 0,31,32
 484 703 484 703 519.5 673.5 c 128,-1,33
 555 644 555 644 555 593 c 0,34,35
 555 493 555 493 441 419 c 1,36,37
 521 374 521 374 521 287 c 0,0,1
EndSplineSet
EndChar

StartChar: four
Encoding: 52 52 21
Width: 537
Flags: W
HStem: 0 21G<303 408.204> 157 87<150 336 456 538> 670 20G<466.766 551>
DStem2: 72 237 150 244 0.673728 0.73898<57.7236 449.022> 303 0 404 0 0.207912 0.978148<20.9991 160.43 270.479 542.89>
LayerCount: 3
Fore
SplineSet
538 157 m 1
 437 157 l 1
 404 0 l 1
 303 0 l 1
 336 157 l 1
 55 157 l 1
 72 237 l 1
 485 690 l 1
 551 690 l 1
 456 244 l 1
 557 244 l 1
 538 157 l 1
355 244 m 1
 416 531 l 1
 150 244 l 1
 355 244 l 1
EndSplineSet
Validated: 1
Layer: 2
SplineSet
538 157 m 1,0,-1
 437 157 l 1,1,-1
 404 0 l 1,2,-1
 303 0 l 1,3,-1
 336 157 l 1,4,-1
 55 157 l 1,5,-1
 72 237 l 1,6,-1
 485 690 l 1,7,-1
 551 690 l 1,8,-1
 456 244 l 1,9,-1
 557 244 l 1,10,-1
 538 157 l 1,0,-1
355 244 m 1,11,-1
 416 531 l 1,12,-1
 150 244 l 1,13,-1
 355 244 l 1,11,-1
EndSplineSet
EndChar

StartChar: five
Encoding: 53 53 22
Width: 537
Flags: W
HStem: -11 60<149 301.855> 585 105<336 545>
VStem: 416 106<200.079 325.676>
LayerCount: 3
Fore
SplineSet
522 320 m 0
 522 122 361 -11 178 -11 c 0
 120 -11 54 2 54 50 c 0
 54 87 84 112 124 112 c 0
 187 112 196 49 250 49 c 0
 350 49 416 164 416 251 c 0
 416 368 293 408 186 415 c 1
 173 418 167 426 167 435 c 0
 167 441 169 440 169 444 c 1
 336 690 l 1
 540 690 l 2
 566 690 572 690 603 719 c 1
 625 700 l 1
 545 585 l 1
 336 585 l 1
 292 522 l 1
 421 499 522 457 522 320 c 0
EndSplineSet
Validated: 1
Layer: 2
SplineSet
522 320 m 0,0,1
 522 175 522 175 420.5 82 c 128,-1,2
 319 -11 319 -11 178 -11 c 0,3,4
 54 -11 54 -11 54 50 c 0,5,6
 54 77 54 77 74 94.5 c 128,-1,7
 94 112 94 112 124 112 c 0,8,9
 157 112 157 112 190.5 80.5 c 128,-1,10
 224 49 224 49 250 49 c 0,11,12
 320 49 320 49 368 114.5 c 128,-1,13
 416 180 416 180 416 251 c 0,14,15
 416 293 416 293 395.5 324.5 c 128,-1,16
 375 356 375 356 340.5 374.5 c 128,-1,17
 306 393 306 393 267.5 402.5 c 128,-1,18
 229 412 229 412 186 415 c 0,19,20
 167 419 167 419 167 435 c 0,21,22
 167 438 167 438 168 440 c 128,-1,23
 169 442 169 442 169 444 c 2,24,-1
 336 690 l 1,25,-1
 540 690 l 2,26,27
 561 690 561 690 571 694 c 128,-1,28
 581 698 581 698 603 719 c 1,29,-1
 625 700 l 1,30,-1
 545 585 l 1,31,-1
 336 585 l 1,32,-1
 292 522 l 1,33,34
 345 512 345 512 383 499.5 c 128,-1,35
 421 487 421 487 454.5 464.5 c 128,-1,36
 488 442 488 442 505 406 c 128,-1,37
 522 370 522 370 522 320 c 0,0,1
EndSplineSet
EndChar

StartChar: six
Encoding: 54 54 23
Width: 537
Flags: W
HStem: -11 52<248.434 362.268> 386 69<305.647 407.644> 670 40<544.721 626>
VStem: 97 112<90.2007 305.531> 439 120<182.866 354.126>
LayerCount: 3
Fore
SplineSet
559 298 m 0
 559 141 440 -11 284 -11 c 0
 174 -11 97 64 97 199 c 0
 97 415 273 661 558 702 c 1
 574 703 593 710 630 710 c 1
 626 670 l 1
 582 659 552 657 515 641 c 0
 428 604 332 538 282 422 c 1
 321 442 360 455 401 455 c 0
 504 455 559 397 559 298 c 0
310 41 m 0
 397 41 439 181 439 270 c 0
 439 332 418 386 349 386 c 0
 322 386 275 374 249 352 c 1
 222 310 209 216 209 176 c 0
 209 95 241 41 310 41 c 0
EndSplineSet
Validated: 1
Layer: 2
SplineSet
559 298 m 0,0,1
 559 177 559 177 478.5 83 c 128,-1,2
 398 -11 398 -11 284 -11 c 0,3,4
 200 -11 200 -11 148.5 44.5 c 128,-1,5
 97 100 97 100 97 199 c 0,6,7
 97 309 97 309 151.5 415.5 c 128,-1,8
 206 522 206 522 313.5 602 c 128,-1,9
 421 682 421 682 558 702 c 0,10,11
 561 702 561 702 584.5 706 c 128,-1,12
 608 710 608 710 630 710 c 1,13,-1
 626 670 l 1,14,15
 612 666 612 666 588.5 661.5 c 128,-1,16
 565 657 565 657 548.5 652.5 c 128,-1,17
 532 648 532 648 515 641 c 0,18,19
 345 569 345 569 282 422 c 1,20,21
 346 455 346 455 401 455 c 0,22,23
 478 455 478 455 518.5 414 c 128,-1,24
 559 373 559 373 559 298 c 0,0,1
310 41 m 0,25,26
 351 41 351 41 381.5 80.5 c 128,-1,27
 412 120 412 120 425.5 171 c 128,-1,28
 439 222 439 222 439 270 c 0,29,30
 439 386 439 386 349 386 c 0,31,32
 327 386 327 386 297 376.5 c 128,-1,33
 267 367 267 367 249 352 c 1,34,35
 231 324 231 324 220 268.5 c 128,-1,36
 209 213 209 213 209 176 c 0,37,38
 209 113 209 113 234.5 77 c 128,-1,39
 260 41 260 41 310 41 c 0,25,26
EndSplineSet
EndChar

StartChar: seven
Encoding: 55 55 24
Width: 537
Flags: W
HStem: -11 21G<173 275.7> 590 100<242 500>
DStem2: 173 -11 265 -11 0.471747 0.881734<43.4007 684.183>
LayerCount: 3
Fore
SplineSet
624 660 m 1
 265 -11 l 1
 173 -11 l 1
 500 590 l 1
 312 590 l 2
 245 590 228 573 174 507 c 1
 141 525 l 1
 242 690 l 1
 631 690 l 1
 624 660 l 1
EndSplineSet
Validated: 1
Layer: 2
SplineSet
624 660 m 1,0,-1
 265 -11 l 1,1,-1
 173 -11 l 1,2,-1
 500 590 l 1,3,-1
 312 590 l 2,4,5
 264 590 264 590 240.5 575 c 128,-1,6
 217 560 217 560 174 507 c 1,7,-1
 141 525 l 1,8,-1
 242 690 l 1,9,-1
 631 690 l 1,10,-1
 624 660 l 1,0,-1
EndSplineSet
EndChar

StartChar: eight
Encoding: 56 56 25
Width: 537
Flags: W
HStem: -11 49<225.497 351.557> 653 50<336.147 461.944>
VStem: 96 101<66.0599 212.476> 181 106<480.889 583.105> 408 110<121.078 227.941> 482 95<504.092 632.517>
LayerCount: 3
Fore
SplineSet
518 207 m 0xc8
 518 87 400 -11 264 -11 c 0
 171 -11 96 38 96 129 c 0xe8
 96 244 205 312 260 347 c 1
 220 396 181 429 181 497 c 0
 181 621 298 703 422 703 c 0
 499 703 577 663 577 583 c 0xd4
 577 465 446 401 415 386 c 1
 464 338 518 284 518 207 c 0xc8
370 419 m 1
 465 472 482 546 482 578 c 0
 482 623 453 653 403 653 c 0
 342 653 287 606 287 544 c 0xd4
 287 490 333 448 370 419 c 1
289 38 m 0
 361 38 408 106 408 164 c 0
 408 231 344 274 298 312 c 1
 298 312 197 248 197 134 c 0xe8
 197 78 225 38 289 38 c 0
EndSplineSet
Validated: 1
Layer: 2
SplineSet
518 207 m 0,0,1
 518 118 518 118 442.5 53.5 c 128,-1,2
 367 -11 367 -11 264 -11 c 0,3,4
 191 -11 191 -11 143.5 26 c 128,-1,5
 96 63 96 63 96 129 c 0,6,7
 96 162 96 162 109 193 c 128,-1,8
 122 224 122 224 137 245 c 128,-1,9
 152 266 152 266 179.5 289 c 128,-1,10
 207 312 207 312 221 321.5 c 128,-1,11
 235 331 235 331 260 347 c 1,12,13
 254 355 254 355 240.5 370 c 128,-1,14
 227 385 227 385 221 393 c 128,-1,15
 215 401 215 401 205.5 414.5 c 128,-1,16
 196 428 196 428 192 439 c 128,-1,17
 188 450 188 450 184.5 465.5 c 128,-1,18
 181 481 181 481 181 497 c 0,19,20
 181 587 181 587 253 645 c 128,-1,21
 325 703 325 703 422 703 c 0,22,23
 485 703 485 703 531 671.5 c 128,-1,24
 577 640 577 640 577 583 c 0,25,26
 577 464 577 464 415 386 c 1,27,28
 448 354 448 354 465.5 334 c 128,-1,29
 483 314 483 314 500.5 278.5 c 128,-1,30
 518 243 518 243 518 207 c 0,0,1
370 419 m 1,31,32
 414 443 414 443 441 477 c 128,-1,33
 468 511 468 511 475 534.5 c 128,-1,34
 482 558 482 558 482 578 c 0,35,36
 482 612 482 612 461 632.5 c 128,-1,37
 440 653 440 653 403 653 c 0,38,39
 356 653 356 653 321.5 621.5 c 128,-1,40
 287 590 287 590 287 544 c 0,41,42
 287 484 287 484 370 419 c 1,31,32
289 38 m 0,43,44
 340 38 340 38 374 77.5 c 128,-1,45
 408 117 408 117 408 164 c 0,46,47
 408 178 408 178 405 191 c 128,-1,48
 402 204 402 204 394 216.5 c 128,-1,49
 386 229 386 229 380 238 c 128,-1,50
 374 247 374 247 360.5 259.5 c 128,-1,51
 347 272 347 272 340.5 277.5 c 128,-1,52
 334 283 334 283 318 296 c 128,-1,53
 302 309 302 309 298 312 c 1,54,55
 294 309 294 309 287 304 c 128,-1,56
 280 299 280 299 262.5 282 c 128,-1,57
 245 265 245 265 232 246 c 128,-1,58
 219 227 219 227 208 196.5 c 128,-1,59
 197 166 197 166 197 134 c 0,60,61
 197 90 197 90 220 64 c 128,-1,62
 243 38 243 38 289 38 c 0,43,44
EndSplineSet
EndChar

StartChar: nine
Encoding: 57 57 26
Width: 537
Flags: W
HStem: -20 43<71 148.874> 240 67<279.683 382.707> 653 50<338.097 447.139>
VStem: 132 122<334.26 505.524> 477 113<389.941 604.12>
LayerCount: 3
Fore
SplineSet
132 398 m 0
 132 538 244 703 416 703 c 0
 527 703 590 615 590 491 c 0
 590 223 312 -20 68 -20 c 1
 71 23 l 1
 144 35 239 61 321 147 c 0
 359 186 395 232 421 280 c 1
 372 253 326 240 284 240 c 0
 190 240 132 298 132 398 c 0
392 653 m 0
 295 653 254 498 254 413 c 0
 254 357 273 307 338 307 c 0
 366 307 419 326 444 350 c 1
 457 385 477 474 477 535 c 0
 477 597 459 653 392 653 c 0
EndSplineSet
Validated: 1
Layer: 2
SplineSet
132 398 m 0,0,1
 132 511 132 511 213 607 c 128,-1,2
 294 703 294 703 416 703 c 0,3,4
 498 703 498 703 544 644.5 c 128,-1,5
 590 586 590 586 590 491 c 0,6,7
 590 394 590 394 542.5 299 c 128,-1,8
 495 204 495 204 420.5 134.5 c 128,-1,9
 346 65 346 65 252 22.5 c 128,-1,10
 158 -20 158 -20 68 -20 c 1,11,-1
 71 23 l 1,12,13
 227 49 227 49 321 147 c 0,14,15
 384 212 384 212 421 280 c 1,16,17
 348 240 348 240 284 240 c 0,18,19
 213 240 213 240 172.5 281.5 c 128,-1,20
 132 323 132 323 132 398 c 0,0,1
392 653 m 0,21,22
 347 653 347 653 314 609.5 c 128,-1,23
 281 566 281 566 267.5 513.5 c 128,-1,24
 254 461 254 461 254 413 c 0,25,26
 254 307 254 307 338 307 c 0,27,28
 360 307 360 307 393 320 c 128,-1,29
 426 333 426 333 444 350 c 1,30,31
 455 380 455 380 466 436.5 c 128,-1,32
 477 493 477 493 477 535 c 0,33,34
 477 653 477 653 392 653 c 0,21,22
EndSplineSet
EndChar

StartChar: colon
Encoding: 58 58 27
Width: 278
Flags: W
HStem: -8 140<113.378 193.32> 392 139<198.423 279.178>
VStem: 83 142<22.9773 100.762> 167 143<422.814 499.602>
LayerCount: 3
Fore
SplineSet
310 476 m 0xd0
 310 434 272 392 223 392 c 0
 188 392 167 417 167 446 c 0
 167 484 202 531 253 531 c 0
 285 531 310 509 310 476 c 0xd0
225 77 m 0xe0
 225 34 186 -8 138 -8 c 0
 103 -8 83 18 83 48 c 0
 83 86 119 132 168 132 c 0
 200 132 225 110 225 77 c 0xe0
EndSplineSet
Validated: 1
Layer: 2
SplineSet
310 476 m 0,0,1
 310 444 310 444 284.5 418 c 128,-1,2
 259 392 259 392 223 392 c 0,3,4
 198 392 198 392 182.5 407.5 c 128,-1,5
 167 423 167 423 167 446 c 0,6,7
 167 477 167 477 192 504 c 128,-1,8
 217 531 217 531 253 531 c 0,9,10
 277 531 277 531 293.5 515.5 c 128,-1,11
 310 500 310 500 310 476 c 0,0,1
225 77 m 0,12,13
 225 44 225 44 199 18 c 128,-1,14
 173 -8 173 -8 138 -8 c 0,15,16
 113 -8 113 -8 98 8 c 128,-1,17
 83 24 83 24 83 48 c 0,18,19
 83 78 83 78 108 105 c 128,-1,20
 133 132 133 132 168 132 c 0,21,22
 192 132 192 132 208.5 116.5 c 128,-1,23
 225 101 225 101 225 77 c 0,12,13
EndSplineSet
EndChar

StartChar: semicolon
Encoding: 59 59 28
Width: 278
Flags: W
HStem: -2 131<105.955 164.999> 392 139<197.6 273.563>
VStem: 165 72<-22.1061 69.5> 166 143<427.419 500.526>
LayerCount: 3
Fore
SplineSet
309 475 m 0xd0
 309 434 258 392 223 392 c 0
 187 392 166 419 166 449 c 0
 166 497 216 531 253 531 c 0
 284 531 309 506 309 475 c 0xd0
77 44 m 0
 77 67 94 129 165 129 c 0
 216 129 237 91 237 48 c 0
 237 -49 113 -128 70 -143 c 1
 58 -103 l 1
 100 -84 159 -35 165 -5 c 0xe0
 165 -3 164 -2 163 -2 c 0
 154 -2 139 -5 130 -5 c 0
 99 -2 77 15 77 44 c 0
EndSplineSet
Validated: 1
Layer: 2
SplineSet
309 475 m 0,0,1
 309 445 309 445 279.5 418.5 c 128,-1,2
 250 392 250 392 223 392 c 0,3,4
 197 392 197 392 181.5 408.5 c 128,-1,5
 166 425 166 425 166 449 c 0,6,7
 166 483 166 483 194.5 507 c 128,-1,8
 223 531 223 531 253 531 c 0,9,10
 276 531 276 531 292.5 514.5 c 128,-1,11
 309 498 309 498 309 475 c 0,0,1
77 44 m 0,12,13
 77 71 77 71 98 100 c 128,-1,14
 119 129 119 129 165 129 c 0,15,16
 201 129 201 129 219 106 c 128,-1,17
 237 83 237 83 237 48 c 0,18,19
 237 14 237 14 217.5 -20 c 128,-1,20
 198 -54 198 -54 169.5 -78.5 c 128,-1,21
 141 -103 141 -103 114.5 -120 c 128,-1,22
 88 -137 88 -137 70 -143 c 1,23,-1
 58 -103 l 1,24,25
 91 -88 91 -88 126 -57.5 c 128,-1,26
 161 -27 161 -27 165 -5 c 0,27,28
 165 -2 165 -2 163 -2 c 0,29,30
 158 -2 158 -2 146 -3.5 c 128,-1,31
 134 -5 134 -5 130 -5 c 0,32,33
 106 -3 106 -3 91.5 10 c 128,-1,34
 77 23 77 23 77 44 c 0,12,13
EndSplineSet
EndChar

StartChar: less
Encoding: 60 60 29
Width: 563
Flags: W
DStem2: 190 261 63 226 0.891816 -0.452397<0 418.603> 78 295 190 261 0.921813 0.387634<90.0635 582.605>
LayerCount: 3
Fore
SplineSet
544 -18 m 1
 63 226 l 1
 78 295 l 1
 663 541 l 1
 644 452 l 1
 190 261 l 1
 563 71 l 1
 544 -18 l 1
EndSplineSet
Validated: 1
Layer: 2
SplineSet
544 -18 m 1,0,-1
 63 226 l 1,1,-1
 78 295 l 1,2,-1
 663 541 l 1,3,-1
 644 452 l 1,4,-1
 190 261 l 1,5,-1
 563 71 l 1,6,-1
 544 -18 l 1,0,-1
EndSplineSet
EndChar

StartChar: equal
Encoding: 61 61 30
Width: 563
Flags: W
HStem: 120 89<62 571> 313 89<103 612>
LayerCount: 3
Fore
SplineSet
612 313 m 1
 85 313 l 1
 103 402 l 1
 630 402 l 1
 612 313 l 1
571 120 m 1
 44 120 l 1
 62 209 l 1
 589 209 l 1
 571 120 l 1
EndSplineSet
Validated: 1
Layer: 2
SplineSet
612 313 m 1,0,-1
 85 313 l 1,1,-1
 103 402 l 1,2,-1
 630 402 l 1,3,-1
 612 313 l 1,0,-1
571 120 m 1,4,-1
 44 120 l 1,5,-1
 62 209 l 1,6,-1
 589 209 l 1,7,-1
 571 120 l 1,4,-1
EndSplineSet
EndChar

StartChar: greater
Encoding: 62 62 31
Width: 563
Flags: W
HStem: -3 21G<18.2697 61.9508>
DStem2: 33 86 14 -3 0.922937 0.384951<0 491.231> 133 556 114 467 0.890318 -0.455339<23.6092 441.777>
LayerCount: 3
Fore
SplineSet
599 241 m 1
 14 -3 l 1
 33 86 l 1
 486 276 l 1
 114 467 l 1
 133 556 l 1
 614 310 l 1
 599 241 l 1
EndSplineSet
Validated: 1
Layer: 2
SplineSet
599 241 m 1,0,-1
 14 -3 l 1,1,-1
 33 86 l 1,2,-1
 486 276 l 1,3,-1
 114 467 l 1,4,-1
 133 556 l 1,5,-1
 614 310 l 1,6,-1
 599 241 l 1,0,-1
EndSplineSet
EndChar

StartChar: question
Encoding: 63 63 32
Width: 443
Flags: W
HStem: -14 140<190.337 266.396> 647 53<267.927 385.899>
VStem: 150 91<499.818 596.486> 157 142<17.6903 92.2849> 230 40<164 204.517> 406 118<481.48 627.389>
LayerCount: 3
Fore
SplineSet
333 647 m 0xcc
 302 647 241 624 241 590 c 0
 241 571 264 564 264 536 c 0
 264 496 231 470 194 470 c 0
 161 470 150 496 150 524 c 0xe4
 150 613 250 700 366 700 c 0
 471 700 524 635 524 563 c 0
 524 491 469 417 401 355 c 1
 335 293 295 230 270 164 c 1
 230 164 l 1
 268 344 406 429 406 564 c 0
 406 610 385 647 333 647 c 0xcc
299 68 m 0xd4
 299 25 253 -14 214 -14 c 0
 182 -14 157 11 157 42 c 0
 157 85 204 126 244 126 c 0
 273 126 299 101 299 68 c 0xd4
EndSplineSet
Validated: 1
Layer: 2
SplineSet
333 647 m 0,0,1
 305 647 305 647 273 630 c 128,-1,2
 241 613 241 613 241 590 c 0,3,4
 241 582 241 582 252.5 566.5 c 128,-1,5
 264 551 264 551 264 536 c 0,6,7
 264 507 264 507 243.5 488.5 c 128,-1,8
 223 470 223 470 194 470 c 0,9,10
 150 470 150 470 150 524 c 0,11,12
 150 592 150 592 215 646 c 128,-1,13
 280 700 280 700 366 700 c 0,14,15
 441 700 441 700 482.5 660.5 c 128,-1,16
 524 621 524 621 524 563 c 0,17,18
 524 467 524 467 401 355 c 0,19,20
 310 269 310 269 270 164 c 1,21,-1
 230 164 l 1,22,23
 243 223 243 223 273.5 282.5 c 128,-1,24
 304 342 304 342 332.5 381 c 128,-1,25
 361 420 361 420 383.5 469.5 c 128,-1,26
 406 519 406 519 406 564 c 0,27,28
 406 601 406 601 388 624 c 128,-1,29
 370 647 370 647 333 647 c 0,0,1
299 68 m 0,30,31
 299 37 299 37 271.5 11.5 c 128,-1,32
 244 -14 244 -14 214 -14 c 0,33,34
 190 -14 190 -14 173.5 2.5 c 128,-1,35
 157 19 157 19 157 42 c 0,36,37
 157 74 157 74 185 100 c 128,-1,38
 213 126 213 126 244 126 c 0,39,40
 266 126 266 126 282.5 109 c 128,-1,41
 299 92 299 92 299 68 c 0,30,31
EndSplineSet
EndChar

StartChar: at
Encoding: 64 64 33
Width: 920
Flags: W
HStem: -155 64<346.718 611.773> -22 20G<720.5 771> 41 68<378.5 490.691 660.72 747.563> 427 71<561.596 647.289> 636 63<524.094 742.891>
VStem: 89 117<43.784 293.143> 303 116<112.179 243.48> 894 68<301.105 495.393>
LayerCount: 3
Fore
SplineSet
962 423 m 0
 962 221 790 40 668 40 c 0
 634 40 575 49 561 109 c 1
 513 66 450 41 410 41 c 0
 347 41 303 72 303 144 c 0
 303 306 481 498 616 498 c 0
 657 498 683 478 696 455 c 1
 710 484 l 1
 822 484 l 1
 666 154 l 2
 663 147 660 142 660 133 c 0
 660 116 674 108 690 108 c 0
 763 108 894 253 894 399 c 0
 894 543 771 636 636 636 c 0
 430 636 254 427 218 261 c 0
 211 228 206 193 206 157 c 0
 206 33 263 -91 476 -91 c 0
 569 -91 688 -55 753 -2 c 1
 771 -14 l 1
 736 -81 l 1
 736 -81 621 -155 460 -155 c 0
 277 -155 89 -63 89 166 c 0
 89 197 92 232 100 269 c 0
 137 441 335 699 650 699 c 0
 766 699 962 629 962 423 c 0
546 166 m 0
 547 167 650 301 650 386 c 0
 650 417 636 427 616 427 c 0
 566 427 457 344 424 187 c 0
 421 172 419 159 419 148 c 0
 419 122 430 109 456 109 c 0
 487 109 533 147 546 166 c 0
EndSplineSet
Validated: 1
Layer: 2
SplineSet
962 423 m 128,-1,1
 962 350 962 350 933 278.5 c 128,-1,2
 904 207 904 207 860.5 155.5 c 128,-1,3
 817 104 817 104 765 72 c 128,-1,4
 713 40 713 40 668 40 c 0,5,6
 577 40 577 40 561 109 c 1,7,8
 526 78 526 78 483.5 59.5 c 128,-1,9
 441 41 441 41 410 41 c 0,10,11
 360 41 360 41 331.5 66.5 c 128,-1,12
 303 92 303 92 303 144 c 0,13,14
 303 222 303 222 353 306 c 128,-1,15
 403 390 403 390 476.5 444 c 128,-1,16
 550 498 550 498 616 498 c 0,17,18
 672 498 672 498 696 455 c 1,19,-1
 710 484 l 1,20,-1
 822 484 l 1,21,-1
 666 154 l 2,22,23
 660 140 660 140 660 133 c 0,24,25
 660 108 660 108 690 108 c 0,26,27
 727 108 727 108 774.5 149.5 c 128,-1,28
 822 191 822 191 858 260.5 c 128,-1,29
 894 330 894 330 894 399 c 0,30,31
 894 504 894 504 817.5 570 c 128,-1,32
 741 636 741 636 636 636 c 0,33,34
 562 636 562 636 489.5 601 c 128,-1,35
 417 566 417 566 363 510.5 c 128,-1,36
 309 455 309 455 270.5 389.5 c 128,-1,37
 232 324 232 324 218 261 c 0,38,39
 206 204 206 204 206 157 c 0,40,41
 206 107 206 107 219 65.5 c 128,-1,42
 232 24 232 24 261 -13 c 128,-1,43
 290 -50 290 -50 344.5 -70.5 c 128,-1,44
 399 -91 399 -91 476 -91 c 0,45,46
 547 -91 547 -91 626 -66 c 128,-1,47
 705 -41 705 -41 753 -2 c 1,48,-1
 771 -14 l 1,49,-1
 736 -81 l 1,50,51
 723 -89 723 -89 699.5 -101.5 c 128,-1,52
 676 -114 676 -114 604 -134.5 c 128,-1,53
 532 -155 532 -155 460 -155 c 0,54,55
 389 -155 389 -155 324.5 -136.5 c 128,-1,56
 260 -118 260 -118 206.5 -81 c 128,-1,57
 153 -44 153 -44 121 19.5 c 128,-1,58
 89 83 89 83 89 166 c 0,59,60
 89 218 89 218 100 269 c 0,61,62
 111 322 111 322 140.5 379.5 c 128,-1,63
 170 437 170 437 219.5 494.5 c 128,-1,64
 269 552 269 552 330.5 597 c 128,-1,65
 392 642 392 642 475.5 670.5 c 128,-1,66
 559 699 559 699 650 699 c 0,67,68
 697 699 697 699 748 684 c 128,-1,69
 799 669 799 669 848.5 639 c 128,-1,70
 898 609 898 609 930 552.5 c 128,-1,0
 962 496 962 496 962 423 c 128,-1,1
546 166 m 0,71,72
 551 171 551 171 573.5 203.5 c 128,-1,73
 596 236 596 236 623 292 c 128,-1,74
 650 348 650 348 650 386 c 0,75,76
 650 427 650 427 616 427 c 0,77,78
 571 427 571 427 508.5 360.5 c 128,-1,79
 446 294 446 294 424 187 c 0,80,81
 419 162 419 162 419 148 c 0,82,83
 419 109 419 109 456 109 c 0,84,85
 477 109 477 109 505.5 129 c 128,-1,86
 534 149 534 149 546 166 c 0,71,72
EndSplineSet
EndChar

StartChar: A
Encoding: 65 65 34
Width: 721
Flags: W
HStem: 0 45<12 70.0688 172.081 226 448 518.628 671.2 717> 217 64<295 489> 670 20G<469.375 530.424>
DStem2: 179 210 255 217 0.533794 0.845614<-122.574 46.4877 121.959 395.008> 526 690 439 513 0.216001 -0.976393<154.03 391.353 456.002 590.447>
LayerCount: 3
Fore
SplineSet
255 217 m 1
 231 174 172 98 172 68 c 0
 172 48 200 45 236 45 c 1
 226 0 l 1
 3 0 l 1
 12 43 l 1
 82 49 121 120 179 210 c 1
 482 690 l 1
 526 690 l 1
 649 134 l 2
 662 78 664 45 727 45 c 1
 717 0 l 1
 438 0 l 1
 448 45 l 1
 496 47 523 53 523 84 c 0
 523 97 519 115 514 138 c 2
 499 217 l 1
 255 217 l 1
489 281 m 1
 439 513 l 1
 295 281 l 1
 489 281 l 1
EndSplineSet
Validated: 1
Layer: 2
SplineSet
255 217 m 1,0,1
 247 203 247 203 224 168.5 c 128,-1,2
 201 134 201 134 186.5 107.5 c 128,-1,3
 172 81 172 81 172 68 c 0,4,5
 172 45 172 45 236 45 c 1,6,-1
 226 0 l 1,7,-1
 3 0 l 1,8,-1
 12 43 l 1,9,10
 22 44 22 44 32 47 c 128,-1,11
 42 50 42 50 50.5 53.5 c 128,-1,12
 59 57 59 57 68.5 65 c 128,-1,13
 78 73 78 73 84 78 c 128,-1,14
 90 83 90 83 100 95 c 128,-1,15
 110 107 110 107 115 113.5 c 128,-1,16
 120 120 120 120 130.5 135.5 c 128,-1,17
 141 151 141 151 145.5 158 c 128,-1,18
 150 165 150 165 162 184 c 128,-1,19
 174 203 174 203 179 210 c 2,20,-1
 482 690 l 1,21,-1
 526 690 l 1,22,-1
 649 134 l 2,23,24
 650 130 650 130 652.5 118 c 128,-1,25
 655 106 655 106 656 103 c 128,-1,26
 657 100 657 100 659.5 90.5 c 128,-1,27
 662 81 662 81 664 78.5 c 128,-1,28
 666 76 666 76 669.5 69 c 128,-1,29
 673 62 673 62 676.5 60 c 128,-1,30
 680 58 680 58 685 54 c 128,-1,31
 690 50 690 50 696 49 c 128,-1,32
 702 48 702 48 710 46.5 c 128,-1,33
 718 45 718 45 727 45 c 1,34,-1
 717 0 l 1,35,-1
 438 0 l 1,36,-1
 448 45 l 1,37,38
 488 47 488 47 505.5 54.5 c 128,-1,39
 523 62 523 62 523 84 c 0,40,41
 523 97 523 97 514 138 c 2,42,-1
 499 217 l 1,43,-1
 255 217 l 1,0,1
489 281 m 1,44,-1
 439 513 l 1,45,-1
 295 281 l 1,46,-1
 489 281 l 1,44,-1
EndSplineSet
EndChar

StartChar: B
Encoding: 66 66 35
Width: 666
Flags: W
HStem: 0 61<250.697 425.566> 0 45<18 109.182> 326 64<313 463.799> 625 65<358.501 521.622> 645 45<155 227.165>
VStem: 513 140<145.134 283.119> 558 128<461.077 591.39>
DStem2: 104.445 0 229.707 0 0.207912 0.978148<117.502 359.326 424.839 620.118>
LayerCount: 3
Fore
SplineSet
653 231 m 0x34
 653 138 574 0 335 0 c 2xb4
 8 0 l 1
 18 45 l 1
 99 45 118 68 124 92 c 2
 231 598 l 2
 232 601 232 604 232 607 c 0
 232 627 215 645 145 645 c 1
 155 690 l 1x6c
 434 690 l 2
 580 690 686 651 686 547 c 0x32
 686 490 658 401 550 361 c 1
 608 339 653 296 653 231 c 0x34
383 390 m 2
 520 390 558 478 558 537 c 0x32
 558 606 495 625 419 625 c 0
 379 625 361 618 357 598 c 2
 313 390 l 1
 383 390 l 2
510 197 m 0
 512 208 513 218 513 227 c 0
 513 312 417 326 336 326 c 2
 299 326 l 1
 252 103 l 2
 251 98 250 93 250 89 c 0
 250 70 264 61 313 61 c 0xa4
 409 61 487 89 510 197 c 0
EndSplineSet
Validated: 1
Layer: 2
SplineSet
653 231 m 0,0,1
 653 193 653 193 636 155 c 128,-1,2
 619 117 619 117 584.5 81 c 128,-1,3
 550 45 550 45 485 22.5 c 128,-1,4
 420 0 420 0 335 0 c 2,5,-1
 8 0 l 1,6,-1
 18 45 l 1,7,8
 112 45 112 45 124 92 c 2,9,-1
 231 598 l 2,10,11
 232 601 232 601 232 607 c 0,12,13
 232 645 232 645 145 645 c 1,14,-1
 155 690 l 1,15,-1
 434 690 l 2,16,17
 686 690 686 690 686 547 c 0,18,19
 686 494 686 494 654.5 441 c 128,-1,20
 623 388 623 388 550 361 c 1,21,22
 653 322 653 322 653 231 c 0,0,1
383 390 m 2,23,24
 475 390 475 390 516.5 435.5 c 128,-1,25
 558 481 558 481 558 537 c 0,26,27
 558 625 558 625 419 625 c 0,28,29
 362 625 362 625 357 598 c 2,30,-1
 313 390 l 1,31,-1
 383 390 l 2,23,24
510 197 m 0,32,33
 513 213.5 513 213.5 513 227 c 0,34,35
 513 326 513 326 336 326 c 2,36,-1
 299 326 l 1,37,-1
 252 103 l 2,38,39
 250 93 250 93 250 89 c 0,40,41
 250 74 250 74 263.5 67.5 c 128,-1,42
 277 61 277 61 313 61 c 0,43,44
 393 61 393 61 443.5 91 c 128,-1,45
 494 121 494 121 510 197 c 0,32,33
EndSplineSet
EndChar

StartChar: C
Encoding: 67 67 36
Width: 666
Flags: W
HStem: -14 69<310.582 491.718> 634 66<418.883 605.82>
VStem: 84 140<149.487 381.73> 687 45<450 488.733> 736 41<673.251 699>
LayerCount: 3
Fore
SplineSet
519 634 m 0
 293 634 224 367 224 256 c 0
 224 149 273 55 398 55 c 0
 493 55 562 86 656 163 c 1
 677 123 l 1
 592 38 473 -14 373 -14 c 0
 201 -14 84 80 84 250 c 0
 84 484 272 700 524 700 c 0
 610 700 652 661 686 661 c 0
 704 661 719 671 736 699 c 1
 777 699 l 1
 732 450 l 1
 687 450 l 1
 680 562 628 634 519 634 c 0
EndSplineSet
Validated: 1
Layer: 2
SplineSet
519 634 m 0,0,1
 455 634 455 634 402 605 c 128,-1,2
 349 576 349 576 317 533 c 128,-1,3
 285 490 285 490 263 437 c 128,-1,4
 241 384 241 384 232.5 338.5 c 128,-1,5
 224 293 224 293 224 256 c 0,6,7
 224 168 224 168 267 111.5 c 128,-1,8
 310 55 310 55 398 55 c 0,9,10
 468 55 468 55 526 79.5 c 128,-1,11
 584 104 584 104 656 163 c 1,12,-1
 677 123 l 1,13,14
 614 60 614 60 531.5 23 c 128,-1,15
 449 -14 449 -14 373 -14 c 0,16,17
 241 -14 241 -14 162.5 55.5 c 128,-1,18
 84 125 84 125 84 250 c 0,19,20
 84 337 84 337 117.5 419 c 128,-1,21
 151 501 151 501 209 563 c 128,-1,22
 267 625 267 625 349.5 662.5 c 128,-1,23
 432 700 432 700 524 700 c 0,24,25
 574 700 574 700 625 680.5 c 128,-1,26
 676 661 676 661 686 661 c 0,27,28
 713 661 713 661 736 699 c 1,29,-1
 777 699 l 1,30,-1
 732 450 l 1,31,-1
 687 450 l 1,32,33
 682 537 682 537 640 585.5 c 128,-1,34
 598 634 598 634 519 634 c 0,0,1
EndSplineSet
EndChar

StartChar: D
Encoding: 68 68 37
Width: 721
Flags: W
HStem: 0 65<244.446 420.338> 0 45<18 100.92> 627 63<352.599 524.241> 645 45<155 218.706>
VStem: 649 134<298.281 513.979>
DStem2: 94.8912 0 223.017 0 0.207912 0.978148<121.129 621.211>
LayerCount: 3
Fore
SplineSet
783 432 m 0x28
 783 274 684 0 286 0 c 2xa8
 8 0 l 1
 18 45 l 1
 91 45 109 68 115 92 c 2
 222 598 l 2
 223 601 223 605 223 608 c 0
 223 627 208 645 145 645 c 1
 155 690 l 1x58
 425 690 l 2
 652 690 783 605 783 432 c 0x28
294 65 m 0
 546 65 649 265 649 419 c 0
 649 557 551 627 400 627 c 0
 363 627 356 627 348 588 c 2
 245 103 l 2
 244 99 244 95 244 92 c 0
 244 66 269 65 294 65 c 0
EndSplineSet
Validated: 1
Layer: 2
SplineSet
783 432 m 0,0,1
 783 380 783 380 770 326 c 128,-1,2
 757 272 757 272 722 212 c 128,-1,3
 687 152 687 152 633.5 106 c 128,-1,4
 580 60 580 60 490 30 c 128,-1,5
 400 0 400 0 286 0 c 2,6,-1
 8 0 l 1,7,-1
 18 45 l 1,8,9
 103 45 103 45 115 92 c 2,10,-1
 222 598 l 2,11,12
 223 601 223 601 223 608 c 0,13,14
 223 645 223 645 145 645 c 1,15,-1
 155 690 l 1,16,-1
 425 690 l 2,17,18
 598 690 598 690 690.5 625 c 128,-1,19
 783 560 783 560 783 432 c 0,0,1
294 65 m 0,20,21
 367 65 367 65 427.5 87 c 128,-1,22
 488 109 488 109 528 145 c 128,-1,23
 568 181 568 181 596 228 c 128,-1,24
 624 275 624 275 636.5 323 c 128,-1,25
 649 371 649 371 649 419 c 0,26,27
 649 520 649 520 582.5 573.5 c 128,-1,28
 516 627 516 627 400 627 c 0,29,30
 370 627 370 627 362 621.5 c 128,-1,31
 354 616 354 616 348 588 c 2,32,-1
 245 103 l 2,33,34
 244 99 244 99 244 92 c 0,35,36
 244 80 244 80 252 73.5 c 128,-1,37
 260 67 260 67 269 66 c 128,-1,38
 278 65 278 65 294 65 c 0,20,21
EndSplineSet
EndChar

StartChar: E
Encoding: 69 69 38
Width: 609
Flags: W
HStem: 0 66<232.001 496.631> 0 45<10 93.3398> 326 66<298 489.264> 624 66<343.432 596.889> 645 45<147 211.513>
VStem: 504 44<229 257.624> 559 44<454.164 487> 621 44<522 554.667>
DStem2: 88.4448 0 215.445 0 0.207912 0.978148<105.349 359.534 427.003 620.118>
LayerCount: 3
Fore
SplineSet
654 194 m 1xb7
 561 0 l 1
 0 0 l 1
 10 45 l 1
 82 45 102 68 108 92 c 2
 215 598 l 2
 216 601 216 604 216 607 c 0
 216 627 200 645 137 645 c 1
 147 690 l 1
 701 690 l 1x6f
 665 522 l 1
 621 522 l 1
 621 581 601 624 540 624 c 2
 379 624 l 2
 362 624 346 614 342 598 c 2
 298 392 l 1
 426 392 l 2
 485 392 541 406 559 487 c 1
 603 487 l 1
 548 229 l 1
 504 229 l 1
 506 240 507 250 507 258 c 0
 507 314 463 326 412 326 c 2
 284 326 l 1
 235 92 l 2
 234 87 232 81 232 77 c 0
 232 71 234 66 241 66 c 2
 373 66 l 2
 449 66 522 68 602 194 c 1
 654 194 l 1xb7
EndSplineSet
Validated: 1
Layer: 2
SplineSet
654 194 m 1,0,-1
 561 0 l 1,1,-1
 0 0 l 1,2,-1
 10 45 l 1,3,4
 96 45 96 45 108 92 c 2,5,-1
 215 598 l 2,6,7
 216 601 216 601 216 607 c 0,8,9
 216 645 216 645 137 645 c 1,10,-1
 147 690 l 1,11,-1
 701 690 l 1,12,-1
 665 522 l 1,13,-1
 621 522 l 1,14,15
 621 624 621 624 540 624 c 2,16,-1
 379 624 l 2,17,18
 366 624 366 624 355.5 617 c 128,-1,19
 345 610 345 610 342 598 c 2,20,-1
 298 392 l 1,21,-1
 426 392 l 2,22,23
 478 392 478 392 512.5 411.5 c 128,-1,24
 547 431 547 431 559 487 c 1,25,-1
 603 487 l 1,26,-1
 548 229 l 1,27,-1
 504 229 l 1,28,29
 507 245 507 245 507 258 c 0,30,31
 507 326 507 326 412 326 c 2,32,-1
 284 326 l 1,33,-1
 235 92 l 1,34,-1
 232 77 l 2,35,36
 232 66 232 66 241 66 c 2,37,-1
 373 66 l 2,38,39
 410 66 410 66 431.5 68.5 c 128,-1,40
 453 71 453 71 484.5 82.5 c 128,-1,41
 516 94 516 94 544.5 121.5 c 128,-1,42
 573 149 573 149 602 194 c 1,43,-1
 654 194 l 1,0,-1
EndSplineSet
EndChar

StartChar: F
Encoding: 70 70 39
Width: 556
Flags: W
HStem: 0 45<10 93.3398 237.986 304> 326 66<298 479.703> 624 66<343.009 607.623> 645 45<147 211.513>
VStem: 494 47<229 258.577> 549 47<454.164 487> 619 48<522 548.624>
DStem2: 88.4448 0 215.445 0 0.207912 0.978148<109.675 359.534 427.003 620.118>
LayerCount: 3
Fore
SplineSet
667 522 m 1xde
 619 522 l 1
 620 532 621 541 621 549 c 0
 621 619 583 624 536 624 c 2
 377 624 l 2xee
 354 624 345 613 342 598 c 2
 298 392 l 1
 416 392 l 2
 476 392 531 406 549 487 c 1
 596 487 l 1
 541 229 l 1
 494 229 l 1
 496 240 497 250 497 259 c 0
 497 314 454 326 402 326 c 2
 284 326 l 1
 235 92 l 2
 234 88 234 85 234 81 c 0
 234 62 250 45 314 45 c 1
 304 0 l 1
 0 0 l 1
 10 45 l 1
 82 45 102 68 108 92 c 2
 215 598 l 2
 216 601 216 604 216 607 c 0
 216 627 200 645 137 645 c 1
 147 690 l 1
 703 690 l 1
 667 522 l 1xde
EndSplineSet
Validated: 1
Layer: 2
SplineSet
667 522 m 1,0,-1
 619 522 l 1,1,2
 621 542 621 542 621 549 c 0,3,4
 621 597 621 597 600 610.5 c 128,-1,5
 579 624 579 624 536 624 c 2,6,-1
 377 624 l 2,7,8
 347 624 347 624 342 598 c 2,9,-1
 298 392 l 1,10,-1
 416 392 l 2,11,12
 441 392 441 392 460 395.5 c 128,-1,13
 479 399 479 399 498 409 c 128,-1,14
 517 419 517 419 530 438.5 c 128,-1,15
 543 458 543 458 549 487 c 1,16,-1
 596 487 l 1,17,-1
 541 229 l 1,18,-1
 494 229 l 1,19,20
 497 245.5 497 245.5 497 259 c 0,21,22
 497 326 497 326 402 326 c 2,23,-1
 284 326 l 1,24,-1
 235 92 l 2,25,26
 234 88 234 88 234 81 c 0,27,28
 234 45 234 45 314 45 c 1,29,-1
 304 0 l 1,30,-1
 0 0 l 1,31,-1
 10 45 l 1,32,33
 96 45 96 45 108 92 c 2,34,-1
 215 598 l 2,35,36
 216 601 216 601 216 607 c 0,37,38
 216 645 216 645 137 645 c 1,39,-1
 147 690 l 1,40,-1
 703 690 l 1,41,-1
 667 522 l 1,0,-1
EndSplineSet
EndChar

StartChar: G
Encoding: 71 71 40
Width: 721
Flags: W
HStem: -14 66<311.536 513.609> 336 45<517 579.011 720.646 787> 636 64<414.463 608.77>
VStem: 78 139<148.905 382.681> 692 43<464 503.333>
DStem2: 520.76 -14 642.058 -14 0.207912 0.978148<87.7423 314.003>
LayerCount: 3
Fore
SplineSet
514 636 m 0
 291 636 217 368 217 254 c 0
 217 141 275 52 406 52 c 0
 441 52 482 58 517 72 c 0
 542 83 543 88 548 111 c 2
 579 260 l 2
 582 273 584 285 584 294 c 0
 584 321 568 336 507 336 c 1
 517 381 l 1
 797 381 l 1
 787 336 l 1
 719 336 710 307 700 260 c 2
 658 61 l 1
 587 26 462 -14 379 -14 c 0
 225 -14 78 72 78 256 c 0
 78 480 268 700 519 700 c 0
 596 700 646 665 684 665 c 0
 703 665 719 674 734 700 c 1
 777 700 l 1
 735 464 l 1
 692 464 l 1
 676 573 627 636 514 636 c 0
EndSplineSet
Validated: 1
Layer: 2
SplineSet
514 636 m 0,0,1
 451 636 451 636 398 607 c 128,-1,2
 345 578 345 578 312.5 534.5 c 128,-1,3
 280 491 280 491 257.5 437.5 c 128,-1,4
 235 384 235 384 226 337.5 c 128,-1,5
 217 291 217 291 217 254 c 0,6,7
 217 164 217 164 264.5 108 c 128,-1,8
 312 52 312 52 406 52 c 0,9,10
 467 52 467 52 517 72 c 0,11,12
 535 80 535 80 539.5 86 c 128,-1,13
 544 92 544 92 548 111 c 2,14,-1
 579 260 l 2,15,16
 584 282 584 282 584 294 c 0,17,18
 584 316 584 316 567.5 326 c 128,-1,19
 551 336 551 336 507 336 c 1,20,-1
 517 381 l 1,21,-1
 797 381 l 1,22,-1
 787 336 l 1,23,24
 740 336 740 336 724.5 318.5 c 128,-1,25
 709 301 709 301 700 260 c 2,26,-1
 658 61 l 1,27,28
 599 32 599 32 518 9 c 128,-1,29
 437 -14 437 -14 379 -14 c 0,30,31
 254 -14 254 -14 166 56 c 128,-1,32
 78 126 78 126 78 256 c 0,33,34
 78 368 78 368 135 469.5 c 128,-1,35
 192 571 192 571 295 635.5 c 128,-1,36
 398 700 398 700 519 700 c 0,37,38
 562 700 562 700 616 682.5 c 128,-1,39
 670 665 670 665 684 665 c 0,40,41
 714 665 714 665 734 700 c 1,42,-1
 777 700 l 1,43,-1
 735 464 l 1,44,-1
 692 464 l 1,45,46
 679 549 679 549 637.5 592.5 c 128,-1,47
 596 636 596 636 514 636 c 0,0,1
EndSplineSet
EndChar

StartChar: H
Encoding: 72 72 41
Width: 721
Flags: W
HStem: 0 45<18 100.92 245.469 310 422 506.287 650.104 714> 321 66<305 569> 645 45<150 218.595 364.652 447 559 624.321 768.931 851>
DStem2: 95.4448 0 223.445 0 0.207912 0.978148<109.883 354.644 422.112 621.096> 500.769 0 627.445 0 0.207912 0.978148<109.608 328.171 395.64 620.259>
LayerCount: 3
Fore
SplineSet
714 0 m 1
 412 0 l 1
 422 45 l 1
 495 45 515 68 521 92 c 2
 569 321 l 1
 291 321 l 1
 243 92 l 2
 242 88 242 85 242 81 c 0
 242 61 258 45 320 45 c 1
 310 0 l 1
 8 0 l 1
 18 45 l 1
 91 45 109 68 115 92 c 2
 222 598 l 2
 223 601 223 605 223 608 c 0
 223 627 208 645 140 645 c 1
 150 690 l 1
 457 690 l 1
 447 645 l 1
 374 645 355 621 350 598 c 2
 305 387 l 1
 583 387 l 1
 628 598 l 2
 629 601 629 604 629 607 c 0
 629 627 612 645 549 645 c 1
 559 690 l 1
 861 690 l 1
 851 645 l 1
 779 645 759 621 754 598 c 2
 647 92 l 2
 646 88 646 85 646 81 c 0
 646 62 663 45 724 45 c 1
 714 0 l 1
EndSplineSet
Validated: 1
Layer: 2
SplineSet
714 0 m 1,0,-1
 412 0 l 1,1,-1
 422 45 l 1,2,3
 509 45 509 45 521 92 c 2,4,-1
 569 321 l 1,5,-1
 291 321 l 1,6,-1
 243 92 l 2,7,8
 242 88 242 88 242 81 c 0,9,10
 242 45 242 45 320 45 c 1,11,-1
 310 0 l 1,12,-1
 8 0 l 1,13,-1
 18 45 l 1,14,15
 103 45 103 45 115 92 c 2,16,-1
 222 598 l 2,17,18
 223 601 223 601 223 608 c 0,19,20
 223 645 223 645 140 645 c 1,21,-1
 150 690 l 1,22,-1
 457 690 l 1,23,-1
 447 645 l 1,24,25
 360 645 360 645 350 598 c 2,26,-1
 305 387 l 1,27,-1
 583 387 l 1,28,-1
 628 598 l 2,29,30
 629 601 629 601 629 607 c 0,31,32
 629 645 629 645 549 645 c 1,33,-1
 559 690 l 1,34,-1
 861 690 l 1,35,-1
 851 645 l 1,36,37
 764 645 764 645 754 598 c 2,38,-1
 647 92 l 2,39,40
 646 88 646 88 646 81 c 0,41,42
 646 45 646 45 724 45 c 1,43,-1
 714 0 l 1,0,-1
EndSplineSet
EndChar

StartChar: I
Encoding: 73 73 42
Width: 333
Flags: W
HStem: 0 45<16 109.076 253.485 329> 645 45<153 227.12 372.925 466>
DStem2: 103.891 0 229.891 0 0.207912 0.978148<110.516 620.233>
LayerCount: 3
Fore
SplineSet
329 0 m 1
 6 0 l 1
 16 45 l 1
 99 45 118 68 124 92 c 2
 231 598 l 2
 232 601 232 604 232 607 c 0
 232 627 215 645 143 645 c 1
 153 690 l 1
 476 690 l 1
 466 645 l 1
 383 645 362 621 357 598 c 2
 250 92 l 2
 249 89 249 85 249 82 c 0
 249 62 267 45 339 45 c 1
 329 0 l 1
EndSplineSet
Validated: 1
Layer: 2
SplineSet
329 0 m 1,0,-1
 6 0 l 1,1,-1
 16 45 l 1,2,3
 112 45 112 45 124 92 c 2,4,-1
 231 598 l 2,5,6
 232 601 232 601 232 607 c 0,7,8
 232 645 232 645 143 645 c 1,9,-1
 153 690 l 1,10,-1
 476 690 l 1,11,-1
 466 645 l 1,12,13
 367 645 367 645 357 598 c 2,14,-1
 250 92 l 2,15,16
 249 89 249 89 249 82 c 0,17,18
 249 45 249 45 339 45 c 1,19,-1
 329 0 l 1,0,-1
EndSplineSet
EndChar

StartChar: J
Encoding: 74 74 43
Width: 388
Flags: W
HStem: -14 63<66 172.31> 645 45<213 287.12 432.925 526>
VStem: 12 124<49.4901 107.861>
DStem2: 160.915 -14 286.915 -14 0.207912 0.978148<129.724 634.546>
LayerCount: 3
Fore
SplineSet
136 93 m 0
 136 84 132 82 132 71 c 0
 132 59 136 49 145 49 c 0
 170 49 183 91 191 126 c 2
 291 598 l 2
 292 601 292 604 292 607 c 0
 292 627 275 645 203 645 c 1
 213 690 l 1
 536 690 l 1
 526 645 l 1
 443 645 422 621 417 598 c 2
 335 210 l 2
 303 60 207 -14 109 -14 c 0
 23 -14 12 37 12 61 c 0
 12 98 51 132 86 132 c 0
 121 132 136 108 136 93 c 0
EndSplineSet
Validated: 1
Layer: 2
SplineSet
136 93 m 0,0,1
 136 89 136 89 134 83 c 128,-1,2
 132 77 132 77 132 71 c 0,3,4
 132 49 132 49 145 49 c 0,5,6
 173 49 173 49 191 126 c 2,7,-1
 291 598 l 2,8,9
 292 601 292 601 292 607 c 0,10,11
 292 645 292 645 203 645 c 1,12,-1
 213 690 l 1,13,-1
 536 690 l 1,14,-1
 526 645 l 1,15,16
 427 645 427 645 417 598 c 2,17,-1
 335 210 l 2,18,19
 312 102 312 102 249.5 44 c 128,-1,20
 187 -14 187 -14 109 -14 c 0,21,22
 79 -14 79 -14 58 -6 c 128,-1,23
 37 2 37 2 28 15 c 128,-1,24
 19 28 19 28 15.5 39 c 128,-1,25
 12 50 12 50 12 61 c 0,26,27
 12 88 12 88 35.5 110 c 128,-1,28
 59 132 59 132 86 132 c 0,29,30
 110 132 110 132 123 119.5 c 128,-1,31
 136 107 136 107 136 93 c 0,0,1
EndSplineSet
EndChar

StartChar: K
Encoding: 75 75 44
Width: 721
Flags: W
HStem: 0 45<18 103.498 247.335 315 402 472.988 659.477 720> 645 45<155 221.469 366.508 453 534 588.974 713.736 810>
DStem2: 98.4448 0 224.445 0 0.207912 0.978148<110.401 338.932 424.839 620.118> 419 390 304 315 0.582557 -0.81279<0 299.023>
LayerCount: 3
Fore
SplineSet
307 390 m 1
 407 464 589 590 589 630 c 0
 589 652 553 644 525 647 c 1
 534 690 l 1
 820 690 l 1
 810 645 l 1
 727 645 683 608 627 562 c 2
 419 390 l 1
 586 157 l 1
 623 101 651 45 730 45 c 1
 720 0 l 1
 392 0 l 1
 402 45 l 1
 457 45 473 48 473 60 c 0
 473 76 438 144 374 224 c 1
 304 315 l 1
 289 306 l 1
 244 92 l 2
 243 89 243 85 243 82 c 0
 243 62 261 45 325 45 c 1
 315 0 l 1
 8 0 l 1
 18 45 l 1
 93 45 112 68 118 92 c 2
 225 598 l 2
 226 601 226 604 226 607 c 0
 226 627 210 645 145 645 c 1
 155 690 l 1
 463 690 l 1
 453 645 l 1
 377 645 356 621 351 598 c 2
 307 390 l 1
EndSplineSet
Validated: 1
Layer: 2
SplineSet
307 390 m 1,0,1
 321 401 321 401 353.5 424 c 128,-1,2
 386 447 386 447 407.5 463 c 128,-1,3
 429 479 429 479 459.5 502.5 c 128,-1,4
 490 526 490 526 510 543 c 128,-1,5
 530 560 530 560 550 577.5 c 128,-1,6
 570 595 570 595 579.5 608.5 c 128,-1,7
 589 622 589 622 589 630 c 0,8,9
 589 636 589 636 585.5 639.5 c 128,-1,10
 582 643 582 643 574.5 644.5 c 128,-1,11
 567 646 567 646 560 646 c 128,-1,12
 553 646 553 646 542.5 646 c 128,-1,13
 532 646 532 646 525 647 c 1,14,-1
 534 690 l 1,15,-1
 820 690 l 1,16,-1
 810 645 l 1,17,18
 771 645 771 645 736.5 632 c 128,-1,19
 702 619 702 619 683 605.5 c 128,-1,20
 664 592 664 592 627 562 c 2,21,-1
 419 390 l 1,22,-1
 586 157 l 2,23,24
 588 154 588 154 599 137 c 128,-1,25
 610 120 610 120 613 115.5 c 128,-1,26
 616 111 616 111 626.5 97.5 c 128,-1,27
 637 84 637 84 642.5 79.5 c 128,-1,28
 648 75 648 75 659 66 c 128,-1,29
 670 57 670 57 679.5 54 c 128,-1,30
 689 51 689 51 702.5 48 c 128,-1,31
 716 45 716 45 730 45 c 1,32,-1
 720 0 l 1,33,-1
 392 0 l 1,34,-1
 402 45 l 1,35,36
 444 45 444 45 458.5 48 c 128,-1,37
 473 51 473 51 473 60 c 0,38,39
 473 74 473 74 445.5 121.5 c 128,-1,40
 418 169 418 169 374 224 c 2,41,-1
 304 315 l 1,42,-1
 289 306 l 1,43,-1
 244 92 l 2,44,45
 243 89 243 89 243 82 c 0,46,47
 243 45 243 45 325 45 c 1,48,-1
 315 0 l 1,49,-1
 8 0 l 1,50,-1
 18 45 l 1,51,52
 106 45 106 45 118 92 c 2,53,-1
 225 598 l 2,54,55
 226 601 226 601 226 607 c 0,56,57
 226 645 226 645 145 645 c 1,58,-1
 155 690 l 1,59,-1
 463 690 l 1,60,-1
 453 645 l 1,61,62
 361 645 361 645 351 598 c 2,63,-1
 307 390 l 1,0,1
EndSplineSet
EndChar

StartChar: L
Encoding: 76 76 45
Width: 609
Flags: W
HStem: 0 66<235 493.682> 0 45<10 93.3398> 645 45<147 211.513 356.712 440>
DStem2: 88.4448 0 215.445 0 0.207912 0.978148<116.548 620.118>
LayerCount: 3
Fore
SplineSet
656 198 m 1xa0
 559 0 l 1
 0 0 l 1
 10 45 l 1x60
 82 45 102 68 108 92 c 2
 215 598 l 2
 216 601 216 604 216 607 c 0
 216 627 200 645 137 645 c 1
 147 690 l 1
 450 690 l 1
 440 645 l 1
 366 645 347 621 342 598 c 2
 235 92 l 2
 235 90 235 89 235 88 c 0
 235 69 267 66 317 66 c 2
 345 66 l 2
 450 66 528 71 607 198 c 1
 656 198 l 1xa0
EndSplineSet
Validated: 1
Layer: 2
SplineSet
656 198 m 1,0,-1
 559 0 l 1,1,-1
 0 0 l 1,2,-1
 10 45 l 1,3,4
 96 45 96 45 108 92 c 2,5,-1
 215 598 l 2,6,7
 216 601 216 601 216 607 c 0,8,9
 216 645 216 645 137 645 c 1,10,-1
 147 690 l 1,11,-1
 450 690 l 1,12,-1
 440 645 l 1,13,14
 352 645 352 645 342 598 c 2,15,-1
 235 92 l 1,16,17
 235 92 235 92 235 88 c 2,18,19
 235 66 235 66 317 66 c 2,20,-1
 345 66 l 2,21,22
 393 66 393 66 421 69 c 128,-1,23
 449 72 449 72 484.5 84 c 128,-1,24
 520 96 520 96 549 124 c 128,-1,25
 578 152 578 152 607 198 c 1,26,-1
 656 198 l 1,0,-1
EndSplineSet
EndChar

StartChar: M
Encoding: 77 77 46
Width: 887
Flags: W
HStem: 0 45<18 109.182 195.447 269 591 673.656 817.123 882> 645 45<156 227.187 935.712 1019>
DStem2: 104.445 0 172.445 0 0.207912 0.978148<98.3422 530.257> 374 690 279 505 0.236646 -0.971596<157.264 505.949> 492 198 432 0 0.550313 0.834958<0 434.026> 667.77 0 793.891 0 0.207912 0.978148<110.541 539.796>
LayerCount: 3
Fore
SplineSet
882 0 m 1
 581 0 l 1
 591 45 l 1
 663 45 682 68 688 92 c 2
 780 528 l 1
 432 0 l 1
 402 0 l 1
 279 505 l 1
 192 92 l 2
 191 89 191 85 191 82 c 0
 191 62 209 45 279 45 c 1
 269 0 l 1
 8 0 l 1
 18 45 l 1
 99 45 118 68 124 92 c 2
 231 598 l 2
 232 601 232 604 232 607 c 0
 232 627 215 645 146 645 c 1
 156 690 l 1
 374 690 l 1
 492 198 l 1
 809 690 l 1
 1029 690 l 1
 1019 645 l 1
 945 645 926 621 921 598 c 2
 814 92 l 2
 813 88 813 85 813 82 c 0
 813 62 830 45 892 45 c 1
 882 0 l 1
EndSplineSet
Validated: 1
Layer: 2
SplineSet
882 0 m 1,0,-1
 581 0 l 1,1,-1
 591 45 l 1,2,3
 676 45 676 45 688 92 c 2,4,-1
 780 528 l 1,5,-1
 432 0 l 1,6,-1
 402 0 l 1,7,-1
 279 505 l 1,8,-1
 192 92 l 2,9,10
 191 89 191 89 191 82 c 0,11,12
 191 45 191 45 279 45 c 1,13,-1
 269 0 l 1,14,-1
 8 0 l 1,15,-1
 18 45 l 1,16,17
 112 45 112 45 124 92 c 2,18,-1
 231 598 l 2,19,20
 232 601 232 601 232 607 c 0,21,22
 232 645 232 645 146 645 c 1,23,-1
 156 690 l 1,24,-1
 374 690 l 1,25,-1
 492 198 l 1,26,-1
 809 690 l 1,27,-1
 1029 690 l 1,28,-1
 1019 645 l 1,29,30
 931 645 931 645 921 598 c 2,31,-1
 814 92 l 2,32,33
 813 88 813 88 813 82 c 0,34,35
 813 45 813 45 892 45 c 1,36,-1
 882 0 l 1,0,-1
EndSplineSet
EndChar

StartChar: N
Encoding: 78 78 47
Width: 721
Flags: W
HStem: -14 21G<575.308 625.248> 0 45<10 101.865 189.292 263> 645 45<147 206.583 605 677.335 766.468 857>
DStem2: 94.469 -14 163.469 -14 0.207912 0.978148<111.929 558.117> 336 690 276 518 0.504678 -0.863308<118.208 532.734> 551.349 -14 621 -14 0.207912 0.978148<248.429 635.433>
LayerCount: 3
Fore
SplineSet
857 645 m 1x60
 776 645 756 621 751 598 c 2
 621 -14 l 1
 587 -14 l 1xa0
 276 518 l 1
 186 92 l 2
 185 88 185 85 185 81 c 0
 185 62 202 45 273 45 c 1
 263 0 l 1
 0 0 l 1
 10 45 l 1
 91 45 111 68 117 92 c 2
 224 596 l 1
 220 605 l 1
 198 636 194 645 137 645 c 1
 147 690 l 1
 336 690 l 1
 603 229 l 1
 681 598 l 2
 682 601 682 605 682 608 c 0
 682 627 666 645 595 645 c 1
 605 690 l 1
 867 690 l 1
 857 645 l 1x60
EndSplineSet
Validated: 1
Layer: 2
SplineSet
857 645 m 1,0,1
 761 645 761 645 751 598 c 2,2,-1
 621 -14 l 1,3,-1
 587 -14 l 1,4,-1
 276 518 l 1,5,-1
 186 92 l 2,6,7
 185 88 185 88 185 81 c 0,8,9
 185 45 185 45 273 45 c 1,10,-1
 263 0 l 1,11,-1
 0 0 l 1,12,-1
 10 45 l 1,13,14
 105 45 105 45 117 92 c 2,15,-1
 224 596 l 1,16,-1
 220 605 l 1,17,18
 202 631 202 631 189.5 638 c 128,-1,19
 177 645 177 645 137 645 c 1,20,-1
 147 690 l 1,21,-1
 336 690 l 1,22,-1
 603 229 l 1,23,-1
 681 598 l 2,24,25
 682 601 682 601 682 608 c 0,26,27
 682 645 682 645 595 645 c 1,28,-1
 605 690 l 1,29,-1
 867 690 l 1,30,-1
 857 645 l 1,0,1
EndSplineSet
EndChar

StartChar: O
Encoding: 79 79 48
Width: 721
Flags: W
HStem: -14 62<287.843 461.477> 639 61<404.04 581.667>
VStem: 85 135<141.938 375.728> 648 134<315.307 547.285>
LayerCount: 3
Fore
SplineSet
782 434 m 0
 782 221 614 -14 358 -14 c 0
 201 -14 85 88 85 255 c 0
 85 458 241 700 510 700 c 0
 670 700 782 601 782 434 c 0
371 48 m 0
 568 48 648 316 648 458 c 0
 648 559 610 639 497 639 c 0
 275 639 220 336 220 229 c 0
 220 108 277 48 371 48 c 0
EndSplineSet
Validated: 1
Layer: 2
SplineSet
782 434 m 0,0,1
 782 326 782 326 730.5 224 c 128,-1,2
 679 122 679 122 579.5 54 c 128,-1,3
 480 -14 480 -14 358 -14 c 0,4,5
 238 -14 238 -14 161.5 59 c 128,-1,6
 85 132 85 132 85 255 c 0,7,8
 85 332 85 332 114.5 410 c 128,-1,9
 144 488 144 488 196 553 c 128,-1,10
 248 618 248 618 330.5 659 c 128,-1,11
 413 700 413 700 510 700 c 0,12,13
 632 700 632 700 707 628.5 c 128,-1,14
 782 557 782 557 782 434 c 0,0,1
371 48 m 0,15,16
 441 48 441 48 497 91.5 c 128,-1,17
 553 135 553 135 584 200.5 c 128,-1,18
 615 266 615 266 631.5 333 c 128,-1,19
 648 400 648 400 648 458 c 0,20,21
 648 639 648 639 497 639 c 0,22,23
 434 639 434 639 383.5 606.5 c 128,-1,24
 333 574 333 574 303.5 526 c 128,-1,25
 274 478 274 478 254 419 c 128,-1,26
 234 360 234 360 227 313 c 128,-1,27
 220 266 220 266 220 229 c 0,28,29
 220 140 220 140 259.5 94 c 128,-1,30
 299 48 299 48 371 48 c 0,15,16
EndSplineSet
EndChar

StartChar: P
Encoding: 80 80 49
Width: 556
Flags: W
HStem: 0 45<8 93.2344 237.104 301> 289 63<289 432.358> 627 63<342.692 485.676> 645 45<152 211.795>
VStem: 530 135<448.154 586.58>
DStem2: 88.4448 0 214.445 0 0.207912 0.978148<109.467 327.613 388.94 621.096>
LayerCount: 3
Fore
SplineSet
661 502 m 0xe8
 628 347 483 289 348 289 c 0
 325 289 300 290 276 292 c 1
 234 92 l 2
 233 88 233 85 233 81 c 0
 233 62 250 45 311 45 c 1
 301 0 l 1
 -2 0 l 1
 8 45 l 1
 82 45 102 68 108 92 c 2
 215 598 l 2
 216 601 216 605 216 608 c 0
 216 627 201 645 142 645 c 1
 152 690 l 1xd8
 414 690 l 2
 561 690 665 639 665 537 c 0
 665 526 664 514 661 502 c 0xe8
325 352 m 0
 508 352 530 481 530 528 c 0
 530 607 456 627 377 627 c 0xe8
 348 627 347 624 340 594 c 2
 289 355 l 1
 301 353 313 352 325 352 c 0
EndSplineSet
Validated: 1
Layer: 2
SplineSet
661 502 m 0,0,1
 638 394 638 394 549.5 341.5 c 128,-1,2
 461 289 461 289 348 289 c 0,3,4
 312 289 312 289 276 292 c 1,5,-1
 234 92 l 2,6,7
 233 88 233 88 233 81 c 0,8,9
 233 45 233 45 311 45 c 1,10,-1
 301 0 l 1,11,-1
 -2 0 l 1,12,-1
 8 45 l 1,13,14
 96 45 96 45 108 92 c 2,15,-1
 215 598 l 2,16,17
 216 601 216 601 216 608 c 0,18,19
 216 645 216 645 142 645 c 1,20,-1
 152 690 l 1,21,-1
 414 690 l 2,22,23
 528 690 528 690 596.5 650.5 c 128,-1,24
 665 611 665 611 665 537 c 0,25,26
 665 518 665 518 661 502 c 0,0,1
325 352 m 0,27,28
 377 352 377 352 416.5 366 c 128,-1,29
 456 380 456 380 476.5 400 c 128,-1,30
 497 420 497 420 510 446 c 128,-1,31
 523 472 523 472 526.5 491 c 128,-1,32
 530 510 530 510 530 528 c 0,33,34
 530 627 530 627 377 627 c 0,35,36
 356 627 356 627 350.5 622 c 128,-1,37
 345 617 345 617 340 594 c 2,38,-1
 289 355 l 1,39,40
 307 352 307 352 325 352 c 0,27,28
EndSplineSet
EndChar

StartChar: Q
Encoding: 81 81 50
Width: 721
Flags: W
HStem: -177 42<581.249 675> 639 61<404.535 578.611>
VStem: 86 134<129.166 380.969> 648 134<305.197 548.292>
LayerCount: 3
Fore
SplineSet
782 434 m 0
 782 216 612 19 448 -6 c 1
 497 -84 566 -132 684 -135 c 1
 675 -177 l 1
 309 -177 304 -44 257 -5 c 1
 251 5 239 8 232 9 c 0
 132 38 86 141 86 253 c 0
 86 461 244 700 510 700 c 0
 686 700 782 589 782 434 c 0
371 48 m 0
 570 48 648 312 648 454 c 0
 648 573 593 639 497 639 c 0
 275 639 220 336 220 231 c 0
 220 113 274 48 371 48 c 0
EndSplineSet
Validated: 1
Layer: 2
SplineSet
782 434 m 0,0,1
 782 275 782 275 678.5 144 c 128,-1,2
 575 13 575 13 448 -6 c 1,3,4
 487 -68 487 -68 543 -100.5 c 128,-1,5
 599 -133 599 -133 684 -135 c 1,6,-1
 675 -177 l 1,7,8
 572 -177 572 -177 497 -163.5 c 128,-1,9
 422 -150 422 -150 382 -127 c 128,-1,10
 342 -104 342 -104 320 -83 c 128,-1,11
 298 -62 298 -62 282 -37 c 128,-1,12
 266 -12 266 -12 257 -5 c 0,13,14
 250 6 250 6 232 9 c 0,15,16
 160 30 160 30 123 97 c 128,-1,17
 86 164 86 164 86 253 c 0,18,19
 86 332 86 332 115.5 410.5 c 128,-1,20
 145 489 145 489 197.5 554 c 128,-1,21
 250 619 250 619 332 659.5 c 128,-1,22
 414 700 414 700 510 700 c 0,23,24
 639 700 639 700 710.5 626.5 c 128,-1,25
 782 553 782 553 782 434 c 0,0,1
371 48 m 0,26,27
 419 48 419 48 460.5 68 c 128,-1,28
 502 88 502 88 531.5 122 c 128,-1,29
 561 156 561 156 584 198 c 128,-1,30
 607 240 607 240 620.5 286 c 128,-1,31
 634 332 634 332 641 374.5 c 128,-1,32
 648 417 648 417 648 454 c 0,33,34
 648 543 648 543 608.5 591 c 128,-1,35
 569 639 569 639 497 639 c 0,36,37
 434 639 434 639 383.5 606.5 c 128,-1,38
 333 574 333 574 303.5 526 c 128,-1,39
 274 478 274 478 254 419.5 c 128,-1,40
 234 361 234 361 227 314 c 128,-1,41
 220 267 220 267 220 231 c 0,42,43
 220 143 220 143 259 95.5 c 128,-1,44
 298 48 298 48 371 48 c 0,26,27
EndSplineSet
EndChar

StartChar: R
Encoding: 82 82 51
Width: 666
Flags: W
HStem: 0 45<10 90.3418 234.968 300 611.157 665> 306 61<290 314> 627 63<341.678 490.603> 645 45<147 208.263>
VStem: 531 134<454.231 591.59>
DStem2: 84.4448 0 212.445 0 0.207912 0.978148<109.883 339.348 401.717 621.096> 453 323 314 307 0.490935 -0.871196<0 298.088>
LayerCount: 3
Fore
SplineSet
665 542 m 0xe8
 665 505 649 361 453 323 c 1
 588 95 l 1
 607 66 623 48 674 43 c 1
 665 0 l 1
 487 0 l 1
 314 307 l 1
 277 306 l 1
 232 92 l 2
 231 88 231 85 231 81 c 0
 231 62 247 45 310 45 c 1
 300 0 l 1
 0 0 l 1
 10 45 l 1
 81 45 98 68 104 92 c 2
 211 598 l 2
 212 601 212 605 212 608 c 0
 212 628 197 645 137 645 c 1
 147 690 l 1xd8
 423 690 l 2
 578 690 665 639 665 542 c 0xe8
527 499 m 0
 529 511 531 522 531 532 c 0
 531 599 477 627 406 627 c 2
 387 627 l 2xe8
 351 627 345 625 338 591 c 2
 290 367 l 1
 418 373 506 401 527 499 c 0
EndSplineSet
Validated: 1
Layer: 2
SplineSet
665 542 m 0,0,1
 665 526 665 526 662 508 c 128,-1,2
 659 490 659 490 646.5 460 c 128,-1,3
 634 430 634 430 613 405.5 c 128,-1,4
 592 381 592 381 550 357.5 c 128,-1,5
 508 334 508 334 453 323 c 1,6,-1
 588 95 l 2,7,8
 604 70 604 70 621.5 58 c 128,-1,9
 639 46 639 46 674 43 c 1,10,-1
 665 0 l 1,11,-1
 487 0 l 1,12,-1
 314 307 l 1,13,-1
 277 306 l 1,14,-1
 232 92 l 2,15,16
 231 88 231 88 231 81 c 0,17,18
 231 45 231 45 310 45 c 1,19,-1
 300 0 l 1,20,-1
 0 0 l 1,21,-1
 10 45 l 1,22,23
 92 45 92 45 104 92 c 2,24,-1
 211 598 l 2,25,26
 212 601 212 601 212 608 c 0,27,28
 212 645 212 645 137 645 c 1,29,-1
 147 690 l 1,30,-1
 423 690 l 2,31,32
 540 690 540 690 602.5 652 c 128,-1,33
 665 614 665 614 665 542 c 0,0,1
527 499 m 0,34,35
 531 523 531 523 531 532 c 0,36,37
 531 580 531 580 497 603.5 c 128,-1,38
 463 627 463 627 406 627 c 2,39,-1
 387 627 l 2,40,41
 359 627 359 627 351 621.5 c 128,-1,42
 343 616 343 616 338 591 c 2,43,-1
 290 367 l 1,44,45
 395 372 395 372 453.5 401 c 128,-1,46
 512 430 512 430 527 499 c 0,34,35
EndSplineSet
EndChar

StartChar: S
Encoding: 83 83 52
Width: 556
Flags: W
HStem: -14 63<203.139 352.794> 634 66<326.207 466.901>
VStem: 77 45<141.966 226> 165 120<404.5 569.492> 412 133<135.249 233.749> 531 49<462 523.704>
LayerCount: 3
Fore
SplineSet
282 49 m 0xf8
 351 49 412 106 412 174 c 0xf8
 412 308 165 325 165 484 c 0
 165 594 269 700 396 700 c 0
 463 700 497 665 525 665 c 0
 539 665 551 674 565 700 c 1
 607 700 l 1
 580 462 l 1
 531 462 l 1xf4
 529 559 484 634 398 634 c 0
 313 634 285 570 285 537 c 0
 285 426 545 387 545 226 c 0
 545 102 430 -14 277 -14 c 0
 212 -14 169 22 138 22 c 0
 123 22 111 13 101 -14 c 1
 58 -14 l 1
 77 226 l 1
 122 226 l 1
 133 129 182 49 282 49 c 0xf8
EndSplineSet
Validated: 1
Layer: 2
SplineSet
282 49 m 0,0,1
 334 49 334 49 373 86 c 128,-1,2
 412 123 412 123 412 174 c 0,3,4
 412 211 412 211 386.5 242 c 128,-1,5
 361 273 361 273 324.5 296 c 128,-1,6
 288 319 288 319 252 344 c 128,-1,7
 216 369 216 369 190.5 404.5 c 128,-1,8
 165 440 165 440 165 484 c 0,9,10
 165 568 165 568 233.5 634 c 128,-1,11
 302 700 302 700 396 700 c 0,12,13
 434 700 434 700 475 682.5 c 128,-1,14
 516 665 516 665 525 665 c 0,15,16
 546 665 546 665 565 700 c 1,17,-1
 607 700 l 1,18,-1
 580 462 l 1,19,-1
 531 462 l 1,20,21
 529 538 529 538 494.5 586 c 128,-1,22
 460 634 460 634 398 634 c 0,23,24
 341 634 341 634 313 602 c 128,-1,25
 285 570 285 570 285 537 c 0,26,27
 285 507 285 507 312 478.5 c 128,-1,28
 339 450 339 450 377 425.5 c 128,-1,29
 415 401 415 401 453 374 c 128,-1,30
 491 347 491 347 518 309 c 128,-1,31
 545 271 545 271 545 226 c 0,32,33
 545 131 545 131 467 58.5 c 128,-1,34
 389 -14 389 -14 277 -14 c 0,35,36
 240 -14 240 -14 194.5 4 c 128,-1,37
 149 22 149 22 138 22 c 0,38,39
 114 22 114 22 101 -14 c 1,40,-1
 58 -14 l 1,41,-1
 77 226 l 1,42,-1
 122 226 l 1,43,44
 131 148 131 148 171 98.5 c 128,-1,45
 211 49 211 49 282 49 c 0,0,1
EndSplineSet
EndChar

StartChar: T
Encoding: 84 84 53
Width: 609
Flags: W
HStem: 0 45<164 246.92 390.625 456> 622 68<221.997 373 501 643.28>
VStem: 111 48<495 523.438> 664 46<495 532.917>
DStem2: 241.445 0 369.445 0 0.207912 0.978148<109.631 635.76>
LayerCount: 3
Fore
SplineSet
710 495 m 1
 664 495 l 1
 664 514 l 2
 664 619 625 622 567 622 c 2
 501 622 l 1
 389 92 l 2
 388 88 387 84 387 81 c 0
 387 61 404 45 466 45 c 1
 456 0 l 1
 154 0 l 1
 164 45 l 1
 237 45 255 68 261 92 c 2
 373 622 l 1
 307 622 l 2
 246 622 208 619 159 495 c 1
 111 495 l 1
 159 690 l 1
 746 690 l 1
 710 495 l 1
EndSplineSet
Validated: 1
Layer: 2
SplineSet
710 495 m 1,0,-1
 664 495 l 1,1,-1
 664 514 l 2,2,3
 664 552 664 552 658 575 c 128,-1,4
 652 598 652 598 636.5 607.5 c 128,-1,5
 621 617 621 617 607.5 619.5 c 128,-1,6
 594 622 594 622 567 622 c 2,7,-1
 501 622 l 1,8,-1
 389 92 l 2,9,10
 387 84 387 84 387 81 c 0,11,12
 387 45 387 45 466 45 c 1,13,-1
 456 0 l 1,14,-1
 154 0 l 1,15,-1
 164 45 l 1,16,17
 249 45 249 45 261 92 c 2,18,-1
 373 622 l 1,19,-1
 307 622 l 2,20,21
 279 622 279 622 264 619.5 c 128,-1,22
 249 617 249 617 229.5 605.5 c 128,-1,23
 210 594 210 594 193.5 567 c 128,-1,24
 177 540 177 540 159 495 c 1,25,-1
 111 495 l 1,26,-1
 159 690 l 1,27,-1
 746 690 l 1,28,-1
 710 495 l 1,0,-1
EndSplineSet
EndChar

StartChar: U
Encoding: 85 85 54
Width: 721
Flags: W
HStem: -14 69<300.952 477.55> 645 45<152 215.536 359.991 443 608 677.232 764.348 853>
VStem: 137 125<91.8122 306.656>
DStem2: 89.4842 -14 215.185 -14 0.207912 0.978148<215.041 634.428> 551.508 -14 619.508 -14 0.207912 0.978148<149.884 634.423>
LayerCount: 3
Fore
SplineSet
853 645 m 1
 774 645 754 621 749 598 c 2
 682 280 l 2
 656 161 626 69 495 14 c 1
 458 -3 401 -14 356 -14 c 0
 204 -14 137 42 137 163 c 0
 137 193 141 228 149 266 c 2
 219 598 l 2
 220 601 220 604 220 607 c 0
 220 627 204 645 142 645 c 1
 152 690 l 1
 453 690 l 1
 443 645 l 1
 370 645 350 621 345 598 c 2
 273 258 l 2
 266 223 262 193 262 168 c 0
 262 88 301 55 391 55 c 0
 566 55 594 190 614 280 c 1
 681 598 l 2
 682 601 682 604 682 607 c 0
 682 627 665 645 598 645 c 1
 608 690 l 1
 863 690 l 1
 853 645 l 1
EndSplineSet
Validated: 1
Layer: 2
SplineSet
853 645 m 1,0,1
 759 645 759 645 749 598 c 2,2,-1
 682 280 l 2,3,4
 671 228 671 228 660 194.5 c 128,-1,5
 649 161 649 161 628.5 124 c 128,-1,6
 608 87 608 87 575 60.5 c 128,-1,7
 542 34 542 34 495 14 c 0,8,9
 434 -14 434 -14 356 -14 c 0,10,11
 242 -14 242 -14 189.5 29 c 128,-1,12
 137 72 137 72 137 163 c 0,13,14
 137 209 137 209 149 266 c 2,15,-1
 219 598 l 2,16,17
 220 601 220 601 220 607 c 0,18,19
 220 645 220 645 142 645 c 1,20,-1
 152 690 l 1,21,-1
 453 690 l 1,22,-1
 443 645 l 1,23,24
 355 645 355 645 345 598 c 2,25,-1
 273 258 l 2,26,27
 262 203 262 203 262 168 c 0,28,29
 262 108 262 108 292.5 81.5 c 128,-1,30
 323 55 323 55 391 55 c 0,31,32
 423 55 423 55 450 60.5 c 128,-1,33
 477 66 477 66 497 78 c 128,-1,34
 517 90 517 90 533 102 c 128,-1,35
 549 114 549 114 561 134.5 c 128,-1,36
 573 155 573 155 580.5 168.5 c 128,-1,37
 588 182 588 182 595.5 207 c 128,-1,38
 603 232 603 232 606 243.5 c 128,-1,39
 609 255 609 255 614 280 c 2,40,-1
 681 598 l 2,41,42
 682 601 682 601 682 607 c 0,43,44
 682 645 682 645 598 645 c 1,45,-1
 608 690 l 1,46,-1
 863 690 l 1,47,-1
 853 645 l 1,0,1
EndSplineSet
EndChar

StartChar: V
Encoding: 86 86 55
Width: 721
Flags: W
HStem: -14 21G<358.326 402.134> 645 45<155 200.226 354.809 435 631 687.773 785.687 850>
DStem2: 375 507 234 538 0.227564 -0.973763<-108.729 310.98> 445 204 390 -14 0.518716 0.854947<0 480.959>
LayerCount: 3
Fore
SplineSet
435 645 m 1
 376 645 354 642 354 615 c 0
 354 589 372 525 375 507 c 1
 445 204 l 1
 647 536 l 2
 661 559 688 602 688 620 c 0
 688 645 653 645 621 645 c 1
 631 690 l 1
 860 690 l 1
 850 645 l 1
 796 645 773 616 751 581 c 2
 390 -14 l 1
 363 -14 l 1
 234 538 l 2
 221 593 211 645 145 645 c 1
 155 690 l 1
 445 690 l 1
 435 645 l 1
EndSplineSet
Validated: 1
Layer: 2
SplineSet
435 645 m 1,0,1
 388 645 388 645 371 639.5 c 128,-1,2
 354 634 354 634 354 615 c 0,3,4
 354 604 354 604 358.5 581.5 c 128,-1,5
 363 559 363 559 368.5 536 c 128,-1,6
 374 513 374 513 375 507 c 2,7,-1
 445 204 l 1,8,-1
 647 536 l 2,9,10
 688 603 688 603 688 620 c 0,11,12
 688 629 688 629 682.5 634.5 c 128,-1,13
 677 640 677 640 665.5 642 c 128,-1,14
 654 644 654 644 645.5 644.5 c 128,-1,15
 637 645 637 645 621 645 c 1,16,-1
 631 690 l 1,17,-1
 860 690 l 1,18,-1
 850 645 l 1,19,20
 813 645 813 645 792 629 c 128,-1,21
 771 613 771 613 751 581 c 2,22,-1
 390 -14 l 1,23,-1
 363 -14 l 1,24,-1
 234 538 l 2,25,26
 227 568 227 568 223.5 579.5 c 128,-1,27
 220 591 220 591 210 610.5 c 128,-1,28
 200 630 200 630 184.5 637.5 c 128,-1,29
 169 645 169 645 145 645 c 1,30,-1
 155 690 l 1,31,-1
 445 690 l 1,32,-1
 435 645 l 1,0,1
EndSplineSet
EndChar

StartChar: W
Encoding: 87 87 56
Width: 943
Flags: W
HStem: -14 21G<290.188 337.514 620.725 664.275> 645 45<144 188.43 333.606 403 451 509.712 651.732 733 872 924.786 1014.36 1086>
DStem2: 337 573 231 427 0.13922 -0.990261<-37.8087 344.624> 394 233 558 389 0.498915 0.866651<0 217.02> 652 590 558 389 0.161619 -0.986853<183.165 362.327> 714 233 653 -14 0.491094 0.871107<0 439.986>
LayerCount: 3
Fore
SplineSet
697 645 m 2
 660 645 651 639 651 613 c 0
 651 603 652 594 652 590 c 2
 714 233 l 1
 887 533 l 2
 906 566 925 602 925 620 c 0
 925 645 892 644 863 647 c 1
 872 690 l 1
 1095 690 l 1
 1086 647 l 1
 1028 642 1009 631 989 582 c 1
 653 -14 l 1
 624 -14 l 1
 558 389 l 1
 326 -14 l 1
 293 -14 l 1
 231 427 l 1
 199 610 213 635 135 647 c 1
 144 690 l 1
 413 690 l 1
 403 645 l 1
 378 645 l 1
 361 643 332 644 332 611 c 0
 332 600 335 580 337 573 c 2
 394 233 l 1
 538 481 l 1
 535 522 530 570 518 607 c 0
 508 637 487 645 441 645 c 1
 451 690 l 1
 743 690 l 1
 733 645 l 1
 697 645 l 2
EndSplineSet
Validated: 1
Layer: 2
SplineSet
697 645 m 2,0,1
 669 645 669 645 660 638.5 c 128,-1,2
 651 632 651 632 651 613 c 0,3,4
 651 607 651 607 651.5 599 c 128,-1,5
 652 591 652 591 652 590 c 2,6,-1
 714 233 l 1,7,-1
 887 533 l 2,8,9
 925 599 925 599 925 620 c 0,10,11
 925 625 925 625 923.5 629 c 128,-1,12
 922 633 922 633 918 635.5 c 128,-1,13
 914 638 914 638 910 640 c 128,-1,14
 906 642 906 642 899 643 c 128,-1,15
 892 644 892 644 888 644.5 c 128,-1,16
 884 645 884 645 875.5 646 c 128,-1,17
 867 647 867 647 863 647 c 2,18,-1
 872 690 l 1,19,-1
 1095 690 l 1,20,-1
 1086 647 l 1,21,22
 1042 643 1042 643 1023 630.5 c 128,-1,23
 1004 618 1004 618 989 582 c 1,24,-1
 653 -14 l 1,25,-1
 624 -14 l 1,26,-1
 558 389 l 1,27,-1
 326 -14 l 1,28,-1
 293 -14 l 1,29,-1
 231 427 l 2,30,31
 226 458 226 458 220 495.5 c 128,-1,32
 214 533 214 533 211.5 549 c 128,-1,33
 209 565 209 565 204.5 586 c 128,-1,34
 200 607 200 607 195.5 614 c 128,-1,35
 191 621 191 621 182.5 629.5 c 128,-1,36
 174 638 174 638 163 641 c 128,-1,37
 152 644 152 644 135 647 c 1,38,-1
 144 690 l 1,39,-1
 413 690 l 1,40,-1
 403 645 l 1,41,-1
 378 645 l 2,42,43
 377 645 377 645 371.5 644.5 c 128,-1,44
 366 644 366 644 363.5 643.5 c 128,-1,45
 361 643 361 643 356 642 c 128,-1,46
 351 641 351 641 348.5 639.5 c 128,-1,47
 346 638 346 638 342.5 635.5 c 128,-1,48
 339 633 339 633 337 630 c 128,-1,49
 335 627 335 627 333.5 622 c 128,-1,50
 332 617 332 617 332 611 c 0,51,52
 332 590 332 590 337 573 c 2,53,-1
 394 233 l 1,54,-1
 538 481 l 1,55,56
 532 564 532 564 518 607 c 0,57,58
 511 629 511 629 493.5 637 c 128,-1,59
 476 645 476 645 441 645 c 1,60,-1
 451 690 l 1,61,-1
 743 690 l 1,62,-1
 733 645 l 1,63,-1
 697 645 l 2,0,1
EndSplineSet
EndChar

StartChar: X
Encoding: 88 88 57
Width: 721
Flags: W
HStem: 0 45<10 79.082 197.259 257 406 484.777 658.571 717> 645 45<159 219.664 396.012 475 594 651.986 764.066 847>
DStem2: 190 163 271 154 0.714195 0.699947<-60.2526 230.446 393.874 655.316> 453 476 304 485 0.431817 -0.901961<-154.77 41.1453 153.034 378.123>
LayerCount: 3
Fore
SplineSet
475 645 m 1
 453 645 l 2
 412 645 396 644 396 622 c 0
 396 587 442 498 453 476 c 2
 471 439 l 1
 591 556 l 2
 605 570 652 605 652 629 c 0
 652 643 633 645 614 645 c 2
 584 645 l 1
 594 690 l 1
 857 690 l 1
 847 645 l 1
 767 645 702 582 666 547 c 2
 499 381 l 1
 622 123 l 2
 650 64 672 45 727 45 c 1
 717 0 l 1
 396 0 l 1
 406 45 l 1
 474 45 485 50 485 71 c 0
 485 94 465 133 451 164 c 2
 398 280 l 1
 271 154 l 2
 256 139 197 84 197 69 c 0
 197 55 219 45 267 45 c 1
 257 0 l 1
 0 0 l 1
 10 45 l 1
 76 45 126 101 190 163 c 2
 370 339 l 1
 304 485 l 2
 251 602 230 642 149 645 c 1
 159 690 l 1
 485 690 l 1
 475 645 l 1
EndSplineSet
Validated: 1
Layer: 2
SplineSet
475 645 m 1,0,-1
 453 645 l 2,1,2
 429 645 429 645 419 644 c 128,-1,3
 409 643 409 643 402.5 638 c 128,-1,4
 396 633 396 633 396 622 c 0,5,6
 396 590 396 590 453 476 c 2,7,-1
 471 439 l 1,8,-1
 591 556 l 2,9,10
 594 559 594 559 606 570 c 128,-1,11
 618 581 618 581 627 589.5 c 128,-1,12
 636 598 636 598 644 609.5 c 128,-1,13
 652 621 652 621 652 629 c 0,14,15
 652 645 652 645 614 645 c 2,16,-1
 584 645 l 1,17,-1
 594 690 l 1,18,-1
 857 690 l 1,19,-1
 847 645 l 1,20,21
 810 645 810 645 771 625.5 c 128,-1,22
 732 606 732 606 712.5 589.5 c 128,-1,23
 693 573 693 573 666 547 c 2,24,-1
 499 381 l 1,25,-1
 622 123 l 2,26,27
 643 78 643 78 664.5 61.5 c 128,-1,28
 686 45 686 45 727 45 c 1,29,-1
 717 0 l 1,30,-1
 396 0 l 1,31,-1
 406 45 l 1,32,33
 456 45 456 45 470.5 50 c 128,-1,34
 485 55 485 55 485 71 c 0,35,36
 485 89 485 89 451 164 c 2,37,-1
 398 280 l 1,38,-1
 271 154 l 2,39,40
 197 80 197 80 197 69 c 0,41,42
 197 45 197 45 267 45 c 1,43,-1
 257 0 l 1,44,-1
 0 0 l 1,45,-1
 10 45 l 1,46,47
 22 45 22 45 34.5 48 c 128,-1,48
 47 51 47 51 56.5 54 c 128,-1,49
 66 57 66 57 79.5 66.5 c 128,-1,50
 93 76 93 76 100 80.5 c 128,-1,51
 107 85 107 85 122.5 99 c 128,-1,52
 138 113 138 113 143.5 118 c 128,-1,53
 149 123 149 123 167 140.5 c 128,-1,54
 185 158 185 158 190 163 c 2,55,-1
 370 339 l 1,56,-1
 304 485 l 2,57,58
 281 536 281 536 268.5 560 c 128,-1,59
 256 584 256 584 237.5 606.5 c 128,-1,60
 219 629 219 629 199 636.5 c 128,-1,61
 179 644 179 644 149 645 c 1,62,-1
 159 690 l 1,63,-1
 485 690 l 1,64,-1
 475 645 l 1,0,-1
EndSplineSet
EndChar

StartChar: Y
Encoding: 89 89 58
Width: 721
Flags: W
HStem: 0 45<211 307.602 452.522 530> 645 45<158 207.85 376.133 452 619 674.99 787.177 852>
DStem2: 388 582 283 484 0.417293 -0.908772<-38.0352 215.676> 303.445 0 429.445 0 0.207912 0.978148<110.401 309.593> 478 386 496 315 0.653712 0.756743<0 312.777>
LayerCount: 3
Fore
SplineSet
425 645 m 2
 387 645 376 644 376 619 c 0
 376 605 382 593 388 582 c 2
 478 386 l 1
 646 584 l 2
 653 592 675 612 675 630 c 0
 675 643 662 645 639 645 c 2
 609 645 l 1
 619 690 l 1
 861 690 l 1
 852 647 l 1
 772 636 717 570 680 528 c 2
 496 315 l 1
 449 92 l 2
 448 89 448 85 448 82 c 0
 448 62 466 45 540 45 c 1
 530 0 l 1
 201 0 l 1
 211 45 l 1
 297 45 317 68 323 92 c 2
 367 303 l 1
 283 484 l 2
 238 579 228 644 148 645 c 1
 158 690 l 1
 462 690 l 1
 452 645 l 1
 425 645 l 2
EndSplineSet
Validated: 1
Layer: 2
SplineSet
425 645 m 2,0,1
 394 645 394 645 385 641 c 128,-1,2
 376 637 376 637 376 619 c 0,3,4
 376 604 376 604 388 582 c 2,5,-1
 478 386 l 1,6,-1
 646 584 l 2,7,8
 675 617 675 617 675 630 c 0,9,10
 675 645 675 645 639 645 c 2,11,-1
 609 645 l 1,12,-1
 619 690 l 1,13,-1
 861 690 l 1,14,-1
 852 647 l 1,15,16
 815 642 815 642 778 618 c 128,-1,17
 741 594 741 594 725 577.5 c 128,-1,18
 709 561 709 561 680 528 c 2,19,-1
 496 315 l 1,20,-1
 449 92 l 2,21,22
 448 89 448 89 448 82 c 0,23,24
 448 45 448 45 540 45 c 1,25,-1
 530 0 l 1,26,-1
 201 0 l 1,27,-1
 211 45 l 1,28,29
 311 45 311 45 323 92 c 2,30,-1
 367 303 l 1,31,-1
 283 484 l 2,32,33
 275 501 275 501 260 535.5 c 128,-1,34
 245 570 245 570 238 583 c 128,-1,35
 231 596 231 596 217.5 614 c 128,-1,36
 204 632 204 632 187.5 638.5 c 128,-1,37
 171 645 171 645 148 645 c 1,38,-1
 158 690 l 1,39,-1
 462 690 l 1,40,-1
 452 645 l 1,41,-1
 425 645 l 2,0,1
EndSplineSet
EndChar

StartChar: Z
Encoding: 90 90 59
Width: 609
Flags: W
HStem: 0 63<182 514.313> 627 63<254.633 554>
DStem2: 1 29 182 63 0.678943 0.734191<147.851 814.502>
LayerCount: 3
Fore
SplineSet
653 201 m 1
 584 0 l 1
 -5 0 l 1
 1 29 l 1
 554 627 l 1
 370 627 l 2
 274 627 216 610 173 493 c 1
 122 493 l 1
 187 690 l 1
 740 690 l 1
 731 662 l 1
 182 63 l 1
 403 63 l 2
 505 63 554 89 607 201 c 1
 653 201 l 1
EndSplineSet
Validated: 1
Layer: 2
SplineSet
653 201 m 1,0,-1
 584 0 l 1,1,-1
 -5 0 l 1,2,-1
 1 29 l 1,3,-1
 554 627 l 1,4,-1
 370 627 l 2,5,6
 291 627 291 627 247 601 c 128,-1,7
 203 575 203 575 173 493 c 1,8,-1
 122 493 l 1,9,-1
 187 690 l 1,10,-1
 740 690 l 1,11,-1
 731 662 l 1,12,-1
 182 63 l 1,13,-1
 403 63 l 2,14,15
 482 63 482 63 525 91 c 128,-1,16
 568 119 568 119 607 201 c 1,17,-1
 653 201 l 1,0,-1
EndSplineSet
EndChar

StartChar: bracketleft
Encoding: 91 91 60
Width: 333
Flags: W
HStem: -157 51<161.142 279> 639 51<310.312 448>
DStem2: 42 -157 143.319 -157 0.207912 0.978148<99.4027 837.273>
LayerCount: 3
Fore
SplineSet
279 -157 m 1
 42 -157 l 1
 222 690 l 1
 459 690 l 1
 448 639 l 1
 357 639 l 2
 322 639 311 631 304 596 c 2
 165 -55 l 2
 163 -66 161 -74 161 -81 c 0
 161 -101 173 -106 201 -106 c 2
 289 -106 l 1
 279 -157 l 1
EndSplineSet
Validated: 1
Layer: 2
SplineSet
279 -157 m 1,0,-1
 42 -157 l 1,1,-1
 222 690 l 1,2,-1
 459 690 l 1,3,-1
 448 639 l 1,4,-1
 357 639 l 2,5,6
 331 639 331 639 320 630.5 c 128,-1,7
 309 622 309 622 304 596 c 2,8,-1
 165 -55 l 2,9,10
 161 -77 161 -77 161 -81 c 0,11,12
 161 -96 161 -96 170 -101 c 128,-1,13
 179 -106 179 -106 201 -106 c 2,14,-1
 289 -106 l 1,15,-1
 279 -157 l 1,0,-1
EndSplineSet
EndChar

StartChar: backslash
Encoding: 92 92 61
Width: 278
Flags: W
HStem: 0 21G<274.352 382>
DStem2: 147 707 46 707 0.315422 -0.948951<0 713.175>
LayerCount: 3
Fore
SplineSet
382 0 m 1
 281 0 l 1
 46 707 l 1
 147 707 l 1
 382 0 l 1
EndSplineSet
Validated: 1
Layer: 2
SplineSet
382 0 m 1,0,-1
 281 0 l 1,1,-1
 46 707 l 1,2,-1
 147 707 l 1,3,-1
 382 0 l 1,0,-1
EndSplineSet
EndChar

StartChar: bracketright
Encoding: 93 93 62
Width: 333
Flags: W
HStem: -157 51<-1 136.332> 639 51<169 286.995>
DStem2: 123.469 -157 224 -157 0.207912 0.978148<51.0545 791.556>
LayerCount: 3
Fore
SplineSet
224 -157 m 1
 -11 -157 l 1
 -1 -106 l 1
 80 -106 l 1
 130 -104 136 -98 146 -51 c 2
 278 571 l 2
 282 591 287 607 287 618 c 0
 287 632 280 639 259 639 c 2
 158 639 l 1
 169 690 l 1
 404 690 l 1
 224 -157 l 1
EndSplineSet
Validated: 1
Layer: 2
SplineSet
224 -157 m 1,0,-1
 -11 -157 l 1,1,-1
 -1 -106 l 1,2,-1
 80 -106 l 2,3,4
 117 -105 117 -105 127.5 -96 c 128,-1,5
 138 -87 138 -87 146 -51 c 2,6,-1
 278 571 l 2,7,8
 287 616 287 616 287 618 c 0,9,10
 287 639 287 639 259 639 c 2,11,-1
 158 639 l 1,12,-1
 169 690 l 1,13,-1
 404 690 l 1,14,-1
 224 -157 l 1,0,-1
EndSplineSet
EndChar

StartChar: asciicircum
Encoding: 94 94 63
Width: 468
Flags: W
LayerCount: 3
Fore
SplineSet
530 257 m 1
 430 257 l 1
 357 576 l 1
 149 257 l 1
 50 257 l 1
 341 687 l 1
 421 687 l 1
 530 257 l 1
EndSplineSet
Validated: 1
Layer: 2
SplineSet
530 257 m 1,0,-1
 430 257 l 1,1,-1
 357 576 l 1,2,-1
 149 257 l 1,3,-1
 50 257 l 1,4,-1
 341 687 l 1,5,-1
 421 687 l 1,6,-1
 530 257 l 1,0,-1
EndSplineSet
EndChar

StartChar: underscore
Encoding: 95 95 64
Width: 499
Flags: W
HStem: -166 68<-33 476>
LayerCount: 3
Fore
SplineSet
476 -166 m 1
 -47 -166 l 1
 -33 -98 l 1
 490 -98 l 1
 476 -166 l 1
EndSplineSet
Validated: 1
Layer: 2
SplineSet
476 -166 m 1,0,-1
 -47 -166 l 1,1,-1
 -33 -98 l 1,2,-1
 490 -98 l 1,3,-1
 476 -166 l 1,0,-1
EndSplineSet
EndChar

StartChar: grave
Encoding: 96 96 65
Width: 333
Flags: W
HStem: 507 195
VStem: 144 239
LayerCount: 3
Fore
SplineSet
383 507 m 1
 308 508 l 1
 181 599 l 1
 165 609 144 630 144 648 c 0
 144 659 154 702 197 702 c 0
 217 702 244 688 255 665 c 1
 383 507 l 1
EndSplineSet
Validated: 1
Layer: 2
SplineSet
383 507 m 1,0,-1
 308 508 l 1,1,-1
 181 599 l 2,2,3
 144 622 144 622 144 648 c 0,4,5
 144 663 144 663 156.5 682.5 c 128,-1,6
 169 702 169 702 197 702 c 0,7,8
 213 702 213 702 230 691.5 c 128,-1,9
 247 681 247 681 255 665 c 2,10,-1
 383 507 l 1,0,-1
EndSplineSet
EndChar

StartChar: a
Encoding: 97 97 66
Width: 443
Flags: W
HStem: -11 82<111.5 216.606 332.5 407.863> 435 47<243.229 343.494>
VStem: 45 120<79.5547 154.881> 117 117<325.773 397.698> 348 105<309.521 430.682>
DStem2: 267.706 -11 376.744 -11 0.207912 0.978148<109.147 276.99 315.09 408.987>
LayerCount: 3
Fore
SplineSet
117 344 m 0xd8
 117 380 169 482 326 482 c 0
 417 482 453 453 453 382 c 0
 453 359 450 332 443 300 c 2
 398 89 l 2
 395 77 397 71 405 71 c 0
 417 71 440 83 478 108 c 1
 464 52 l 1
 443 32 388 -11 357 -11 c 0
 308 -11 290 18 289 54 c 1
 239 18 181 -11 141 -11 c 0
 82 -11 45 29 45 82 c 0xe8
 45 225 262 284 336 310 c 1
 343 345 348 371 348 391 c 0
 348 422 336 435 302 435 c 0
 286 435 255 430 243 415 c 1
 236 394 240 388 234 361 c 0xd8
 228 332 194 304 165 304 c 0xe8
 132 304 117 321 117 344 c 0xd8
325 260 m 1
 278 243 165 217 165 124 c 0
 165 97 178 74 211 74 c 0
 226 74 277 89 293 108 c 1
 325 260 l 1
EndSplineSet
Validated: 1
Layer: 2
SplineSet
117 344 m 0,0,1
 117 356 117 356 123.5 372 c 128,-1,2
 130 388 130 388 146 408 c 128,-1,3
 162 428 162 428 184.5 444 c 128,-1,4
 207 460 207 460 244 471 c 128,-1,5
 281 482 281 482 326 482 c 0,6,7
 394 482 394 482 423.5 458.5 c 128,-1,8
 453 435 453 435 453 382 c 0,9,10
 453 346 453 346 443 300 c 2,11,-1
 398 89 l 2,12,13
 394 71 394 71 405 71 c 0,14,15
 422 71 422 71 478 108 c 1,16,-1
 464 52 l 1,17,18
 442 31 442 31 410 10 c 128,-1,19
 378 -11 378 -11 357 -11 c 0,20,21
 291 -11 291 -11 289 54 c 1,22,23
 199 -11 199 -11 141 -11 c 0,24,25
 98 -11 98 -11 71.5 15.5 c 128,-1,26
 45 42 45 42 45 82 c 0,27,28
 45 108 45 108 55.5 132 c 128,-1,29
 66 156 66 156 79.5 174 c 128,-1,30
 93 192 93 192 118.5 210.5 c 128,-1,31
 144 229 144 229 162 240 c 128,-1,32
 180 251 180 251 212 264.5 c 128,-1,33
 244 278 244 278 258.5 283.5 c 128,-1,34
 273 289 273 289 303.5 299 c 128,-1,35
 334 309 334 309 336 310 c 0,36,37
 348 370 348 370 348 391 c 0,38,39
 348 415 348 415 337.5 425 c 128,-1,40
 327 435 327 435 302 435 c 0,41,42
 259 435 259 435 243 415 c 0,43,44
 239 404 239 404 238 388.5 c 128,-1,45
 237 373 237 373 234 361 c 0,46,47
 230 339 230 339 208.5 321.5 c 128,-1,48
 187 304 187 304 165 304 c 0,49,50
 117 304 117 304 117 344 c 0,0,1
325 260 m 1,51,-1
 298 251 l 2,52,53
 271 242 271 242 261.5 237.5 c 128,-1,54
 252 233 252 233 228.5 220.5 c 128,-1,55
 205 208 205 208 194.5 196.5 c 128,-1,56
 184 185 184 185 174.5 165.5 c 128,-1,57
 165 146 165 146 165 124 c 0,58,59
 165 74 165 74 211 74 c 0,60,61
 225 74 225 74 253.5 84.5 c 128,-1,62
 282 95 282 95 293 108 c 1,63,-1
 325 260 l 1,51,-1
EndSplineSet
EndChar

StartChar: b
Encoding: 98 98 67
Width: 499
Flags: W
HStem: -11 59<195.2 336.853> 396 86<310.868 453> 619 40<137 186.014> 693 20G<262.571 319.704>
VStem: 426 120<206.807 367.372>
DStem2: 58.6574 -11 169.744 -11 0.207912 0.978148<120.278 422.477 472.87 625.965>
LayerCount: 3
Fore
SplineSet
546 315 m 0
 546 153 402 -11 241 -11 c 0
 168 -11 76 21 76 66 c 0
 76 70 77 75 78 80 c 2
 182 571 l 2
 185 585 187 595 187 602 c 0
 187 617 179 619 159 619 c 2
 129 619 l 1
 137 659 l 1
 184 671 212 676 238 685 c 2
 324 713 l 1
 263 429 l 1
 303 464 354 482 403 482 c 0
 503 482 546 403 546 315 c 0
267 48 m 0
 395 48 426 214 426 285 c 0
 426 343 408 396 342 396 c 0
 278 396 248 359 240 321 c 2
 191 89 l 2
 191 87 190 85 190 84 c 0
 190 54 246 48 267 48 c 0
EndSplineSet
Validated: 1
Layer: 2
SplineSet
546 315 m 0,0,1
 546 192 546 192 453 90.5 c 128,-1,2
 360 -11 360 -11 241 -11 c 0,3,4
 182 -11 182 -11 129 11.5 c 128,-1,5
 76 34 76 34 76 66 c 0,6,7
 76 70 76 70 78 80 c 2,8,-1
 182 571 l 2,9,10
 187 594 187 594 187 602 c 0,11,12
 187 613 187 613 181 616 c 128,-1,13
 175 619 175 619 159 619 c 2,14,-1
 129 619 l 1,15,-1
 137 659 l 1,16,17
 236 684 236 684 238 685 c 2,18,-1
 324 713 l 1,19,-1
 263 429 l 1,20,21
 324 482 324 482 403 482 c 0,22,23
 474 482 474 482 510 434.5 c 128,-1,24
 546 387 546 387 546 315 c 0,0,1
267 48 m 0,25,26
 312 48 312 48 345.5 74.5 c 128,-1,27
 379 101 379 101 395 141 c 128,-1,28
 411 181 411 181 418.5 217.5 c 128,-1,29
 426 254 426 254 426 285 c 0,30,31
 426 396 426 396 342 396 c 0,32,33
 297 396 297 396 272 374.5 c 128,-1,34
 247 353 247 353 240 321 c 2,35,-1
 191 89 l 2,36,37
 191 88 191 88 190.5 86 c 2,38,-1
 190 84 l 1,39,40
 190 64 190 64 216 56 c 128,-1,41
 242 48 242 48 267 48 c 0,25,26
EndSplineSet
EndChar

StartChar: c
Encoding: 99 99 68
Width: 443
Flags: W
HStem: -11 95<161.408 302.332> 429 53<256.656 370.93>
VStem: 53 113<129.871 274.111> 376 114<338.426 421.426>
LayerCount: 3
Fore
SplineSet
321 429 m 0
 227 429 166 308 166 215 c 0
 166 146 198 84 275 84 c 0
 336 84 383 129 435 186 c 1
 464 167 l 1
 393 66 317 -11 210 -11 c 0
 114 -11 53 64 53 166 c 0
 53 290 149 482 351 482 c 0
 408 482 490 451 490 386 c 0
 490 343 446 316 420 316 c 0
 394 316 373 338 373 363 c 0
 373 373 376 375 376 387 c 0
 376 413 359 429 321 429 c 0
EndSplineSet
Validated: 1
Layer: 2
SplineSet
321 429 m 0,0,1
 255 429 255 429 210.5 360 c 128,-1,2
 166 291 166 291 166 215 c 0,3,4
 166 159 166 159 193.5 121.5 c 128,-1,5
 221 84 221 84 275 84 c 0,6,7
 317 84 317 84 352.5 109.5 c 128,-1,8
 388 135 388 135 435 186 c 1,9,-1
 464 167 l 1,10,11
 404 81 404 81 344 35 c 128,-1,12
 284 -11 284 -11 210 -11 c 0,13,14
 139 -11 139 -11 96 38.5 c 128,-1,15
 53 88 53 88 53 166 c 0,16,17
 53 215 53 215 72 268 c 128,-1,18
 91 321 91 321 126 370 c 128,-1,19
 161 419 161 419 220 450.5 c 128,-1,20
 279 482 279 482 351 482 c 0,21,22
 401 482 401 482 445.5 456.5 c 128,-1,23
 490 431 490 431 490 386 c 0,24,25
 490 356 490 356 466.5 336 c 128,-1,26
 443 316 443 316 420 316 c 0,27,28
 401 316 401 316 387 330 c 128,-1,29
 373 344 373 344 373 363 c 0,30,31
 373 368 373 368 374.5 374.5 c 128,-1,32
 376 381 376 381 376 387 c 0,33,34
 376 429 376 429 321 429 c 0,0,1
EndSplineSet
EndChar

StartChar: d
Encoding: 100 100 69
Width: 499
Flags: W
HStem: -11 74<204.958 291.984> 48 36<479.519 512> 427 55<265.052 381.477> 619 40<401 452.462> 693 20G<526.571 583.738>
VStem: 54 116<100.506 270.242>
DStem2: 321.904 -22 431.43 -22 0.207912 0.978148<143.601 381.052 488.781 637.297>
LayerCount: 3
Fore
SplineSet
54 159 m 0xbc
 54 319 194 482 339 482 c 0
 377 482 405 468 424 456 c 1
 448 571 l 2
 451 585 453 595 453 602 c 0
 453 617 444 619 421 619 c 2
 393 619 l 1
 401 659 l 1
 450 671 476 677 502 685 c 2
 588 713 l 1
 458 103 l 2
 457 100 457 98 457 96 c 0
 457 85 466 82 479 82 c 0
 490 82 505 84 520 84 c 1
 512 48 l 1x7c
 454 31 399 14 322 -22 c 1
 335 38 l 1
 298 9 253 -11 210 -11 c 0
 102 -11 54 66 54 159 c 0xbc
326 427 m 0
 230 427 170 288 170 183 c 0
 170 106 206 63 263 63 c 0xbc
 313 63 348 100 354 129 c 2
 393 312 l 2
 396 326 398 339 398 352 c 0
 398 396 377 427 326 427 c 0
EndSplineSet
Validated: 1
Layer: 2
SplineSet
54 159 m 0,0,1
 54 280 54 280 142.5 381 c 128,-1,2
 231 482 231 482 339 482 c 0,3,4
 383 482 383 482 424 456 c 1,5,-1
 448 571 l 2,6,7
 453 594 453 594 453 602 c 0,8,9
 453 613 453 613 446 616 c 128,-1,10
 439 619 439 619 421 619 c 2,11,-1
 393 619 l 1,12,-1
 401 659 l 1,13,14
 482 679 482 679 502 685 c 2,15,-1
 588 713 l 1,16,-1
 458 103 l 2,17,18
 457 100 457 100 457 96 c 0,19,20
 457 82 457 82 479 82 c 0,21,22
 484 82 484 82 498 83 c 128,-1,23
 512 84 512 84 520 84 c 1,24,-1
 512 48 l 1,25,26
 404 16 404 16 322 -22 c 1,27,-1
 335 38 l 1,28,29
 272 -11 272 -11 210 -11 c 0,30,31
 133 -11 133 -11 93.5 37 c 128,-1,32
 54 85 54 85 54 159 c 0,0,1
326 427 m 0,33,34
 259 427 259 427 214.5 348.5 c 128,-1,35
 170 270 170 270 170 183 c 0,36,37
 170 126 170 126 195 94.5 c 128,-1,38
 220 63 220 63 263 63 c 0,39,40
 298 63 298 63 323.5 84 c 128,-1,41
 349 105 349 105 354 129 c 2,42,-1
 393 312 l 2,43,44
 398 335 398 335 398 352 c 0,45,46
 398 427 398 427 326 427 c 0,33,34
EndSplineSet
EndChar

StartChar: e
Encoding: 101 101 70
Width: 443
Flags: W
HStem: -11 92<205.077 302.824> 276 56<180 357> 422 60<230.601 342.264>
VStem: 52 106<133.452 273.39> 358 121<332 405.696>
LayerCount: 3
Fore
SplineSet
52 166 m 0
 52 299 155 482 328 482 c 0
 426 482 479 422 479 329 c 0
 479 312 477 295 474 276 c 1
 162 276 l 1
 160 261 158 245 158 229 c 0
 158 155 187 81 270 81 c 0
 332 81 392 131 440 194 c 1
 476 178 l 1
 416 71 314 -11 210 -11 c 0
 109 -11 52 67 52 166 c 0
357 332 m 1
 357 337 358 342 358 347 c 0
 358 387 342 422 294 422 c 0
 236 422 199 382 180 332 c 1
 357 332 l 1
EndSplineSet
Validated: 1
Layer: 2
SplineSet
52 166 m 0,0,1
 52 217 52 217 71.5 271.5 c 128,-1,2
 91 326 91 326 125 373.5 c 128,-1,3
 159 421 159 421 212.5 451.5 c 128,-1,4
 266 482 266 482 328 482 c 0,5,6
 400 482 400 482 439.5 441 c 128,-1,7
 479 400 479 400 479 329 c 0,8,9
 479 308 479 308 474 276 c 1,10,-1
 162 276 l 1,11,12
 158 246 158 246 158 229 c 0,13,14
 158 166 158 166 185 123.5 c 128,-1,15
 212 81 212 81 270 81 c 0,16,17
 354 81 354 81 440 194 c 1,18,-1
 476 178 l 1,19,20
 429 95 429 95 357.5 42 c 128,-1,21
 286 -11 286 -11 210 -11 c 0,22,23
 136 -11 136 -11 94 39 c 128,-1,24
 52 89 52 89 52 166 c 0,0,1
357 332 m 1,25,26
 357 334 357 334 357.5 339 c 128,-1,27
 358 344 358 344 358 347 c 0,28,29
 358 422 358 422 294 422 c 0,30,31
 214 422 214 422 180 332 c 1,32,-1
 357 332 l 1,25,26
EndSplineSet
EndChar

StartChar: f
Encoding: 102 102 71
Width: 333
Flags: W
HStem: 0 37<16 90.4877 225.751 292> 416 56<109 179 300 409> 654 53<342.808 459.5>
DStem2: 91.4448 0 200.445 0 0.207912 0.978148<99.9035 425.113 505.047 621.542>
LayerCount: 3
Fore
SplineSet
528 641 m 0
 528 614 497 579 467 579 c 0
 403 579 437 654 381 654 c 0
 345 654 331 617 325 587 c 2
 300 472 l 1
 421 472 l 1
 409 416 l 1
 288 416 l 1
 220 92 l 2
 219 86 218 80 218 75 c 0
 218 51 237 42 300 37 c 1
 292 0 l 1
 8 0 l 1
 16 37 l 1
 86 43 103 55 111 92 c 2
 179 416 l 1
 97 416 l 1
 109 472 l 1
 191 472 l 1
 198 504 205 530 217 559 c 0
 253 642 334 707 423 707 c 0
 496 707 528 670 528 641 c 0
EndSplineSet
Validated: 1
Layer: 2
SplineSet
528 641 m 0,0,1
 528 620 528 620 508.5 599.5 c 128,-1,2
 489 579 489 579 467 579 c 0,3,4
 446 579 446 579 434.5 590.5 c 128,-1,5
 423 602 423 602 421 616.5 c 128,-1,6
 419 631 419 631 409.5 642.5 c 128,-1,7
 400 654 400 654 381 654 c 0,8,9
 338 654 338 654 325 587 c 2,10,-1
 300 472 l 1,11,-1
 421 472 l 1,12,-1
 409 416 l 1,13,-1
 288 416 l 1,14,-1
 220 92 l 2,15,16
 218 80 218 80 218 75 c 0,17,18
 218 57 218 57 235.5 49 c 128,-1,19
 253 41 253 41 300 37 c 1,20,-1
 292 0 l 1,21,-1
 8 0 l 1,22,-1
 16 37 l 1,23,24
 68 41 68 41 86.5 52.5 c 128,-1,25
 105 64 105 64 111 92 c 2,26,-1
 179 416 l 1,27,-1
 97 416 l 1,28,-1
 109 472 l 1,29,-1
 191 472 l 1,30,31
 202 523 202 523 217 559 c 0,32,33
 245 623 245 623 301.5 665 c 128,-1,34
 358 707 358 707 423 707 c 0,35,36
 473 707 473 707 500.5 686.5 c 128,-1,37
 528 666 528 666 528 641 c 0,0,1
EndSplineSet
EndChar

StartChar: g
Encoding: 103 103 72
Width: 499
Flags: W
HStem: -217 80<108.875 275.631> -14 102<169.624 406.547> 147 51<249.065 345.936> 386 60<489.391 564> 430 52<269.113 362.225>
VStem: -7 100<-119.061 -63.3232> 74 94<46.5 104.602> 119 112<215.585 358.839> 381 108<266.269 385.492> 410 59<-79.3503 42.5>
LayerCount: 3
Fore
SplineSet
119 272 m 0xf1
 119 378 215 482 346 482 c 0xe9
 419 482 429 446 520 446 c 0
 536 446 555 447 578 450 c 1
 564 386 l 1
 488 386 l 1
 489 377 489 369 489 360 c 0
 489 232 386 147 275 147 c 0
 260 147 242 151 225 154 c 1
 207 148 168 120 168 102 c 0xf280
 168 90 223 89 242 88 c 0
 368 82 469 87 469 -2 c 0
 469 -155 250 -217 154 -217 c 0
 40 -217 -7 -156 -7 -113 c 0xf440
 -7 -63 57 -25 106 11 c 1
 90 21 74 36 74 57 c 0xf2
 74 104 152 157 177 174 c 1
 140 195 119 227 119 272 c 0xf1
297 198 m 0
 364 198 381 282 381 331 c 0xe980
 381 379 367 430 321 430 c 0
 269 430 247 390 238 347 c 0
 234 329 231 309 231 288 c 0
 231 242 246 198 297 198 c 0
211 -137 m 0
 364 -137 410 -83 410 -47 c 0
 410 -12 349 -15 295 -14 c 0
 252 -14 195 -12 150 -5 c 1
 120 -33 93 -61 93 -87 c 0xe440
 93 -115 126 -137 211 -137 c 0
EndSplineSet
Validated: 1
Layer: 2
SplineSet
119 272 m 0,0,1
 119 354 119 354 184.5 418 c 128,-1,2
 250 482 250 482 346 482 c 0,3,4
 380 482 380 482 426 464 c 128,-1,5
 472 446 472 446 520 446 c 0,6,7
 547 446 547 446 578 450 c 1,8,-1
 564 386 l 1,9,-1
 488 386 l 1,10,11
 489 377 489 377 489 360 c 0,12,13
 489 267 489 267 425 207 c 128,-1,14
 361 147 361 147 275 147 c 0,15,16
 265 147 265 147 225 154 c 1,17,18
 209 149 209 149 188.5 131.5 c 128,-1,19
 168 114 168 114 168 102 c 0,20,21
 168 92 168 92 242 88 c 0,22,23
 366.048170095 82.0929442812 366.048170095 82.0929442812 393.277535177 76.3430629671 c 0,24,25
 464.487327663 52.5499484065 464.487327663 52.5499484065 469 -2 c 1,26,27
 469 -56 469 -56 434 -99.5 c 128,-1,28
 399 -143 399 -143 347 -167.5 c 128,-1,29
 295 -192 295 -192 244.5 -204.5 c 128,-1,30
 194 -217 194 -217 154 -217 c 0,31,32
 76 -217 76 -217 34.5 -184 c 128,-1,33
 -7 -151 -7 -151 -7 -113 c 0,34,35
 -7 -101 -7 -101 -1.5 -88.5 c 128,-1,36
 4 -76 4 -76 10.5 -67 c 128,-1,37
 17 -58 17 -58 32 -45 c 128,-1,38
 47 -32 47 -32 54.5 -26.5 c 128,-1,39
 62 -21 62 -21 81.5 -7 c 128,-1,40
 101 7 101 7 106 11 c 1,41,42
 74 31 74 31 74 57 c 0,43,44
 74 104 74 104 177 174 c 1,45,46
 119 207 119 207 119 272 c 0,0,1
297 198 m 0,47,48
 328 198 328 198 348 222 c 128,-1,49
 368 246 368 246 374.5 274 c 128,-1,50
 381 302 381 302 381 331 c 0,51,52
 381 373 381 373 367 401.5 c 128,-1,53
 353 430 353 430 321 430 c 0,54,55
 255 430 255 430 238 347 c 0,56,57
 231 315 231 315 231 288 c 0,58,59
 231 198 231 198 297 198 c 0,47,48
211 -137 m 0,60,61
 314 -137 314 -137 362 -109 c 128,-1,62
 410 -81 410 -81 410 -47 c 0,63,64
 410 -32 410 -32 394 -24.5 c 128,-1,65
 378 -17 378 -17 359.5 -15.5 c 128,-1,66
 341 -14 341 -14 310.583051678 -14.2134092579 c 0,67,68
 300 -14 300 -14 295 -14 c 0,69,70
 208 -14 208 -14 150 -5 c 1,71,72
 93 -58 93 -58 93 -87 c 0,73,74
 93 -137 93 -137 211 -137 c 0,60,61
EndSplineSet
EndChar

StartChar: h
Encoding: 104 104 73
Width: 499
Flags: W
HStem: 0 37<5 62.0221 190.946 232 275 332.022 461.911 502> 404 78<315.33 443> 619 40<137 184.501> 693 20G<259.571 316.739>
VStem: 402 111<245.117 398.07>
DStem2: 60.4448 0 169.445 0 0.207912 0.978148<97.74 410.593 454.06 612.463> 330.445 0 439.445 0 0.207912 0.978148<97.9922 361.338>
LayerCount: 3
Fore
SplineSet
502 0 m 1
 267 0 l 1
 275 37 l 1
 327 41 342 57 350 92 c 2
 394 300 l 2
 398 319 402 338 402 355 c 0
 402 383 391 404 352 404 c 0
 303 404 275 379 244 352 c 1
 189 92 l 2
 187 85 186 78 186 73 c 0
 186 51 200 40 240 37 c 1
 232 0 l 1
 -3 0 l 1
 5 37 l 1
 57 41 72 57 80 92 c 2
 181 571 l 2
 184 584 185 593 185 600 c 0
 185 616 177 619 154 619 c 2
 129 619 l 1
 137 659 l 1
 183 671 209 677 235 685 c 2
 321 713 l 1
 259 422 l 1
 300 458 351 482 403 482 c 0
 483 482 513 449 513 383 c 0
 513 360 510 332 503 301 c 2
 459 92 l 2
 457 85 457 79 457 73 c 0
 457 51 471 40 510 37 c 1
 502 0 l 1
EndSplineSet
Validated: 1
Layer: 2
SplineSet
502 0 m 1,0,-1
 267 0 l 1,1,-1
 275 37 l 1,2,3
 313 40 313 40 328.5 52 c 128,-1,4
 344 64 344 64 350 92 c 2,5,-1
 394 300 l 2,6,7
 402 338 402 338 402 355 c 0,8,9
 402 404 402 404 352 404 c 0,10,11
 329 404 329 404 308 395.5 c 128,-1,12
 287 387 287 387 276 378.5 c 128,-1,13
 265 370 265 370 244 352 c 1,14,-1
 189 92 l 2,15,16
 186 81 186 81 186 73 c 0,17,18
 186 41 186 41 240 37 c 1,19,-1
 232 0 l 1,20,-1
 -3 0 l 1,21,-1
 5 37 l 1,22,23
 43 40 43 40 58.5 52 c 128,-1,24
 74 64 74 64 80 92 c 2,25,-1
 181 571 l 2,26,27
 185 588 185 588 185 600 c 128,-1,28
 185 612 185 612 178.5 615.5 c 128,-1,29
 172 619 172 619 154 619 c 2,30,-1
 129 619 l 1,31,-1
 137 659 l 1,32,33
 226 682 226 682 235 685 c 2,34,-1
 321 713 l 1,35,-1
 259 422 l 1,36,37
 327 482 327 482 403 482 c 0,38,39
 462 482 462 482 487.5 458 c 128,-1,40
 513 434 513 434 513 383 c 0,41,42
 513 345 513 345 503 301 c 2,43,-1
 459 92 l 2,44,45
 457 85 457 85 457 73 c 0,46,47
 457 41 457 41 510 37 c 1,48,-1
 502 0 l 1,0,-1
EndSplineSet
EndChar

StartChar: i
Encoding: 105 105 74
Width: 278
Flags: W
HStem: 0 38<19 87.3174 218.267 272> 386 39<101 123> 579 128<232.094 308.375>
VStem: 206 129<606.068 681.122>
DStem2: 86.4448 0 195.445 0 0.207912 0.978148<99.9035 380.35>
LayerCount: 3
Fore
SplineSet
335 656 m 0
 335 611 290 579 257 579 c 0
 225 579 206 601 206 629 c 0
 206 664 237 707 284 707 c 0
 313 707 335 686 335 656 c 0
272 0 m 1
 11 0 l 1
 19 38 l 1
 81 41 98 57 106 92 c 2
 157 335 l 2
 161 351 163 364 163 373 c 0
 163 389 157 395 141 395 c 0
 130 395 114 392 93 386 c 1
 101 425 l 1
 299 488 l 1
 215 92 l 2
 214 86 213 80 213 75 c 0
 213 52 229 40 280 38 c 1
 272 0 l 1
EndSplineSet
Validated: 1
Layer: 2
SplineSet
335 656 m 0,0,1
 335 624 335 624 309.5 601.5 c 128,-1,2
 284 579 284 579 257 579 c 0,3,4
 234 579 234 579 220 593 c 128,-1,5
 206 607 206 607 206 629 c 0,6,7
 206 657 206 657 228.5 682 c 128,-1,8
 251 707 251 707 284 707 c 0,9,10
 306 707 306 707 320.5 692.5 c 128,-1,11
 335 678 335 678 335 656 c 0,0,1
272 0 m 1,12,-1
 11 0 l 1,13,-1
 19 38 l 1,14,15
 64 40 64 40 82 52 c 128,-1,16
 100 64 100 64 106 92 c 2,17,-1
 157 335 l 2,18,19
 163 359 163 359 163 373 c 0,20,21
 163 395 163 395 141 395 c 0,22,23
 124.5 395 124.5 395 93 386 c 1,24,-1
 101 425 l 1,25,-1
 299 488 l 1,26,-1
 215 92 l 2,27,28
 213 80 213 80 213 75 c 0,29,30
 213 57 213 57 228 48 c 128,-1,31
 243 39 243 39 280 38 c 1,32,-1
 272 0 l 1,12,-1
EndSplineSet
EndChar

StartChar: j
Encoding: 106 106 75
Width: 278
Flags: W
HStem: -217 56<-23.5 72.7013> 389 36<125 146.889> 579 128<259.975 335.679>
VStem: 233 129<606.23 679.977>
DStem2: 62.4177 -217 172.148 -217 0.207912 0.978148<129.904 605.713>
LayerCount: 3
Fore
SplineSet
362 656 m 0
 362 615 322 579 284 579 c 0
 254 579 233 601 233 630 c 0
 233 668 270 707 311 707 c 0
 340 707 362 686 362 656 c 0
-99 -158 m 0
 -99 -122 -69 -94 -33 -94 c 0
 -17 -94 -4 -101 2 -112 c 1
 16 -146 39 -161 50 -161 c 0
 74 -161 86 -110 92 -81 c 2
 184 355 l 2
 186 364 187 371 187 376 c 0
 187 389 180 394 164 394 c 0
 153 394 137 392 118 389 c 1
 125 425 l 1
 322 488 l 1
 223 25 l 2
 189 -137 108 -217 -11 -217 c 0
 -36 -217 -99 -206 -99 -158 c 0
EndSplineSet
Validated: 1
Layer: 2
SplineSet
362 656 m 0,0,1
 362 626 362 626 337.5 602.5 c 128,-1,2
 313 579 313 579 284 579 c 0,3,4
 262 579 262 579 247.5 593.5 c 128,-1,5
 233 608 233 608 233 630 c 0,6,7
 233 659 233 659 257 683 c 128,-1,8
 281 707 281 707 311 707 c 0,9,10
 333 707 333 707 347.5 692.5 c 128,-1,11
 362 678 362 678 362 656 c 0,0,1
-99 -158 m 0,12,13
 -99 -131 -99 -131 -79.5 -112.5 c 128,-1,14
 -60 -94 -60 -94 -33 -94 c 0,15,16
 -8 -94 -8 -94 2 -112 c 0,17,18
 12 -135 12 -135 26 -148 c 128,-1,19
 40 -161 40 -161 50 -161 c 0,20,21
 75 -161 75 -161 92 -81 c 2,22,-1
 184 355 l 2,23,24
 187 368.5 187 368.5 187 376 c 0,25,26
 187 394 187 394 164 394 c 0,27,28
 150 394 150 394 118 389 c 1,29,-1
 125 425 l 1,30,-1
 322 488 l 1,31,-1
 223 25 l 2,32,33
 172 -217 172 -217 -11 -217 c 0,34,35
 -40 -217 -40 -217 -69.5 -203 c 128,-1,36
 -99 -189 -99 -189 -99 -158 c 0,12,13
EndSplineSet
EndChar

StartChar: k
Encoding: 107 107 76
Width: 499
Flags: W
HStem: 0 38<-3 66.2336 196.675 249 278 313.991 462.378 511> 433 39<358 399.996 483.917 579> 617 42<138 173.528> 693 20G<264.571 321.728>
DStem2: 65.4448 0 174.445 0 0.207912 0.978148<98.9252 251.655 330.299 619.093> 309 293 222 224 0.496139 -0.868243<16.7447 213.422>
LayerCount: 3
Fore
SplineSet
511 0 m 1
 270 0 l 1
 278 38 l 1
 302 38 314 42 314 50 c 0
 314 51 314 53 313 55 c 2
 222 224 l 1
 194 92 l 2
 192 85 192 79 192 74 c 0
 192 51 208 40 257 38 c 1
 249 0 l 1
 -11 0 l 1
 -3 38 l 1
 60 41 77 57 85 92 c 2
 191 591 l 2
 192 597 193 602 193 606 c 0
 193 617 187 620 174 620 c 0
 164 620 150 619 129 617 c 1
 138 659 l 1
 188 671 213 677 240 685 c 2
 326 713 l 1
 238 301 l 1
 364 395 l 2
 371 400 400 425 400 428 c 0
 400 432 395 433 384 433 c 2
 350 433 l 1
 358 472 l 1
 587 472 l 1
 579 433 l 1
 470 433 408 367 309 293 c 1
 409 118 l 2
 430 81 461 41 519 37 c 1
 511 0 l 1
EndSplineSet
Validated: 1
Layer: 2
SplineSet
511 0 m 1,0,-1
 270 0 l 1,1,-1
 278 38 l 1,2,3
 314 38 314 38 314 50 c 0,4,5
 314 53 314 53 313 55 c 2,6,-1
 222 224 l 1,7,-1
 194 92 l 2,8,9
 192 85 192 85 192 74 c 0,10,11
 192 56 192 56 206.5 47.5 c 128,-1,12
 221 39 221 39 257 38 c 1,13,-1
 249 0 l 1,14,-1
 -11 0 l 1,15,-1
 -3 38 l 1,16,17
 42 40 42 40 60.5 52 c 128,-1,18
 79 64 79 64 85 92 c 2,19,-1
 191 591 l 2,20,21
 193 603 193 603 193 606 c 0,22,23
 193 620 193 620 174 620 c 0,24,25
 160 620 160 620 129 617 c 1,26,-1
 138 659 l 1,27,28
 213 677 213 677 240 685 c 2,29,-1
 326 713 l 1,30,-1
 238 301 l 1,31,-1
 364 395 l 2,32,33
 370 400 370 400 385 413 c 128,-1,34
 400 426 400 426 400 428 c 0,35,36
 400 433 400 433 384 433 c 2,37,-1
 350 433 l 1,38,-1
 358 472 l 1,39,-1
 587 472 l 1,40,-1
 579 433 l 1,41,42
 548 433 548 433 520.5 427 c 128,-1,43
 493 421 493 421 463.5 404 c 128,-1,44
 434 387 434 387 417.5 376 c 128,-1,45
 401 365 401 365 362.5 335 c 128,-1,46
 324 305 324 305 309 293 c 1,47,-1
 409 118 l 2,48,49
 452 42 452 42 519 37 c 1,50,-1
 511 0 l 1,0,-1
EndSplineSet
EndChar

StartChar: l
Encoding: 108 108 77
Width: 278
Flags: W
HStem: 0 38<16 85.8796 217.542 272> 624 36<148 210.737> 691 20G<314 341.767>
DStem2: 84.4448 0 195.445 0 0.207912 0.978148<99.341 618.701>
LayerCount: 3
Fore
SplineSet
272 0 m 1
 8 0 l 1
 16 38 l 1
 81 41 96 57 104 92 c 2
 205 571 l 2
 209 587 211 598 211 606 c 0
 211 622 202 624 179 624 c 2
 141 624 l 1
 148 660 l 1
 208 671 282 690 346 711 c 1
 215 92 l 2
 213 85 213 79 213 74 c 0
 213 51 228 40 280 38 c 1
 272 0 l 1
EndSplineSet
Validated: 1
Layer: 2
SplineSet
272 0 m 1,0,-1
 8 0 l 1,1,-1
 16 38 l 1,2,3
 62 40 62 40 80 52 c 128,-1,4
 98 64 98 64 104 92 c 2,5,-1
 205 571 l 2,6,7
 211 595 211 595 211 606 c 128,-1,8
 211 617 211 617 204 620.5 c 128,-1,9
 197 624 197 624 179 624 c 2,10,-1
 141 624 l 1,11,-1
 148 660 l 1,12,13
 244 678 244 678 346 711 c 1,14,-1
 215 92 l 2,15,16
 213 85 213 85 213 74 c 0,17,18
 213 56 213 56 227.5 47.5 c 128,-1,19
 242 39 242 39 280 38 c 1,20,-1
 272 0 l 1,0,-1
EndSplineSet
EndChar

StartChar: m
Encoding: 109 109 78
Width: 777
Flags: W
HStem: 0 37<10 66.6853 195.946 237 278 335.022 464.911 505 549 605.685 734.946 776> 404 78<329.549 443 594.507 719>
VStem: 676 109<235.336 398.76>
DStem2: 65.4448 0 174.445 0 0.207912 0.978148<97.74 368.636> 333.445 0 442.445 0 0.207912 0.978148<97.9922 366.667> 604.445 0 713.445 0 0.207912 0.978148<97.74 366.273>
LayerCount: 3
Fore
SplineSet
776 0 m 1
 541 0 l 1
 549 37 l 1
 600 41 616 57 624 92 c 2
 667 295 l 2
 673 323 676 344 676 360 c 0
 676 393 661 404 624 404 c 0
 584 404 544 384 517 353 c 1
 462 92 l 2
 460 85 460 79 460 73 c 0
 460 51 474 40 513 37 c 1
 505 0 l 1
 270 0 l 1
 278 37 l 1
 330 41 345 57 353 92 c 2
 401 322 l 2
 404 335 406 348 406 360 c 0
 406 385 396 404 362 404 c 0
 326 404 276 386 249 355 c 1
 194 92 l 2
 192 85 191 78 191 73 c 0
 191 51 205 40 245 37 c 1
 237 0 l 1
 2 0 l 1
 10 37 l 1
 61 41 77 57 85 92 c 2
 139 346 l 2
 140 352 141 357 141 361 c 0
 141 383 125 389 85 389 c 1
 93 427 l 1
 278 488 l 1
 259 398 l 1
 261 398 270 426 281 433 c 0
 322 461 371 482 418 482 c 0
 468 482 502 452 512 409 c 1
 559 447 624 482 676 482 c 0
 762 482 785 434 785 373 c 0
 785 344 780 311 773 280 c 2
 733 92 l 2
 731 85 730 78 730 73 c 0
 730 51 744 40 784 37 c 1
 776 0 l 1
EndSplineSet
Validated: 1
Layer: 2
SplineSet
776 0 m 1,0,-1
 541 0 l 1,1,-1
 549 37 l 1,2,3
 586 40 586 40 602 52.5 c 128,-1,4
 618 65 618 65 624 92 c 2,5,-1
 667 295 l 2,6,7
 676 337 676 337 676 360 c 0,8,9
 676 384 676 384 664 394 c 128,-1,10
 652 404 652 404 624 404 c 0,11,12
 561 404 561 404 517 353 c 1,13,-1
 462 92 l 2,14,15
 460 85 460 85 460 73 c 0,16,17
 460 41 460 41 513 37 c 1,18,-1
 505 0 l 1,19,-1
 270 0 l 1,20,-1
 278 37 l 1,21,22
 316 40 316 40 331.5 52 c 128,-1,23
 347 64 347 64 353 92 c 2,24,-1
 401 322 l 2,25,26
 406 344 406 344 406 360 c 0,27,28
 406 404 406 404 362 404 c 0,29,30
 333 404 333 404 300.5 390.5 c 128,-1,31
 268 377 268 377 249 355 c 1,32,-1
 194 92 l 2,33,34
 191 81 191 81 191 73 c 0,35,36
 191 41 191 41 245 37 c 1,37,-1
 237 0 l 1,38,-1
 2 0 l 1,39,-1
 10 37 l 1,40,41
 47 40 47 40 63 52.5 c 128,-1,42
 79 65 79 65 85 92 c 2,43,-1
 139 346 l 2,44,45
 141 358 141 358 141 361 c 0,46,47
 141 377 141 377 128.5 383 c 128,-1,48
 116 389 116 389 85 389 c 1,49,-1
 93 427 l 1,50,-1
 278 488 l 1,51,-1
 259 398 l 2,52,53
 260 398 260 398 263 405 c 128,-1,54
 266 412 266 412 271 421 c 128,-1,55
 276 430 276 430 281 433 c 0,56,57
 353 482 353 482 418 482 c 0,58,59
 455 482 455 482 479.5 462 c 128,-1,60
 504 442 504 442 512 409 c 1,61,62
 602 482 602 482 676 482 c 0,63,64
 785 482 785 482 785 373 c 0,65,66
 785 333 785 333 773 280 c 2,67,-1
 733 92 l 2,68,69
 730 82 730 82 730 73 c 0,70,71
 730 41 730 41 784 37 c 1,72,-1
 776 0 l 1,0,-1
EndSplineSet
EndChar

StartChar: n
Encoding: 110 110 79
Width: 499
Flags: W
HStem: 0 37<5 62.0221 190.946 232 275 332.022 461.911 502> 395 37<89 109.624> 404 78<320.489 445>
VStem: 402 111<243.875 397.551>
DStem2: 60.4448 0 169.445 0 0.207912 0.978148<97.74 382.307> 330.445 0 439.445 0 0.207912 0.978148<97.9922 364.364>
LayerCount: 3
Fore
SplineSet
502 0 m 1xb0
 267 0 l 1
 275 37 l 1
 327 41 342 57 350 92 c 2
 395 307 l 2
 399 325 402 343 402 358 c 0
 402 385 391 404 352 404 c 0xb0
 309 404 272 378 244 353 c 1
 189 92 l 2
 187 85 186 78 186 73 c 0
 186 51 200 40 240 37 c 1
 232 0 l 1
 -3 0 l 1
 5 37 l 1
 57 41 72 57 80 92 c 2
 131 336 l 2
 135 354 137 366 137 375 c 0
 137 392 129 396 110 396 c 0
 102 396 92 396 81 395 c 1
 89 432 l 1xd0
 273 487 l 1
 258 421 l 1
 300 453 349 482 412 482 c 0
 478 482 513 446 513 374 c 0
 513 355 510 333 505 309 c 2
 459 92 l 2
 457 85 457 79 457 73 c 0
 457 51 471 40 510 37 c 1
 502 0 l 1xb0
EndSplineSet
Validated: 1
Layer: 2
SplineSet
502 0 m 1,0,-1
 267 0 l 1,1,-1
 275 37 l 1,2,3
 313 40 313 40 328.5 52 c 128,-1,4
 344 64 344 64 350 92 c 2,5,-1
 395 307 l 2,6,7
 402 339 402 339 402 358 c 0,8,9
 402 404 402 404 352 404 c 0,10,11
 301 404 301 404 244 353 c 1,12,-1
 189 92 l 2,13,14
 186 81 186 81 186 73 c 0,15,16
 186 41 186 41 240 37 c 1,17,-1
 232 0 l 1,18,-1
 -3 0 l 1,19,-1
 5 37 l 1,20,21
 43 40 43 40 58.5 52 c 128,-1,22
 74 64 74 64 80 92 c 2,23,-1
 131 336 l 2,24,25
 137 363 137 363 137 375 c 128,-1,26
 137 387 137 387 131 391.5 c 128,-1,27
 125 396 125 396 110 396 c 0,28,29
 92 396 92 396 81 395 c 1,30,-1
 89 432 l 1,31,-1
 273 487 l 1,32,-1
 258 421 l 1,33,34
 338 482 338 482 412 482 c 0,35,36
 513 482 513 482 513 374 c 0,37,38
 513 347 513 347 505 309 c 2,39,-1
 459 92 l 2,40,41
 457 85 457 85 457 73 c 0,42,43
 457 41 457 41 510 37 c 1,44,-1
 502 0 l 1,0,-1
EndSplineSet
EndChar

StartChar: o
Encoding: 111 111 80
Width: 499
Flags: W
HStem: -11 56<217.242 332.194> 427 55<262.878 381.657>
VStem: 61 121<83.6375 280.947> 419 122<201.237 387.6>
LayerCount: 3
Fore
SplineSet
541 307 m 0
 541 170 422 -11 244 -11 c 0
 128 -11 61 73 61 176 c 0
 61 292 154 482 348 482 c 0
 468 482 541 414 541 307 c 0
274 45 m 0
 371 45 419 184 419 293 c 0
 419 361 398 427 324 427 c 0
 211 427 182 260 182 179 c 0
 182 99 210 45 274 45 c 0
EndSplineSet
Validated: 1
Layer: 2
SplineSet
541 307 m 0,0,1
 541 236 541 236 505 164 c 128,-1,2
 469 92 469 92 398.5 40.5 c 128,-1,3
 328 -11 328 -11 244 -11 c 128,-1,4
 160 -11 160 -11 110.5 42.5 c 128,-1,5
 61 96 61 96 61 176 c 0,6,7
 61 212 61 212 72 252.5 c 128,-1,8
 83 293 83 293 106.5 334 c 128,-1,9
 130 375 130 375 163 408 c 128,-1,10
 196 441 196 441 244 461.5 c 128,-1,11
 292 482 292 482 348 482 c 0,12,13
 438 482 438 482 489.5 435 c 128,-1,14
 541 388 541 388 541 307 c 0,0,1
274 45 m 0,15,16
 341 45 341 45 380 123 c 128,-1,17
 419 201 419 201 419 293 c 0,18,19
 419 427 419 427 324 427 c 0,20,21
 284 427 284 427 254.5 400.5 c 128,-1,22
 225 374 225 374 210 332.5 c 128,-1,23
 195 291 195 291 188.5 252.5 c 128,-1,24
 182 214 182 214 182 179 c 0,25,26
 182 116 182 116 205 80.5 c 128,-1,27
 228 45 228 45 274 45 c 0,15,16
EndSplineSet
EndChar

StartChar: p
Encoding: 112 112 81
Width: 499
Flags: W
HStem: -217 39<-47 20.5814 148.524 209> -11 59<212.094 331.78> 395 37<83 102.624> 402 80<311.227 455>
VStem: 427 117<209.948 374.848>
DStem2: 17.2322 -217 126.232 -217 0.207912 0.978148<99.9921 264.831 352.062 602.218>
LayerCount: 3
Fore
SplineSet
544 328 m 0xd8
 544 159 410 -11 251 -11 c 0
 222 -11 195 2 176 20 c 1
 146 -124 l 2
 145 -131 144 -136 144 -142 c 0
 144 -166 161 -176 217 -178 c 1
 209 -217 l 1
 -55 -217 l 1
 -47 -180 l 1
 12 -175 29 -161 37 -124 c 2
 135 339 l 2
 138 353 140 364 140 373 c 0
 140 389 132 397 103 397 c 0
 95 397 86 396 75 395 c 1
 83 432 l 1xe8
 276 487 l 1
 263 429 l 1
 269 431 313 482 408 482 c 0
 502 482 544 417 544 328 c 0xd8
273 48 m 0
 359 48 427 170 427 294 c 0
 427 350 409 402 343 402 c 0xd8
 318 402 254 385 243 336 c 2
 196 115 l 2
 195 112 195 108 195 105 c 0
 195 66 244 48 273 48 c 0
EndSplineSet
Validated: 1
Layer: 2
SplineSet
544 328 m 0,0,1
 544 199 544 199 456 94 c 128,-1,2
 368 -11 368 -11 251 -11 c 0,3,4
 209 -11 209 -11 176 20 c 1,5,-1
 146 -124 l 2,6,7
 144 -138 144 -138 144 -142 c 0,8,9
 144 -160 144 -160 160 -168.5 c 128,-1,10
 176 -177 176 -177 217 -178 c 1,11,-1
 209 -217 l 1,12,-1
 -55 -217 l 1,13,-1
 -47 -180 l 1,14,15
 -4 -176 -4 -176 13.5 -164 c 128,-1,16
 31 -152 31 -152 37 -124 c 2,17,-1
 135 339 l 2,18,19
 140 362 140 362 140 373 c 0,20,21
 140 397 140 397 103 397 c 0,22,23
 97 397 97 397 75 395 c 1,24,-1
 83 432 l 1,25,-1
 276 487 l 1,26,-1
 263 429 l 2,27,28
 264 429 264 429 271 435 c 128,-1,29
 278 441 278 441 289.5 448.5 c 128,-1,30
 301 456 301 456 317 464 c 128,-1,31
 333 472 333 472 357 477 c 128,-1,32
 381 482 381 482 408 482 c 0,33,34
 476 482 476 482 510 440 c 128,-1,35
 544 398 544 398 544 328 c 0,0,1
273 48 m 0,36,37
 336 48 336 48 381.5 123.5 c 128,-1,38
 427 199 427 199 427 294 c 0,39,40
 427 402 427 402 343 402 c 0,41,42
 317 402 317 402 283.5 385 c 128,-1,43
 250 368 250 368 243 336 c 2,44,-1
 196 115 l 2,45,46
 195 112 195 112 195 105 c 0,47,48
 195 78 195 78 221 63 c 128,-1,49
 247 48 247 48 273 48 c 0,36,37
EndSplineSet
EndChar

StartChar: q
Encoding: 113 113 82
Width: 499
Flags: W
HStem: -217 37<206 279.286 414.322 464> -11 86<139 275.126> 433 49<271.624 397.047>
VStem: 51 119<101.885 266.258>
DStem2: 281.232 -217 390.232 -217 0.207912 0.978148<99.9477 268.848 314.974 611.439>
LayerCount: 3
Fore
SplineSet
51 148 m 0
 51 334 195 482 352 482 c 0
 392 482 428 473 455 453 c 1
 503 479 l 2
 512 483 518 485 522 485 c 0
 531 485 534 478 534 469 c 0
 534 464 533 458 532 452 c 2
 410 -124 l 2
 409 -131 408 -137 408 -142 c 0
 408 -166 424 -176 472 -180 c 1
 464 -217 l 1
 198 -217 l 1
 206 -178 l 1
 276 -175 293 -161 301 -124 c 2
 337 46 l 1
 290 15 241 -11 192 -11 c 0
 86 -11 51 64 51 148 c 0
336 433 m 0
 223 433 170 281 170 184 c 0
 170 119 195 75 249 75 c 0
 286 75 347 93 355 131 c 2
 403 359 l 2
 404 365 406 373 406 382 c 0
 406 405 395 433 336 433 c 0
EndSplineSet
Validated: 1
Layer: 2
SplineSet
51 148 m 0,0,1
 51 286 51 286 141.5 384 c 128,-1,2
 232 482 232 482 352 482 c 0,3,4
 416 482 416 482 455 453 c 1,5,-1
 503 479 l 2,6,7
 516 485 516 485 522 485 c 0,8,9
 534 485 534 485 534 469 c 0,10,11
 534 464 534 464 532 452 c 2,12,-1
 410 -124 l 2,13,14
 408 -138 408 -138 408 -142 c 0,15,16
 408 -160 408 -160 422 -168.5 c 128,-1,17
 436 -177 436 -177 472 -180 c 1,18,-1
 464 -217 l 1,19,-1
 198 -217 l 1,20,-1
 206 -178 l 1,21,22
 257 -176 257 -176 276 -164.5 c 128,-1,23
 295 -153 295 -153 301 -124 c 2,24,-1
 337 46 l 1,25,26
 251 -11 251 -11 192 -11 c 0,27,28
 118 -11 118 -11 84.5 33.5 c 128,-1,29
 51 78 51 78 51 148 c 0,0,1
336 433 m 0,30,31
 283 433 283 433 243.5 390 c 128,-1,32
 204 347 204 347 187 292 c 128,-1,33
 170 237 170 237 170 184 c 0,34,35
 170 133 170 133 190 104 c 128,-1,36
 210 75 210 75 249 75 c 0,37,38
 282 75 282 75 316 90 c 128,-1,39
 350 105 350 105 355 131 c 2,40,-1
 403 359 l 2,41,42
 406 377 406 377 406 382 c 0,43,44
 406 433 406 433 336 433 c 0,30,31
EndSplineSet
EndChar

StartChar: r
Encoding: 114 114 83
Width: 333
Flags: W
HStem: 0 38<0 69.2336 199.675 252> 384 41<82 104.111> 396 86<301.5 405.48>
DStem2: 68.4448 0 177.445 0 0.207912 0.978148<98.9252 369.553>
LayerCount: 3
Fore
SplineSet
438 434 m 0xa0
 438 408 424 361 370 361 c 0
 335 361 334 396 310 396 c 0xa0
 293 396 252 355 247 330 c 2
 197 92 l 2
 195 85 195 79 195 74 c 0
 195 51 211 40 260 38 c 1
 252 0 l 1
 -8 0 l 1
 0 38 l 1
 63 41 80 57 88 92 c 2
 134 310 l 2
 139 333 141 350 141 363 c 0
 141 383 134 392 116 392 c 0
 106 392 92 389 74 384 c 1
 82 425 l 1xc0
 281 488 l 1
 266 419 l 1
 297 452 340 482 380 482 c 0
 415 482 438 466 438 434 c 0xa0
EndSplineSet
Validated: 1
Layer: 2
SplineSet
438 434 m 0,0,1
 438 408 438 408 422 384.5 c 128,-1,2
 406 361 406 361 370 361 c 0,3,4
 351 361 351 361 336 378.5 c 128,-1,5
 321 396 321 396 310 396 c 0,6,7
 297 396 297 396 274 372 c 128,-1,8
 251 348 251 348 247 330 c 2,9,-1
 197 92 l 2,10,11
 195 85 195 85 195 74 c 0,12,13
 195 56 195 56 209.5 47.5 c 128,-1,14
 224 39 224 39 260 38 c 1,15,-1
 252 0 l 1,16,-1
 -8 0 l 1,17,-1
 0 38 l 1,18,19
 45 40 45 40 63.5 52 c 128,-1,20
 82 64 82 64 88 92 c 2,21,-1
 134 310 l 2,22,23
 141 342 141 342 141 363 c 0,24,25
 141 392 141 392 116 392 c 0,26,27
 103 392 103 392 74 384 c 1,28,-1
 82 425 l 1,29,-1
 281 488 l 1,30,-1
 266 419 l 1,31,32
 325 482 325 482 380 482 c 0,33,34
 438 482 438 482 438 434 c 0,0,1
EndSplineSet
EndChar

StartChar: s
Encoding: 115 115 84
Width: 388
Flags: W
HStem: -11 49<144.774 263.982> -3 21G<37 76> 435 47<227.037 332.068> 453 20G<395 428>
VStem: 37 37<-3 11.9956> 76 40<158.327 178> 109 97<266.5 394.659> 289 101<86.0283 208.5> 357 37<313 345.941>
LayerCount: 3
Fore
SplineSet
109 322 m 0x8b
 109 403 188 482 292 482 c 0xab
 341 482 363 461 379 461 c 0
 388 461 391 467 399 473 c 1
 428 473 l 1
 394 313 l 1
 357 313 l 1x1a80
 352 386 342 435 281 435 c 0
 249 435 206 412 206 369 c 0
 206 286 390 260 390 157 c 0
 390 95 327 -11 198 -11 c 0xab
 151 -11 121 12 93 12 c 0
 81 12 78 6 74 -3 c 1
 37 -3 l 1
 76 178 l 1
 116 178 l 1x4d
 116 171 115 165 115 158 c 0
 115 90 136 38 206 38 c 0
 243 38 289 64 289 111 c 0
 289 198 109 211 109 322 c 0x8b
EndSplineSet
Validated: 1
Layer: 2
SplineSet
109 322 m 0,0,1
 109 384 109 384 162.5 433 c 128,-1,2
 216 482 216 482 292 482 c 0,3,4
 321 482 321 482 348 471.5 c 128,-1,5
 375 461 375 461 379 461 c 128,-1,6
 383 461 383 461 386 462.5 c 128,-1,7
 389 464 389 464 393 467.5 c 128,-1,8
 397 471 397 471 399 473 c 2,9,-1
 428 473 l 1,10,-1
 394 313 l 1,11,-1
 357 313 l 1,12,13
 353 376 353 376 338 405.5 c 128,-1,14
 323 435 323 435 281 435 c 0,15,16
 254 435 254 435 230 417 c 128,-1,17
 206 399 206 399 206 369 c 0,18,19
 206 342 206 342 235 315.5 c 128,-1,20
 264 289 264 289 298 270.5 c 128,-1,21
 332 252 332 252 361 222 c 128,-1,22
 390 192 390 192 390 157 c 0,23,24
 390 101 390 101 338 45 c 128,-1,25
 286 -11 286 -11 198 -11 c 0,26,27
 172 -11 172 -11 138.5 0.5 c 128,-1,28
 105 12 105 12 93 12 c 128,-1,29
 81 12 81 12 74 -3 c 1,30,-1
 37 -3 l 1,31,-1
 76 178 l 1,32,-1
 116 178 l 1,33,34
 116 174 116 174 115.5 168 c 128,-1,35
 115 162 115 162 115 158 c 0,36,37
 115 38 115 38 206 38 c 0,38,39
 237 38 237 38 263 58 c 128,-1,40
 289 78 289 78 289 111 c 0,41,42
 289 135 289 135 270.5 155.5 c 128,-1,43
 252 176 252 176 225.5 191.5 c 128,-1,44
 199 207 199 207 172.5 224 c 128,-1,45
 146 241 146 241 127.5 266 c 128,-1,46
 109 291 109 291 109 322 c 0,0,1
EndSplineSet
EndChar

StartChar: t
Encoding: 116 116 85
Width: 278
Flags: W
HStem: -11 78<123.5 220.14> 416 56<269 355>
VStem: 76 118<30.7933 186.141>
DStem2: 55.3919 -11 167.078 -11 0.207912 0.978148<135.196 436.508>
LayerCount: 3
Fore
SplineSet
216 67 m 0
 246 67 270 93 290 111 c 1
 313 81 l 1
 255 22 199 -11 149 -11 c 0
 98 -11 76 10 76 59 c 0
 76 79 80 104 86 133 c 2
 146 416 l 1
 129 416 l 2
 115 416 94 417 94 432 c 0
 94 439 100 447 102 450 c 1
 165 487 216 545 302 624 c 1
 269 472 l 1
 367 472 l 1
 355 416 l 1
 257 416 l 1
 203 158 l 2
 198 134 194 113 194 97 c 0
 194 79 199 67 216 67 c 0
EndSplineSet
Validated: 1
Layer: 2
SplineSet
216 67 m 0,0,1
 223 67 223 67 231 69.5 c 128,-1,2
 239 72 239 72 244 74 c 128,-1,3
 249 76 249 76 257 82.5 c 128,-1,4
 265 89 265 89 268 91.5 c 128,-1,5
 271 94 271 94 280 102 c 128,-1,6
 289 110 289 110 290 111 c 2,7,-1
 313 81 l 1,8,9
 223 -11 223 -11 149 -11 c 0,10,11
 111 -11 111 -11 93.5 5.5 c 128,-1,12
 76 22 76 22 76 59 c 0,13,14
 76 85 76 85 86 133 c 2,15,-1
 146 416 l 1,16,-1
 129 416 l 2,17,18
 94 416 94 416 94 432 c 0,19,20
 94 438 94 438 102 450 c 1,21,22
 131 467 131 467 157 488.5 c 128,-1,23
 183 510 183 510 231.5 557 c 128,-1,24
 280 604 280 604 302 624 c 1,25,-1
 269 472 l 1,26,-1
 367 472 l 1,27,-1
 355 416 l 1,28,-1
 257 416 l 1,29,-1
 203 158 l 2,30,31
 194 115 194 115 194 97 c 0,32,33
 194 67 194 67 216 67 c 0,0,1
EndSplineSet
EndChar

StartChar: u
Encoding: 117 117 86
Width: 499
Flags: W
HStem: -11 83<152 270.785> 433 39<97 142.925 347 401.829>
VStem: 85 113<78.4828 219.398>
DStem2: 56.7784 -17 165.716 -17 0.207912 0.978148<163.781 430.543> 315.691 -17 425.329 -17 0.207912 0.978148<144.131 430.517>
LayerCount: 3
Fore
SplineSet
247 72 m 0
 274 72 339 96 348 135 c 2
 398 372 l 2
 401 386 403 396 403 405 c 0
 403 427 388 433 339 433 c 1
 347 472 l 1
 529 472 l 1
 457 132 l 2
 454 120 452 109 452 101 c 0
 452 84 461 76 490 76 c 0
 495 76 501 76 508 77 c 1
 501 40 l 1
 447 25 391 6 322 -17 c 1
 338 58 l 1
 310 32 256 -11 187 -11 c 0
 117 -11 85 28 85 91 c 0
 85 107 87 125 91 144 c 2
 139 373 l 2
 142 386 144 397 144 405 c 0
 144 427 130 433 89 433 c 1
 97 472 l 1
 269 472 l 1
 201 149 l 2
 199 139 198 129 198 120 c 0
 198 92 210 72 247 72 c 0
EndSplineSet
Validated: 1
Layer: 2
SplineSet
247 72 m 0,0,1
 272 72 272 72 307 90.5 c 128,-1,2
 342 109 342 109 348 135 c 2,3,-1
 398 372 l 2,4,5
 403 395 403 395 403 405 c 0,6,7
 403 421 403 421 389.5 427 c 128,-1,8
 376 433 376 433 339 433 c 1,9,-1
 347 472 l 1,10,-1
 529 472 l 1,11,-1
 457 132 l 2,12,13
 452 112 452 112 452 101 c 0,14,15
 452 76 452 76 490 76 c 0,16,17
 501 76 501 76 508 77 c 1,18,-1
 501 40 l 1,19,20
 453 27 453 27 322 -17 c 1,21,-1
 338 58 l 1,22,23
 264 -11 264 -11 187 -11 c 0,24,25
 85 -11 85 -11 85 91 c 0,26,27
 85 116 85 116 91 144 c 2,28,-1
 139 373 l 2,29,30
 144 395 144 395 144 405 c 0,31,32
 144 421 144 421 132 427 c 128,-1,33
 120 433 120 433 89 433 c 1,34,-1
 97 472 l 1,35,-1
 269 472 l 1,36,-1
 201 149 l 2,37,38
 198 134 198 134 198 120 c 0,39,40
 198 72 198 72 247 72 c 0,0,1
EndSplineSet
EndChar

StartChar: v
Encoding: 118 118 87
Width: 499
Flags: W
HStem: -11 21G<242 250> 433 39<98 133.889 263.317 310 416 446.992 527.334 571>
DStem2: 305 164 225 25 0.215788 -0.97644<-239.567 0> 305 164 281 25 0.529764 0.848145<0 289.153>
LayerCount: 3
Fore
SplineSet
310 433 m 1
 270 433 261 419 261 400 c 0
 261 392 263 383 264 375 c 2
 305 164 l 1
 408 339 l 2
 425 369 447 401 447 417 c 0
 447 428 436 433 408 433 c 1
 416 472 l 1
 579 472 l 1
 571 433 l 1
 527 433 511 393 484 350 c 2
 281 25 l 1
 276 14 255 -11 245 -11 c 0
 239 -11 228 14 225 25 c 2
 145 387 l 2
 138 418 123 433 90 433 c 1
 98 472 l 1
 318 472 l 1
 310 433 l 1
EndSplineSet
Validated: 1
Layer: 2
SplineSet
310 433 m 1,0,1
 261 433 261 433 261 400 c 0,2,3
 261 399 261 399 264 375 c 2,4,-1
 305 164 l 1,5,-1
 408 339 l 2,6,7
 412 346 412 346 421 361 c 128,-1,8
 430 376 430 376 434.5 384 c 128,-1,9
 439 392 439 392 443 401.5 c 128,-1,10
 447 411 447 411 447 417 c 0,11,12
 447 433 447 433 408 433 c 1,13,-1
 416 472 l 1,14,-1
 579 472 l 1,15,-1
 571 433 l 1,16,17
 558 433 558 433 548 429.5 c 128,-1,18
 538 426 538 426 528 415 c 128,-1,19
 518 404 518 404 514 399 c 128,-1,20
 510 394 510 394 498.5 374 c 128,-1,21
 487 354 487 354 484 350 c 2,22,-1
 281 25 l 2,23,24
 277 16 277 16 264.5 2.5 c 128,-1,25
 252 -11 252 -11 245 -11 c 0,26,27
 241 -11 241 -11 234.5 2 c 128,-1,28
 228 15 228 15 225 25 c 2,29,-1
 145 387 l 2,30,31
 135 433 135 433 90 433 c 1,32,-1
 98 472 l 1,33,-1
 318 472 l 1,34,-1
 310 433 l 1,0,1
EndSplineSet
EndChar

StartChar: w
Encoding: 119 119 88
Width: 721
Flags: W
HStem: -11 21G<230 236 483 489.5> 433 39<109 138.222 255.292 306 350 388.745 509.805 568 658 688.992 763.912 798>
DStem2: 276 261 151 350 0.190641 -0.98166<-139.98 104.733> 295 158 256 5 0.563232 0.826299<0 148.113> 542 167 508 5 0.523205 0.852207<0 288.498>
LayerCount: 3
Fore
SplineSet
568 433 m 1
 523 433 506 425 506 394 c 0
 506 384 507 373 509 359 c 2
 542 167 l 1
 651 339 l 1
 672 375 689 401 689 416 c 0
 689 428 678 433 650 433 c 1
 658 472 l 1
 805 472 l 1
 798 436 l 1
 764 425 749 393 737 378 c 1
 508 5 l 2
 504 -2 493 -11 486 -11 c 0
 480 -11 475 -2 469 3 c 1
 423 250 l 1
 256 5 l 2
 252 -2 239 -11 233 -11 c 0
 227 -11 220 -2 218 5 c 2
 151 350 l 2
 140 406 146 433 101 433 c 1
 109 472 l 1
 314 472 l 1
 306 432 l 1
 268 432 254 432 254 401 c 0
 254 366 273 284 276 261 c 1
 295 158 l 1
 405 323 l 1
 400 399 399 433 342 433 c 1
 350 472 l 1
 576 472 l 1
 568 433 l 1
EndSplineSet
Validated: 1
Layer: 2
SplineSet
568 433 m 1,0,1
 533 433 533 433 519.5 425 c 128,-1,2
 506 417 506 417 506 394 c 0,3,4
 506 380 506 380 509 359 c 2,5,-1
 542 167 l 1,6,-1
 651 339 l 2,7,8
 689 404 689 404 689 416 c 0,9,10
 689 433 689 433 650 433 c 1,11,-1
 658 472 l 1,12,-1
 805 472 l 1,13,-1
 798 436 l 1,14,15
 786 432 786 432 775.5 424 c 128,-1,16
 765 416 765 416 759.5 409 c 128,-1,17
 754 402 754 402 746.5 391.5 c 128,-1,18
 739 381 739 381 737 378 c 2,19,-1
 508 5 l 2,20,21
 499 -11 499 -11 486 -11 c 0,22,23
 483 -11 483 -11 480.5 -8.5 c 128,-1,24
 478 -6 478 -6 474.5 -2.5 c 128,-1,25
 471 1 471 1 469 3 c 2,26,-1
 423 250 l 1,27,-1
 256 5 l 2,28,29
 253 -0 253 -0 245.5 -5.5 c 128,-1,30
 238 -11 238 -11 233 -11 c 0,31,32
 223 -11 223 -11 218 5 c 2,33,-1
 151 350 l 2,34,35
 149 360 149 360 146 379 c 128,-1,36
 143 398 143 398 141.5 404 c 128,-1,37
 140 410 140 410 135 419 c 128,-1,38
 130 428 130 428 122 430.5 c 128,-1,39
 114 433 114 433 101 433 c 1,40,-1
 109 472 l 1,41,-1
 314 472 l 1,42,-1
 306 432 l 1,43,44
 274 432 274 432 264 427.5 c 128,-1,45
 254 423 254 423 254 401 c 0,46,47
 254 386 254 386 258.5 356.5 c 128,-1,48
 263 327 263 327 269 297.5 c 128,-1,49
 275 268 275 268 276 261 c 2,50,-1
 295 158 l 1,51,-1
 405 323 l 1,52,53
 403 353 403 353 402 364.5 c 128,-1,54
 401 376 401 376 397 393.5 c 128,-1,55
 393 411 393 411 387 417 c 128,-1,56
 381 423 381 423 370 428 c 128,-1,57
 359 433 359 433 342 433 c 1,58,-1
 350 472 l 1,59,-1
 576 472 l 1,60,-1
 568 433 l 1,0,1
EndSplineSet
EndChar

StartChar: x
Encoding: 120 120 89
Width: 499
Flags: W
HStem: 0 38<13 67.5055 150.007 175 274 325.894 451.363 492> 433 39<112 163.69 290.009 336 364 393.993 473.013 537>
DStem2: 107 97 179 91 0.660859 0.75051<-8.0706 168.568 319.384 434.443> 320 335 186 369 0.401276 -0.915957<-86.6047 0 112.802 266.117>
LayerCount: 3
Fore
SplineSet
492 0 m 1
 266 0 l 1
 274 38 l 1
 305 40 324 39 326 47 c 0
 326 49 326 51 324 54 c 2
 261 186 l 1
 179 91 l 2
 159 67 150 56 150 48 c 0
 150 40 159 38 183 38 c 1
 175 0 l 1
 5 0 l 1
 13 38 l 1
 57 38 76 63 107 97 c 2
 241 244 l 1
 186 369 l 2
 171 401 174 430 104 433 c 1
 112 472 l 1
 344 472 l 1
 336 433 l 1
 302 433 290 427 290 417 c 0
 290 405 309 361 320 335 c 1
 343 357 394 407 394 424 c 0
 394 432 384 433 356 433 c 1
 364 472 l 1
 545 472 l 1
 537 433 l 1
 493 433 460 409 437 384 c 2
 344 281 l 1
 423 103 l 2
 438 68 455 38 500 38 c 1
 492 0 l 1
EndSplineSet
Validated: 1
Layer: 2
SplineSet
492 0 m 1,0,-1
 266 0 l 1,1,-1
 274 38 l 1,2,3
 325 41 325 41 326 47 c 0,4,5
 326 51 326 51 324 54 c 2,6,-1
 261 186 l 1,7,-1
 179 91 l 2,8,9
 150 56 150 56 150 48 c 0,10,11
 150 38 150 38 183 38 c 1,12,-1
 175 0 l 1,13,-1
 5 0 l 1,14,-1
 13 38 l 1,15,16
 34 38 34 38 52 47.5 c 128,-1,17
 70 57 70 57 77 64.5 c 128,-1,18
 84 72 84 72 107 97 c 2,19,-1
 241 244 l 1,20,-1
 186 369 l 2,21,22
 184 374 184 374 179 387 c 128,-1,23
 174 400 174 400 170.5 405 c 128,-1,24
 167 410 167 410 159 418 c 128,-1,25
 151 426 151 426 137.5 429 c 128,-1,26
 124 432 124 432 104 433 c 1,27,-1
 112 472 l 1,28,-1
 344 472 l 1,29,-1
 336 433 l 1,30,31
 290 433 290 433 290 417 c 0,32,33
 290 406 290 406 320 335 c 1,34,35
 394 406 394 406 394 424 c 0,36,37
 394 433 394 433 356 433 c 1,38,-1
 364 472 l 1,39,-1
 545 472 l 1,40,-1
 537 433 l 1,41,42
 482 433 482 433 437 384 c 2,43,-1
 344 281 l 1,44,-1
 423 103 l 2,45,46
 437 71 437 71 453 54.5 c 128,-1,47
 469 38 469 38 500 38 c 1,48,-1
 492 0 l 1,0,-1
EndSplineSet
EndChar

StartChar: y
Encoding: 121 121 90
Width: 499
Flags: W
HStem: -217 107<28.9033 140> 433 39<103 138.516 264.416 325 429 462.993 540.362 580>
DStem2: 219 -6 287 0 0.513839 0.857887<-131.432 37.9608 194.307 488.961>
LayerCount: 3
Fore
SplineSet
-13 -160 m 0
 -13 -131 7 -92 63 -92 c 0
 81 -92 117 -110 130 -110 c 0
 150 -110 171 -83 219 -6 c 0
 225 3 235 18 237 28 c 1
 237 32 l 1
 145 398 l 2
 140 419 129 430 95 435 c 1
 103 472 l 1
 333 472 l 1
 325 433 l 1
 278 433 263 426 263 404 c 0
 263 398 264 392 266 384 c 2
 320 160 l 1
 460 409 l 2
 462 412 463 414 463 418 c 0
 463 426 454 432 421 433 c 1
 429 472 l 1
 588 472 l 1
 580 433 l 1
 551 433 527 402 517 384 c 2
 287 0 l 2
 241 -78 161 -217 57 -217 c 0
 18 -217 -13 -195 -13 -160 c 0
EndSplineSet
Validated: 1
Layer: 2
SplineSet
-13 -160 m 128,-1,1
 -13 -134 -13 -134 6 -113 c 128,-1,2
 25 -92 25 -92 63 -92 c 0,3,4
 73 -92 73 -92 98.5 -101 c 128,-1,5
 124 -110 124 -110 130 -110 c 0,6,7
 145 -110 145 -110 163.5 -88 c 128,-1,8
 182 -66 182 -66 219 -6 c 0,9,10
 235 18 235 18 237 28 c 2,11,-1
 237 32 l 1,12,-1
 145 398 l 2,13,14
 138 429 138 429 95 435 c 1,15,-1
 103 472 l 1,16,-1
 333 472 l 1,17,-1
 325 433 l 1,18,19
 290 433 290 433 276.5 426.5 c 128,-1,20
 263 420 263 420 263 404 c 0,21,22
 263 396 263 396 266 384 c 2,23,-1
 320 160 l 1,24,-1
 460 409 l 2,25,26
 463 413 463 413 463 418 c 0,27,28
 463 432 463 432 421 433 c 1,29,-1
 429 472 l 1,30,-1
 588 472 l 1,31,-1
 580 433 l 1,32,33
 544 433 544 433 517 384 c 2,34,-1
 287 0 l 2,35,36
 261 -45 261 -45 244.5 -69.5 c 128,-1,37
 228 -94 228 -94 195.5 -135 c 128,-1,38
 163 -176 163 -176 128.5 -196.5 c 128,-1,39
 94 -217 94 -217 57 -217 c 0,40,41
 27 -217 27 -217 7 -201.5 c 128,-1,0
 -13 -186 -13 -186 -13 -160 c 128,-1,1
EndSplineSet
EndChar

StartChar: z
Encoding: 122 122 91
Width: 443
Flags: W
HStem: 0 55<169 375.314> 416 56<182.375 358>
VStem: 111 40<330 359.235>
DStem2: 18 29 169 55 0.660015 0.751252<119.195 515.14>
LayerCount: 3
Fore
SplineSet
466 158 m 1
 415 0 l 1
 12 0 l 1
 18 29 l 1
 358 416 l 1
 255 416 l 2
 180 416 171 389 151 330 c 1
 111 330 l 1
 145 472 l 1
 518 472 l 1
 509 442 l 1
 169 55 l 1
 272 55 l 2
 299 55 328 57 357 68 c 1
 394 77 405 124 427 167 c 1
 466 158 l 1
EndSplineSet
Validated: 1
Layer: 2
SplineSet
466 158 m 1,0,-1
 415 0 l 1,1,-1
 12 0 l 1,2,-1
 18 29 l 1,3,-1
 358 416 l 1,4,-1
 255 416 l 2,5,6
 203 416 203 416 185.5 398.5 c 128,-1,7
 168 381 168 381 151 330 c 1,8,-1
 111 330 l 1,9,-1
 145 472 l 1,10,-1
 518 472 l 1,11,-1
 509 442 l 1,12,-1
 169 55 l 1,13,-1
 272 55 l 2,14,15
 323 55 323 55 357 68 c 0,16,17
 370 71 370 71 381 82 c 128,-1,18
 392 93 392 93 397.5 103.5 c 128,-1,19
 403 114 403 114 412.5 135.5 c 128,-1,20
 422 157 422 157 427 167 c 1,21,-1
 466 158 l 1,0,-1
EndSplineSet
EndChar

StartChar: braceleft
Encoding: 123 123 92
Width: 479
Flags: W
HStem: -164 24<286.002 306> 682 25<457.132 489>
VStem: 164 94<-124.809 48.2109> 212 95<77.3906 238.556>
DStem2: 139.204 -164 234.73 -164 0.207912 0.978148<115.241 364.762 485.38 843.349>
LayerCount: 3
Fore
SplineSet
314 -140 m 1xe0
 306 -164 l 1
 290 -164 l 2
 204 -164 164 -144 164 -75 c 0xe0
 164 -55 167 -32 173 -5 c 2
 207 155 l 2
 210 170 212 182 212 194 c 0
 212 228 193 248 120 269 c 1
 224 296 243 326 255 382 c 2
 292 556 l 2
 319 684 383 707 491 707 c 1
 489 682 l 1
 428 667 405 633 391 571 c 2
 354 396 l 2
 341 332 322 292 271 269 c 1
 297 253 307 230 307 199 c 0xd0
 307 180 304 159 298 134 c 2
 263 -31 l 2
 260 -46 258 -60 258 -72 c 0
 258 -108 274 -132 314 -140 c 1xe0
EndSplineSet
Validated: 1
Layer: 2
SplineSet
314 -140 m 1,0,-1
 306 -164 l 1,1,-1
 290 -164 l 2,2,3
 223 -164 223 -164 193.5 -144.5 c 128,-1,4
 164 -125 164 -125 164 -75 c 0,5,6
 164 -46 164 -46 173 -5 c 2,7,-1
 207 155 l 2,8,9
 212 180 212 180 212 194 c 0,10,11
 212 220 212 220 192.5 237 c 128,-1,12
 173 254 173 254 120 269 c 1,13,14
 193 288 193 288 219 312 c 128,-1,15
 245 336 245 336 255 382 c 2,16,-1
 292 556 l 2,17,18
 311 646 311 646 357 676.5 c 128,-1,19
 403 707 403 707 491 707 c 1,20,-1
 489 682 l 1,21,22
 445 671 445 671 423.5 645.5 c 128,-1,23
 402 620 402 620 391 571 c 2,24,-1
 354 396 l 2,25,26
 344 345 344 345 325.5 315 c 128,-1,27
 307 285 307 285 271 269 c 1,28,29
 307 247 307 247 307 199 c 0,30,31
 307 172 307 172 298 134 c 2,32,-1
 263 -31 l 2,33,34
 258 -56 258 -56 258 -72 c 0,35,36
 258 -129 258 -129 314 -140 c 1,0,-1
EndSplineSet
EndChar

StartChar: bar
Encoding: 124 124 93
Width: 199
Flags: W
HStem: 0 21G<55 148.243>
VStem: 55 239
DStem2: 55 0 144 0 0.207912 0.978148<18.5041 722.737>
LayerCount: 3
Fore
SplineSet
144 0 m 1
 55 0 l 1
 205 707 l 1
 294 707 l 1
 144 0 l 1
EndSplineSet
Validated: 1
Layer: 2
SplineSet
144 0 m 1,0,-1
 55 0 l 1,1,-1
 205 707 l 1,2,-1
 294 707 l 1,3,-1
 144 0 l 1,0,-1
EndSplineSet
EndChar

StartChar: braceright
Encoding: 125 125 94
Width: 479
Flags: W
HStem: -164 24<107 140.897> 682 25<290 310.04>
VStem: 287 95<301.448 461.234> 337 94<496.68 665.625>
DStem2: 174.73 -164 271.204 -164 0.207912 0.978148<64.5087 415.92 543.432 796.095>
LayerCount: 3
Fore
SplineSet
476 269 m 1xe0
 366 241 351 214 339 155 c 2
 305 -5 l 2
 278 -132 231 -164 121 -164 c 2
 105 -164 l 1
 107 -140 l 1
 167 -129 191 -91 203 -31 c 2
 238 134 l 2
 252 198 270 244 323 269 c 1
 296 284 287 306 287 337 c 0xe0
 287 354 289 374 294 396 c 2
 331 571 l 2
 335 588 337 603 337 616 c 0
 337 650 322 671 282 682 c 1
 290 707 l 1
 379 707 431 691 431 613 c 0xd0
 431 597 429 578 424 556 c 2
 387 382 l 2
 384 369 382 358 382 347 c 0
 382 312 403 290 476 269 c 1xe0
EndSplineSet
Validated: 1
Layer: 2
SplineSet
476 269 m 1,0,1
 398 249 398 249 373.5 226 c 128,-1,2
 349 203 349 203 339 155 c 2,3,-1
 305 -5 l 2,4,5
 285 -98 285 -98 245.5 -131 c 128,-1,6
 206 -164 206 -164 121 -164 c 2,7,-1
 105 -164 l 1,8,-1
 107 -140 l 1,9,10
 150 -132 150 -132 171.5 -105.5 c 128,-1,11
 193 -79 193 -79 203 -31 c 2,12,-1
 238 134 l 2,13,14
 250 188 250 188 268 220 c 128,-1,15
 286 252 286 252 323 269 c 1,16,17
 287 289 287 289 287 337 c 0,18,19
 287 365 287 365 294 396 c 2,20,-1
 331 571 l 2,21,22
 337 596.5 337 596.5 337 616 c 0,23,24
 337 667 337 667 282 682 c 1,25,-1
 290 707 l 1,26,27
 363 707 363 707 397 687.5 c 128,-1,28
 431 668 431 668 431 613 c 0,29,30
 431 587 431 587 424 556 c 2,31,-1
 387 382 l 2,32,33
 382 360 382 360 382 347 c 0,34,35
 382 320 382 320 402.5 302 c 128,-1,36
 423 284 423 284 476 269 c 1,0,1
EndSplineSet
EndChar

StartChar: asciitilde
Encoding: 126 126 95
Width: 540
Flags: W
HStem: 198 88<375.163 495.339> 267 89<161.372 291.1>
LayerCount: 3
Fore
SplineSet
606 321 m 1x80
 557 257 492 198 423 198 c 0x80
 346 198 286 267 217 267 c 0
 166 267 133 220 93 169 c 1
 54 229 l 1
 102 292 160 356 236 356 c 0x40
 305 356 390 286 443 286 c 0
 483 286 528 330 566 381 c 1
 606 321 l 1x80
EndSplineSet
Validated: 1
Layer: 2
SplineSet
606 321 m 1,0,1
 512 198 512 198 423 198 c 0,2,3
 384 198 384 198 317 232.5 c 128,-1,4
 250 267 250 267 217 267 c 0,5,6
 195 267 195 267 172.5 252.5 c 128,-1,7
 150 238 150 238 138 224.5 c 128,-1,8
 126 211 126 211 100.878734784 179.088576172 c 0,9,10
 96 172 96 172 93 169 c 1,11,-1
 54 229 l 1,12,13
 99 288 99 288 142 322 c 128,-1,14
 185 356 185 356 236 356 c 0,15,16
 272 356 272 356 345 321 c 128,-1,17
 418 286 418 286 443 286 c 0,18,19
 495 286 495 286 566 381 c 1,20,-1
 606 321 l 1,0,1
EndSplineSet
EndChar

StartChar: uni0E10.descless
Encoding: 63232 63232 96
Width: 508
Flags: W
HStem: -5 50<282.576 332.627> 166 44<145.952 201.183> 315 43<159.667 244.298> 489 76<379.123 517.129> 528 70<227.139 363.902>
VStem: 97 45<214.271 297.375> 186 96<45.625 107.025> 249 76<226.647 310.603> 392 102<302.94 371.172>
DStem2: 188 478 112 445 0.962206 -0.272322<0 231.524> 165.406 -5 265.995 -5 0.207912 0.978148<94.8942 177.806> 318.208 -5 420.406 -5 0.207912 0.978148<57.1462 360.535>
LayerCount: 3
Fore
SplineSet
571 584 m 3xf680
 571 542 504 489 452 489 c 3xf680
 427 489 405 493 355 509 c 0
 308 524 289 528 268 528 c 3
 233 528 208 512 188 478 c 1
 445 407 l 2
 485 392 494 383 494 354 c 3
 494 345 493 340 492 335 c 2
 444 106 l 2
 428 33 376 -5 292 -5 c 3
 228 -5 186 29 186 81 c 3xee80
 186 89 187 97 189 106 c 2
 202 169 l 1
 191 167 184 166 175 166 c 3
 128 166 97 196 97 243 c 3
 97 304 153 358 216 358 c 3
 286 358 325 330 325 281 c 3xed80
 325 274 324 266 322 258 c 2
 283 75 l 2
 282 73 282 72 282 67 c 3
 282 54 290 45 303 45 c 3
 318 45 331 56 335 74 c 2
 390 333 l 2
 392 342 392 346 392 348 c 3
 392 361 387 368 377 370 c 2
 112 445 l 1
 167 550 230 598 316 598 c 3xee80
 333 598 350 595 393 583 c 0
 442 569 463 565 485 565 c 3
 510 565 524 570 542 585 c 0
 551 592 555 594 561 594 c 3
 568 594 571 591 571 584 c 3xf680
207 315 m 3
 171 315 142 286 142 249 c 3
 142 225 158 210 185 210 c 3
 220 210 249 239 249 274 c 3xe580
 249 300 233 315 207 315 c 3
EndSplineSet
Layer: 2
SplineSet
571 584 m 0,0,1
 571 553 571 553 531 521 c 128,-1,2
 491 489 491 489 452 489 c 0,3,4
 418 489 418 489 355 509 c 0,5,6
 295 528 295 528 268 528 c 0,7,8
 217 528 217 528 188 478 c 1,9,-1
 445 407 l 2,10,11
 475 396 475 396 484.5 386 c 128,-1,12
 494 376 494 376 494 354 c 0,13,14
 494 345 494 345 492 335 c 2,15,-1
 444 106 l 2,16,17
 420 -5 420 -5 292 -5 c 0,18,19
 244 -5 244 -5 215 18.5 c 128,-1,20
 186 42 186 42 186 81 c 0,21,22
 186 92 186 92 189 106 c 2,23,-1
 202 169 l 1,24,25
 185 166 185 166 175 166 c 0,26,27
 140 166 140 166 118.5 187 c 128,-1,28
 97 208 97 208 97 243 c 0,29,30
 97 289 97 289 133 323.5 c 128,-1,31
 169 358 169 358 216 358 c 0,32,33
 268 358 268 358 296.5 338 c 128,-1,34
 325 318 325 318 325 281 c 0,35,36
 325 270 325 270 322 258 c 2,37,-1
 283 75 l 2,38,39
 282 73 282 73 282 67 c 0,40,41
 282 45 282 45 303 45 c 0,42,43
 329 45 329 45 335 74 c 2,44,-1
 390 333 l 2,45,46
 392 342 392 342 392 348 c 0,47,48
 392 367 392 367 377 370 c 2,49,-1
 112 445 l 1,50,51
 153 524 153 524 202.5 561 c 128,-1,52
 252 598 252 598 316 598 c 0,53,54
 339 598 339 598 393 583 c 0,55,56
 456 565 456 565 485 565 c 0,57,58
 518 565 518 565 542 585 c 0,59,60
 554 594 554 594 561 594 c 0,61,62
 571 594 571 594 571 584 c 0,0,1
207 315 m 0,63,64
 180 315 180 315 161 296 c 128,-1,65
 142 277 142 277 142 249 c 0,66,67
 142 231 142 231 153.5 220.5 c 128,-1,68
 165 210 165 210 185 210 c 0,69,70
 211 210 211 210 230 229 c 128,-1,71
 249 248 249 248 249 274 c 0,72,73
 249 315 249 315 207 315 c 0,63,64
EndSplineSet
EndChar

StartChar: uni0E34.left
Encoding: 63233 63233 97
Width: 0
Flags: W
HStem: 713 21G<-543.5 -539.5> 726 45<-467.557 -280.741> 839 55<-396.273 -224.183>
LayerCount: 3
Back
SplineSet
-98 636 m 1
 -220 694 -316 726 -423 726 c 0
 -463 726 -504 722 -548 713 c 1
 -492 833 -380 894 -280 894 c 0
 -161 894 -61 808 -98 636 c 1
-143 708 m 1
 -155 788 -222 839 -299 839 c 0
 -350 839 -405 818 -453 768 c 1
 -433 770 -414 771 -394 771 c 0
 -308 771 -218 750 -143 708 c 1
EndSplineSet
Fore
Refer: 180 3636 N 1 0 0 1 -164 0 2
Layer: 2
Refer: 180 3636 N 1 0 0 1 -164 0 2
EndChar

StartChar: uni0E35.left
Encoding: 63234 63234 98
Width: 0
Flags: W
HStem: 713 21G<-543.5 -540> 726 45<-467.557 -280.741> 839 55<-397.841 -223.83>
LayerCount: 3
Back
SplineSet
-98 636 m 1
 -220 694 -316 726 -423 726 c 0
 -463 726 -504 722 -548 713 c 1
 -495 829 -390 882 -295 882 c 0
 -251 882 -209 870 -175 849 c 1
 -153 948 l 1
 -56 948 l 1
 -98 751 l 1
 -90 739 -86 690 -98 636 c 1
-145 710 m 1
 -154 781 -227 827 -307 827 c 0
 -357 827 -410 809 -453 768 c 1
 -432 770 -412 772 -391 772 c 0
 -306 772 -219 752 -145 710 c 1
EndSplineSet
Fore
Refer: 181 3637 N 1 0 0 1 -164 0 2
Layer: 2
Refer: 181 3637 N 1 0 0 1 -164 0 2
EndChar

StartChar: uni0E36.left
Encoding: 63235 63235 99
Width: 0
Flags: W
HStem: 713 21G<-543.5 -540> 726 45<-467.557 -280.741> 839 55<-397.841 -224.062> 906 46<-160.391 -78.2681>
VStem: -75 51<821.899 902.346>
LayerCount: 3
Back
SplineSet
-98 636 m 1
 -220 694 -316 726 -423 726 c 0
 -463 726 -504 722 -548 713 c 1
 -493 832 -385 881 -296 881 c 0
 -273 881 -250 878 -231 872 c 1
 -230 875 l 0
 -223 909 -185 952 -125 952 c 0
 -60 952 -39 908 -48 866 c 0
 -55 833 -80 801 -115 791 c 1
 -87 768 -87 688 -98 636 c 1
-153 819 m 0
 -118 819 -96 843 -91 866 c 0
 -86 890 -98 914 -133 914 c 0
 -168 914 -190 890 -195 866 c 0
 -200 843 -188 819 -153 819 c 0
-145 710 m 1
 -154 781 -227 827 -307 827 c 0
 -357 827 -410 809 -453 768 c 1
 -432 770 -412 772 -391 772 c 0
 -306 772 -219 752 -145 710 c 1
EndSplineSet
Fore
Refer: 182 3638 N 1 0 0 1 -164 0 2
Layer: 2
Refer: 182 3638 N 1 0 0 1 -164 0 2
EndChar

StartChar: uni0E37.left
Encoding: 63236 63236 100
Width: 0
Flags: W
HStem: 713 21G<-543 -539> 726 45<-468.531 -281.304> 839 55<-397.753 -287>
VStem: -137 80<869 949>
LayerCount: 3
Back
SplineSet
-145 710 m 1
 -154 781 -227 827 -307 827 c 0
 -357 827 -410 809 -453 768 c 1
 -432 770 -412 772 -391 772 c 0
 -306 772 -219 752 -145 710 c 1
-100 743 m 1
 -90 733 -88 684 -98 636 c 1
 -220 694 -316 726 -423 726 c 0
 -463 726 -504 722 -548 713 c 1
 -493 831 -385 883 -289 882 c 1
 -273 948 l 1
 -200 948 l 1
 -216 869 l 1
 -203 866 -171 851 -160 839 c 1
 -134 948 l 1
 -58 948 l 1
 -100 743 l 1
EndSplineSet
Fore
Refer: 183 3639 N 1 0 0 1 -164 0 2
Layer: 2
Refer: 183 3639 N 1 0 0 1 -164 0 2
EndChar

StartChar: ellipsis
Encoding: 8230 8230 101
Width: 998
Flags: W
HStem: -14 140<140.906 218.374 472.361 550.111 805.906 883.374>
VStem: 108 142<18.44 93.077> 440 143<18.4975 94.2012> 773 142<18.44 93.077>
CounterMasks: 1 70
LayerCount: 3
Fore
SplineSet
915 70 m 0
 915 32 877 -14 828 -14 c 0
 796 -14 773 12 773 43 c 0
 773 88 823 126 858 126 c 0
 891 126 915 101 915 70 c 0
583 70 m 0
 583 28 538 -14 496 -14 c 0
 463 -14 440 12 440 43 c 0
 440 85 485 126 526 126 c 0
 559 126 583 101 583 70 c 0
250 70 m 0
 250 32 212 -14 163 -14 c 0
 131 -14 108 12 108 43 c 0
 108 88 158 126 193 126 c 0
 226 126 250 101 250 70 c 0
EndSplineSet
Validated: 1
Layer: 2
SplineSet
915 70 m 0,0,1
 915 40 915 40 889 13 c 128,-1,2
 863 -14 863 -14 828 -14 c 0,3,4
 804 -14 804 -14 788.5 2.5 c 128,-1,5
 773 19 773 19 773 43 c 0,6,7
 773 75 773 75 801.5 100.5 c 128,-1,8
 830 126 830 126 858 126 c 0,9,10
 882 126 882 126 898.5 110 c 128,-1,11
 915 94 915 94 915 70 c 0,0,1
583 70 m 0,12,13
 583 39 583 39 555.5 12.5 c 128,-1,14
 528 -14 528 -14 496 -14 c 0,15,16
 472 -14 472 -14 456 2.5 c 128,-1,17
 440 19 440 19 440 43 c 0,18,19
 440 74 440 74 467.5 100 c 128,-1,20
 495 126 495 126 526 126 c 0,21,22
 550 126 550 126 566.5 110 c 128,-1,23
 583 94 583 94 583 70 c 0,12,13
250 70 m 0,24,25
 250 40 250 40 224 13 c 128,-1,26
 198 -14 198 -14 163 -14 c 0,27,28
 139 -14 139 -14 123.5 2.5 c 128,-1,29
 108 19 108 19 108 43 c 0,30,31
 108 75 108 75 136.5 100.5 c 128,-1,32
 165 126 165 126 193 126 c 0,33,34
 218 126 218 126 234 110 c 128,-1,35
 250 94 250 94 250 70 c 0,24,25
EndSplineSet
EndChar

StartChar: uni0E48.low_left
Encoding: 63237 63237 102
Width: 0
Flags: W
HStem: 688 238<-167 -121>
VStem: -201 146
LayerCount: 3
Back
SplineSet
-69 926 m 1
 -135 688 l 1
 -207 688 l 1
 -173 926 l 1
 -69 926 l 1
EndSplineSet
Fore
Refer: 107 63242 N 1 0 0 1 -164 0 2
Validated: 1
Layer: 2
Refer: 107 63242 N 1 0 0 1 -164 0 2
EndChar

StartChar: uni0E49.low_left
Encoding: 63238 63238 103
Width: 0
Flags: W
HStem: 677 50<-387 -330.072> 778 45<-330.955 -278.5> 925 53<-318.425 -234.979>
VStem: -390 56<826.148 909.097> -231 59<839.439 920.63> -8 108<920.028 972>
LayerCount: 3
Back
SplineSet
-29 940 m 17
 -133 627 -429 665 -482 670 c 1
 -473 710 l 1
 -426 716 -403 736 -389 757 c 1
 -388 760 l 1
 -388 760 -398 757 -415 759 c 0
 -463 767 -480 808 -471 850 c 0
 -462 895 -421 940 -356 940 c 0
 -258 940 -277 851 -278 849 c 0
 -295 765 -348 725 -348 725 c 1
 -349 722 l 1
 -349 722 -169 737 -130 940 c 1
 -29 940 l 17
-386 800 m 0
 -356 800 -335 823 -330 846 c 0
 -325 869 -336 892 -366 892 c 0
 -396 892 -417 869 -422 846 c 0
 -427 823 -416 800 -386 800 c 0
EndSplineSet
Fore
Refer: 108 63243 N 1 0 0 1 -164 0 2
Layer: 2
Refer: 108 63243 N 1 0 0 1 -164 0 2
EndChar

StartChar: uni0E4A.low_left
Encoding: 63239 63239 104
Width: 0
Flags: W
HStem: 671 40<-398.146 -327.917> 794 39<-389.36 -318.938>
VStem: -467 65<713.603 865.673> -317 44<720.369 792.885> -165 71<784.187 889.109>
LayerCount: 3
Back
SplineSet
-42 917 m 17
 -59 790 -163 677 -303 677 c 1
 -295 713 l 1
 -258 731 -238 763 -231 794 c 0
 -224 827 -234 858 -254 866 c 1
 -317 828 l 1
 -371 869 l 1
 -404 863 -426 822 -428 799 c 1
 -425 796 l 1
 -425 796 -409 816 -375 816 c 0
 -335 816 -310 790 -319 748 c 0
 -328 705 -363 677 -404 677 c 0
 -469 677 -495 734 -480 806 c 0
 -470 851 -418 919 -355 923 c 1
 -307 874 l 1
 -239 923 l 1
 -175 904 -162 858 -171 814 c 0
 -176 789 -190 764 -205 746 c 1
 -203 745 l 1
 -155 771 -113 833 -115 917 c 1
 -42 917 l 17
-400 708 m 0
 -374 708 -356 727 -352 746 c 0
 -348 766 -357 785 -383 785 c 0
 -409 785 -425 766 -429 746 c 0
 -433 727 -426 708 -400 708 c 0
EndSplineSet
Fore
Refer: 109 63244 N 1 0 0 1 -164 0 2
Layer: 2
Refer: 109 63244 N 1 0 0 1 -164 0 2
EndChar

StartChar: uni0E4B.low_left
Encoding: 63240 63240 105
Width: 0
Flags: W
HStem: 770 81<-275 -190 -78 5>
VStem: -207 89<677 766>
DStem2: -207 677 -118 677 0.207912 0.978148<18.5041 92.5459 197.996 269.813>
LayerCount: 3
Back
SplineSet
-88 774 m 1
 -183 773 l 1
 -202 691 l 1
 -275 691 l 1
 -260 773 l 1
 -353 774 l 1
 -338 848 l 1
 -244 849 l 1
 -227 931 l 1
 -148 931 l 1
 -167 849 l 1
 -73 848 l 1
 -88 774 l 1
EndSplineSet
Fore
Refer: 110 63245 N 1 0 0 1 -164 0 2
Validated: 1
Layer: 2
Refer: 110 63245 N 1 0 0 1 -164 0 2
EndChar

StartChar: uni0E4C.low_left
Encoding: 63241 63241 106
Width: 0
Flags: W
HStem: 671 48<-223.204 -145.647>
VStem: -276 50<721.95 796.541> -134 53<730.74 806.823>
LayerCount: 3
Back
SplineSet
-35 954 m 17
 -82 857 -197 836 -223 829 c 1
 -223 826 l 1
 -200 825 -179 802 -187 760 c 0
 -197 714 -240 679 -291 679 c 0
 -346 679 -371 720 -361 766 c 0
 -353 806 -312 859 -218 876 c 0
 -170 885 -131 919 -109 975 c 1
 -35 954 l 17
-282 722 m 0
 -255 722 -237 743 -233 764 c 0
 -228 784 -237 805 -264 805 c 0
 -293 805 -311 784 -316 764 c 0
 -320 743 -311 722 -282 722 c 0
EndSplineSet
Fore
Refer: 111 63246 N 1 0 0 1 -164 0 2
Layer: 2
Refer: 111 63246 N 1 0 0 1 -164 0 2
EndChar

StartChar: uni0E48.low
Encoding: 63242 63242 107
Width: 0
Flags: W
HStem: 688 238<-3 43>
VStem: -37 146
AnchorPoint: "AboveMark" 65 983 basemark 0
AnchorPoint: "AboveBase" 40 630 mark 0
LayerCount: 3
Fore
SplineSet
109 926 m 1
 43 688 l 1
 -37 688 l 1
 -3 926 l 1
 109 926 l 1
EndSplineSet
Validated: 1
Layer: 2
SplineSet
109 926 m 1,0,-1
 43 688 l 1,1,-1
 -37 688 l 1,2,-1
 -3 926 l 1,3,-1
 109 926 l 1,0,-1
EndSplineSet
Substitution2: "Thai Phinthu Mai Ek Reordering" uni0E3A
EndChar

StartChar: uni0E49.low
Encoding: 63243 63243 108
Width: 0
Flags: W
HStem: 677 50<-223 -166.072> 778 45<-166.955 -114.5> 925 53<-154.425 -70.9785>
VStem: -226 56<826.148 909.097> -67 59<839.439 920.63> 156 108<920.028 972>
AnchorPoint: "AboveMark" 32 983 basemark 0
AnchorPoint: "AboveBase" 40 630 mark 0
LayerCount: 3
Fore
SplineSet
-226 855 m 3
 -226 922 -167 978 -95 978 c 3
 -41 978 -8 949 -8 901 c 3
 -8 845 -53 760 -96 736 c 1
 -94 733 l 1
 45 762 133 846 156 972 c 1
 264 972 l 17
 204 779 51 673 -165 673 c 3
 -188 673 -202 674 -234 677 c 1
 -223 727 l 1
 -182 730 -143 753 -132 780 c 1
 -137 779 -144 778 -150 778 c 3
 -196 778 -226 808 -226 855 c 3
-110 925 m 3
 -143 925 -170 896 -170 861 c 3
 -170 837 -156 823 -132 823 c 3
 -97 823 -67 851 -67 885 c 3
 -67 910 -83 925 -110 925 c 3
EndSplineSet
Layer: 2
SplineSet
-226 855 m 0,0,1
 -226 905 -226 905 -187.5 941.5 c 128,-1,2
 -149 978 -149 978 -95 978 c 0,3,4
 -54 978 -54 978 -31 957.5 c 128,-1,5
 -8 937 -8 937 -8 901 c 0,6,7
 -8 859 -8 859 -36 806.5 c 128,-1,8
 -64 754 -64 754 -96 736 c 1,9,-1
 -94 733 l 1,10,11
 10 755 10 755 74.5 816.5 c 128,-1,12
 139 878 139 878 156 972 c 1,13,-1
 264 972 l 1,14,15
 219 827 219 827 108 750 c 128,-1,16
 -3 673 -3 673 -165 673 c 0,17,18
 -191 673 -191 673 -234 677 c 1,19,-1
 -223 727 l 1,20,21
 -192 729 -192 729 -166 744.5 c 128,-1,22
 -140 760 -140 760 -132 780 c 1,23,24
 -142 778 -142 778 -150 778 c 0,25,26
 -185 778 -185 778 -205.5 799 c 128,-1,27
 -226 820 -226 820 -226 855 c 0,0,1
-110 925 m 0,28,29
 -135 925 -135 925 -152.5 906 c 128,-1,30
 -170 887 -170 887 -170 861 c 0,31,32
 -170 823 -170 823 -132 823 c 0,33,34
 -106 823 -106 823 -86.5 841.5 c 128,-1,35
 -67 860 -67 860 -67 885 c 0,36,37
 -67 925 -67 925 -110 925 c 0,28,29
EndSplineSet
Substitution2: "Thai Phinthu Mai Tho Reordering" uni0E3A
EndChar

StartChar: uni0E4A.low
Encoding: 63244 63244 109
Width: 0
Flags: W
HStem: 671 40<-234.146 -163.917> 794 39<-225.36 -154.938>
VStem: -303 65<713.603 865.673> -153 44<720.369 792.885> -1 71<784.187 889.109>
AnchorPoint: "AboveMark" -80 983 basemark 0
AnchorPoint: "AboveBase" 40 630 mark 0
LayerCount: 3
Fore
SplineSet
28 750 m 1
 92 786 132 863 132 954 c 1
 223 954 l 17
 220 942 l 1
 186 782 59 671 -90 671 c 1
 -81 713 l 1
 -33 736 -1 784 -1 834 c 3
 -1 864 -13 887 -31 894 c 1
 -109 848 l 1
 -171 899 l 1
 -201 893 -238 848 -238 819 c 3
 -238 816 -238 815 -235 809 c 1
 -222 825 -203 833 -176 833 c 3
 -136 833 -109 810 -109 774 c 3
 -109 718 -155 671 -210 671 c 3
 -269 671 -303 710 -303 777 c 3
 -303 869 -239 948 -151 963 c 1
 -96 906 l 1
 -13 963 l 1
 41 946 70 910 70 861 c 3
 70 826 53 783 26 753 c 1
 28 750 l 1
-184 794 m 3
 -214 794 -237 771 -237 743 c 3
 -237 723 -224 711 -202 711 c 3
 -175 711 -153 734 -153 762 c 3
 -153 782 -165 794 -184 794 c 3
EndSplineSet
Layer: 2
SplineSet
28 750 m 1,0,1
 76 777 76 777 104 831.5 c 128,-1,2
 132 886 132 886 132 954 c 1,3,-1
 223 954 l 1,4,-1
 220 942 l 1,5,6
 195 822 195 822 108.5 746.5 c 128,-1,7
 22 671 22 671 -90 671 c 1,8,-1
 -81 713 l 1,9,10
 -45 730 -45 730 -23 763.5 c 128,-1,11
 -1 797 -1 797 -1 834 c 0,12,13
 -1 882 -1 882 -31 894 c 1,14,-1
 -109 848 l 1,15,-1
 -171 899 l 1,16,17
 -193 895 -193 895 -215.5 868 c 128,-1,18
 -238 841 -238 841 -238 819 c 0,19,20
 -238 815 -238 815 -235 809 c 1,21,22
 -216 833 -216 833 -176 833 c 0,23,24
 -146 833 -146 833 -127.5 817 c 128,-1,25
 -109 801 -109 801 -109 774 c 0,26,27
 -109 732 -109 732 -139 701.5 c 128,-1,28
 -169 671 -169 671 -210 671 c 0,29,30
 -254 671 -254 671 -278.5 699 c 128,-1,31
 -303 727 -303 727 -303 777 c 0,32,33
 -303 846 -303 846 -260 899 c 128,-1,34
 -217 952 -217 952 -151 963 c 1,35,-1
 -96 906 l 1,36,-1
 -13 963 l 1,37,38
 70 937 70 937 70 861 c 0,39,40
 70 802 70 802 26 753 c 1,41,-1
 28 750 l 1,0,1
-184 794 m 0,42,43
 -206 794 -206 794 -221.5 779 c 128,-1,44
 -237 764 -237 764 -237 743 c 0,45,46
 -237 711 -237 711 -202 711 c 0,47,48
 -182 711 -182 711 -167.5 726 c 128,-1,49
 -153 741 -153 741 -153 762 c 0,50,51
 -153 794 -153 794 -184 794 c 0,42,43
EndSplineSet
Substitution2: "Thai Phinthu Mai Tri Reordering" uni0E3A
EndChar

StartChar: uni0E4B.low
Encoding: 63245 63245 110
Width: 0
Flags: W
HStem: 770 81<-111 -26 86 169>
VStem: -43 89<677 766>
DStem2: -43 677 46 677 0.207912 0.978148<18.5041 92.5459 197.996 269.813>
AnchorPoint: "AboveMark" 66 983 basemark 0
AnchorPoint: "AboveBase" 40 630 mark 0
LayerCount: 3
Fore
SplineSet
169 770 m 1
 66 768 l 1
 46 677 l 1
 -43 677 l 1
 -26 768 l 1
 -128 770 l 1
 -111 851 l 1
 -9 852 l 1
 8 942 l 1
 106 942 l 1
 86 852 l 1
 186 851 l 1
 169 770 l 1
EndSplineSet
Validated: 1
Layer: 2
SplineSet
169 770 m 1,0,-1
 66 768 l 1,1,-1
 46 677 l 1,2,-1
 -43 677 l 1,3,-1
 -26 768 l 1,4,-1
 -128 770 l 1,5,-1
 -111 851 l 1,6,-1
 -9 852 l 1,7,-1
 8 942 l 1,8,-1
 106 942 l 1,9,-1
 86 852 l 1,10,-1
 186 851 l 1,11,-1
 169 770 l 1,0,-1
EndSplineSet
Substitution2: "Thai Phinthu Mai Chattawa Reordering" uni0E3A
EndChar

StartChar: uni0E4C.low
Encoding: 63246 63246 111
Width: 0
Flags: W
HStem: 671 48<-59.2042 18.3528>
VStem: -112 50<721.95 796.541> 30 53<730.74 806.823>
AnchorPoint: "AboveMark" 31 983 basemark 0
AnchorPoint: "AboveBase" 40 630 mark 0
LayerCount: 3
Fore
SplineSet
83 779 m 3
 83 721 29 671 -34 671 c 3
 -81 671 -112 701 -112 746 c 3
 -112 812 -51 867 46 889 c 0
 104 902 146 940 167 998 c 1
 247 974 l 17
 213 904 149 861 41 837 c 1
 41 836 l 1
 65 834 83 810 83 779 c 3
-6 809 m 3
 -36 809 -62 784 -62 755 c 3
 -62 733 -48 719 -25 719 c 3
 5 719 30 744 30 775 c 3
 30 796 16 809 -6 809 c 3
EndSplineSet
Layer: 2
SplineSet
83 779 m 0,0,1
 83 735 83 735 48 703 c 128,-1,2
 13 671 13 671 -34 671 c 0,3,4
 -69 671 -69 671 -90.5 691.5 c 128,-1,5
 -112 712 -112 712 -112 746 c 0,6,7
 -112 795 -112 795 -69.5 833.5 c 128,-1,8
 -27 872 -27 872 46 889 c 0,9,10
 135 909 135 909 167 998 c 1,11,-1
 247 974 l 1,12,13
 197 872 197 872 41 837 c 1,14,-1
 41 836 l 1,15,16
 59 834 59 834 71 818 c 128,-1,17
 83 802 83 802 83 779 c 0,0,1
-6 809 m 0,18,19
 -29 809 -29 809 -45.5 793 c 128,-1,20
 -62 777 -62 777 -62 755 c 0,21,22
 -62 738 -62 738 -52 728.5 c 128,-1,23
 -42 719 -42 719 -25 719 c 0,24,25
 -2 719 -2 719 14 735.5 c 128,-1,26
 30 752 30 752 30 775 c 0,27,28
 30 791 30 791 20.5 800 c 128,-1,29
 11 809 11 809 -6 809 c 0,18,19
EndSplineSet
Substitution2: "Thai Phinthu Thanthakhat Reordering" uni0E3A
EndChar

StartChar: uni0E0D.descless
Encoding: 63247 63247 112
Width: 800
Flags: W
HStem: -5 43<181.193 267.777 511.155 600.834> 143 44<225.618 281.159> 378 44<178 197 267.621 356> 545 53<289.889 427.324>
VStem: 106 71<42.0947 123.441> 285 47<54.969 138.306> 403 99<48.0127 196.164> 468 104<370.565 505.609>
DStem2: 80.9425 -8 184.402 -8 0.207912 0.978148<216.777 391.952> 376.943 -8 479.831 -8 0.207912 0.978148<120.221 454.59> 602.044 -8 705.43 -8 0.207912 0.978148<85.8096 538.761>
LayerCount: 3
Fore
SplineSet
332 114 m 3xfd
 332 49 274 -5 204 -5 c 3
 141 -5 106 30 106 93 c 3
 106 104 107 115 109 124 c 2
 150 315 l 2
 155 341 179 374 197 378 c 1
 114 378 l 1
 146 505 266 598 398 598 c 3
 501 598 572 534 572 443 c 3xfd
 572 431 570 418 567 401 c 2
 503 101 l 2
 502 98 502 95 502 88 c 3
 502 60 522 41 551 41 c 3
 587 41 618 65 625 100 c 2
 714 519 l 1
 780 582 l 2
 786 588 798 592 810 592 c 3
 822 592 827 585 827 571 c 3
 827 566 826 559 824 551 c 2
 732 117 l 2
 718 52 626 -8 540 -8 c 3
 460 -8 403 38 403 102 c 3xfe
 403 113 403 119 405 124 c 2
 464 401 l 2
 467 412 468 425 468 438 c 3
 468 503 425 545 358 545 c 3
 286 545 215 497 178 422 c 1
 366 422 l 1
 356 378 l 1
 306 378 l 2
 281 378 262 359 255 326 c 2
 225 183 l 1
 236 186 246 187 257 187 c 3
 303 187 332 159 332 114 c 3xfd
242 143 m 3
 206 143 177 114 177 78 c 3
 177 53 193 38 220 38 c 3
 256 38 285 67 285 103 c 3
 285 128 269 143 242 143 c 3
EndSplineSet
Layer: 2
SplineSet
332 114 m 0,0,1
 332 65 332 65 294 30 c 128,-1,2
 256 -5 256 -5 204 -5 c 0,3,4
 157 -5 157 -5 131.5 20.5 c 128,-1,5
 106 46 106 46 106 93 c 0,6,7
 106 110 106 110 109 124 c 2,8,-1
 150 315 l 2,9,10
 154 335 154 335 169 355 c 128,-1,11
 184 375 184 375 197 378 c 1,12,-1
 114 378 l 1,13,14
 138 473 138 473 218.5 535.5 c 128,-1,15
 299 598 299 598 398 598 c 0,16,17
 475 598 475 598 523.5 554.5 c 128,-1,18
 572 511 572 511 572 443 c 0,19,20
 572 429 572 429 567 401 c 2,21,-1
 503 101 l 2,22,23
 502 98 502 98 502 88 c 0,24,25
 502 67 502 67 515.5 54 c 128,-1,26
 529 41 529 41 551 41 c 0,27,28
 578 41 578 41 599 57.5 c 128,-1,29
 620 74 620 74 625 100 c 2,30,-1
 714 519 l 1,31,-1
 780 582 l 2,32,33
 790 592 790 592 810 592 c 0,34,35
 827 592 827 592 827 571 c 0,36,37
 827 563 827 563 824 551 c 2,38,-1
 732 117 l 2,39,40
 721 68 721 68 662.5 30 c 128,-1,41
 604 -8 604 -8 540 -8 c 0,42,43
 480 -8 480 -8 441.5 23 c 128,-1,44
 403 54 403 54 403 102 c 0,45,46
 403 119 403 119 405 124 c 2,47,-1
 464 401 l 2,48,49
 468 416 468 416 468 438 c 0,50,51
 468 487 468 487 438 516 c 128,-1,52
 408 545 408 545 358 545 c 0,53,54
 304 545 304 545 255 511.5 c 128,-1,55
 206 478 206 478 178 422 c 1,56,-1
 366 422 l 1,57,-1
 356 378 l 1,58,-1
 306 378 l 2,59,60
 266 378 266 378 255 326 c 2,61,-1
 225 183 l 1,62,63
 240 187 240 187 257 187 c 0,64,65
 292 187 292 187 312 167.5 c 128,-1,66
 332 148 332 148 332 114 c 0,0,1
242 143 m 0,67,68
 215 143 215 143 196 124 c 128,-1,69
 177 105 177 105 177 78 c 0,70,71
 177 38 177 38 220 38 c 0,72,73
 247 38 247 38 266 57 c 128,-1,74
 285 76 285 76 285 103 c 0,75,76
 285 143 285 143 242 143 c 0,67,68
EndSplineSet
EndChar

StartChar: quoteleft
Encoding: 8216 8216 113
Width: 333
Flags: W
VStem: 203 157<483.381 578.571>
LayerCount: 3
Fore
SplineSet
360 540 m 0
 360 502 331 452 271 452 c 0
 221 452 203 482 203 521 c 0
 203 628 310 713 372 731 c 1
 379 703 l 1
 323 680 275 622 268 588 c 0
 267 583 266 581 268 581 c 0
 271 581 281 588 306 588 c 0
 337 588 360 570 360 540 c 0
EndSplineSet
Validated: 1
Layer: 2
SplineSet
360 540 m 0,0,1
 360 507 360 507 336.5 479.5 c 128,-1,2
 313 452 313 452 271 452 c 0,3,4
 203 452 203 452 203 521 c 0,5,6
 203 594 203 594 259.5 654.5 c 128,-1,7
 316 715 316 715 372 731 c 1,8,-1
 379 703 l 1,9,10
 339 687 339 687 306.5 651 c 128,-1,11
 274 615 274 615 268 588 c 0,12,13
 267 581 267 581 268 581 c 128,-1,14
 269 581 269 581 273.5 582.5 c 128,-1,15
 278 584 278 584 286.5 586 c 128,-1,16
 295 588 295 588 306 588 c 0,17,18
 330 588 330 588 345 575 c 128,-1,19
 360 562 360 562 360 540 c 0,0,1
EndSplineSet
EndChar

StartChar: quoteright
Encoding: 8217 8217 114
Width: 333
Flags: W
HStem: 452 27<208.926 229.268> 602 129<265.571 339.051>
VStem: 223 157<603.005 700.375>
LayerCount: 3
Fore
SplineSet
223 645 m 0
 223 678 249 731 312 731 c 0
 363 731 380 700 380 660 c 0
 380 553 272 469 211 452 c 1
 203 479 l 1
 261 502 308 561 315 594 c 0
 316 597 317 602 315 602 c 0
 311 602 306 594 277 594 c 0
 246 594 223 613 223 645 c 0
EndSplineSet
Validated: 1
Layer: 2
SplineSet
223 645 m 0,0,1
 223 675 223 675 246 703 c 128,-1,2
 269 731 269 731 312 731 c 0,3,4
 380 731 380 731 380 660 c 0,5,6
 380 587 380 587 323 527 c 128,-1,7
 266 467 266 467 211 452 c 1,8,-1
 203 479 l 1,9,10
 244 495 244 495 276.5 531 c 128,-1,11
 309 567 309 567 315 594 c 0,12,13
 318 602 318 602 315 602 c 0,14,15
 314 602 314 602 310.5 600 c 128,-1,16
 307 598 307 598 298.5 596 c 128,-1,17
 290 594 290 594 277 594 c 0,18,19
 253 594 253 594 238 607.5 c 128,-1,20
 223 621 223 621 223 645 c 0,0,1
EndSplineSet
EndChar

StartChar: bullet
Encoding: 8226 8226 117
Width: 385
Flags: W
HStem: 177 285<211.706 310.916>
VStem: 116 290<273.097 366.346>
LayerCount: 3
Fore
SplineSet
406 350 m 0
 406 267 329 177 230 177 c 0
 163 177 116 225 116 289 c 0
 116 373 195 462 290 462 c 0
 360 462 406 414 406 350 c 0
EndSplineSet
Validated: 1
Layer: 2
SplineSet
406 350 m 0,0,1
 406 285 406 285 354 231 c 128,-1,2
 302 177 302 177 230 177 c 0,3,4
 180 177 180 177 148 209 c 128,-1,5
 116 241 116 241 116 289 c 0,6,7
 116 354 116 354 168 408 c 128,-1,8
 220 462 220 462 290 462 c 0,9,10
 342 462 342 462 374 430.5 c 128,-1,11
 406 399 406 399 406 350 c 0,0,1
EndSplineSet
EndChar

StartChar: endash
Encoding: 8211 8211 118
Width: 768
Flags: W
HStem: 201 72<80 789>
LayerCount: 3
Fore
SplineSet
789 201 m 1
 65 201 l 1
 80 273 l 1
 804 273 l 1
 789 201 l 1
EndSplineSet
Validated: 1
Layer: 2
SplineSet
789 201 m 1,0,-1
 65 201 l 1,1,-1
 80 273 l 1,2,-1
 804 273 l 1,3,-1
 789 201 l 1,0,-1
EndSplineSet
EndChar

StartChar: emdash
Encoding: 8212 8212 119
Width: 1536
Flags: W
HStem: 201 72<67 1570>
LayerCount: 3
Fore
SplineSet
1570 201 m 1
 52 201 l 1
 67 273 l 1
 1585 273 l 1
 1570 201 l 1
EndSplineSet
Validated: 1
Layer: 2
SplineSet
1570 201 m 1,0,-1
 52 201 l 1,1,-1
 67 273 l 1,2,-1
 1585 273 l 1,3,-1
 1570 201 l 1,0,-1
EndSplineSet
EndChar

StartChar: uni0E31.left
Encoding: 63248 63248 120
Width: 0
Flags: W
HStem: 676 49<-235.742 -57.9265> 880 49<-294.06 -208.727>
VStem: -367 55<780.544 861.809> -205 53<793.743 875.385> 87 102<884.138 923>
LayerCount: 3
Back
SplineSet
288 923 m 17
 212 737 10 676 -137 676 c 0
 -255 676 -352 736 -333 823 c 0
 -321 882 -264 929 -205 929 c 0
 -142 929 -108 885 -120 826 c 0
 -129 786 -158 754 -202 737 c 1
 -178 730 -150 726 -121 726 c 0
 -10 726 124 782 187 923 c 1
 288 923 l 17
-237 776 m 0
 -202 776 -180 802 -174 828 c 0
 -168 854 -180 880 -215 880 c 0
 -251 880 -273 854 -279 828 c 0
 -285 802 -273 776 -237 776 c 0
EndSplineSet
Fore
Refer: 177 3633 N 1 0 0 1 -164 0 2
Layer: 2
Refer: 177 3633 N 1 0 0 1 -164 0 2
EndChar

StartChar: uni0E4D.left
Encoding: 63249 63249 121
Width: 0
Flags: HW
HStem: 673 54<-212.794 -125.654> 831 57<-200.805 -113.332>
VStem: -274 57<731.47 814.936> -109 56<745.048 826.166>
LayerCount: 3
Back
SplineSet
-193 673 m 0
 -265 673 -290 727 -279 780 c 0
 -268 834 -219 888 -147 888 c 0
 -76 888 -53 834 -64 780 c 0
 -75 727 -122 673 -193 673 c 0
-181 727 m 0
 -146 727 -124 753 -118 779 c 0
 -113 805 -124 831 -159 831 c 0
 -195 831 -218 805 -223 779 c 0
 -229 753 -217 727 -181 727 c 0
EndSplineSet
Fore
Refer: 203 3661 N 1 0 0 1 -197 0 2
Layer: 2
Refer: 203 3661 N 1 0 0 1 -197 0 2
EndChar

StartChar: uni0E47.left
Encoding: 63250 63250 122
Width: 0
Flags: W
HStem: 656 49<-221.342 -145.145> 736 56<-387.449 -317.418> 796 46<-212.099 -135.643> 888 50<-325.309 -139.676> 895 54<-381.18 -194.755>
VStem: -497 77<751.287 855.478> -133 51<716.166 793.872> -113 96<968.856 1025>
LayerCount: 3
Back
SplineSet
-4 1008 m 17
 -29 897 -113 872 -184 876 c 0
 -218 877 -279 886 -316 888 c 0
 -356 891 -390 861 -399 818 c 0
 -405 797 -404 773 -395 748 c 1
 -352 813 -279 777 -252 742 c 1
 -252 742 -240 733 -237 746 c 0
 -226 801 -178 830 -136 830 c 0
 -94 830 -57 802 -69 743 c 0
 -82 684 -137 656 -176 656 c 0
 -256 656 -285 733 -340 733 c 0
 -382 733 -387 687 -365 656 c 1
 -433 657 l 1
 -471 698 -481 753 -470 804 c 0
 -455 882 -390 949 -302 940 c 0
 -271 937 -211 931 -182 928 c 0
 -158 925 -103 928 -95 1008 c 1
 -4 1008 l 17
-111 743 m 0
 -105 772 -124 787 -145 787 c 0
 -167 787 -192 772 -198 743 c 0
 -204 714 -185 700 -163 700 c 0
 -142 700 -117 714 -111 743 c 0
EndSplineSet
Fore
Refer: 197 3655 N 1 0 0 1 -164 0 2
Layer: 2
Refer: 197 3655 N 1 0 0 1 -164 0 2
EndChar

StartChar: uni0E48.left
Encoding: 63251 63251 123
Width: 0
Flags: W
HStem: 1021 206<-98 -51>
VStem: -128 134
LayerCount: 3
Back
SplineSet
21 1227 m 1
 -36 1021 l 1
 -113 1021 l 1
 -83 1227 l 1
 21 1227 l 1
EndSplineSet
Fore
Refer: 198 3656 N 1 0 0 1 -164 0 2
Validated: 1
Layer: 2
Refer: 198 3656 N 1 0 0 1 -164 0 2
EndChar

StartChar: uni0E49.left
Encoding: 63252 63252 124
Width: 0
Flags: W
HStem: 991 49<-178 -78.8051> 994 35<-286 -236.664> 1072 37<-242.451 -198.5> 1187 42<-235.207 -164.219>
VStem: -288 43<1110.79 1177.99> -162 47<1117.77 1185.31> 63 89<1140 1229>
LayerCount: 3
Back
SplineSet
207 1229 m 17
 117 957 -147 991 -193 994 c 1
 -185 1029 l 1
 -144 1034 -125 1052 -111 1071 c 1
 -111 1074 l 1
 -111 1074 -121 1071 -134 1072 c 0
 -177 1079 -192 1115 -184 1151 c 0
 -176 1190 -141 1229 -85 1229 c 0
 1 1229 -15 1152 -16 1150 c 0
 -31 1077 -76 1043 -76 1043 c 1
 -77 1040 l 1
 -77 1040 86 1054 118 1229 c 1
 207 1229 l 17
-111 1109 m 0
 -84 1109 -66 1128 -62 1148 c 0
 -58 1168 -68 1187 -95 1187 c 0
 -121 1187 -138 1168 -142 1148 c 0
 -146 1128 -137 1109 -111 1109 c 0
EndSplineSet
Fore
Refer: 199 3657 N 1 0 0 1 -261 0 2
Layer: 2
Refer: 199 3657 N 1 0 0 1 -261 0 2
EndChar

StartChar: uni0E4A.left
Encoding: 63253 63253 125
Width: 0
Flags: W
HStem: 986 35<-186.194 -126.876> 1089 35<-179.864 -120.531>
VStem: -248 57<1021.96 1155.7> -119 37<1027.93 1087.24> 7 61<1074.95 1173.78> 121 74<1152.61 1226>
LayerCount: 3
Back
SplineSet
203 1226 m 17
 184 1098 81 986 -59 986 c 1
 -52 1021 l 1
 -14 1039 6 1071 12 1102 c 0
 19 1136 10 1167 -10 1175 c 1
 -73 1137 l 1
 -128 1178 l 1
 -160 1172 -182 1130 -184 1107 c 1
 -181 1104 l 1
 -181 1104 -165 1124 -131 1124 c 0
 -91 1124 -68 1098 -76 1057 c 0
 -85 1014 -119 986 -160 986 c 0
 -225 986 -251 1043 -236 1115 c 0
 -226 1160 -174 1227 -111 1232 c 1
 -64 1183 l 1
 5 1232 l 1
 69 1213 82 1167 73 1123 c 0
 67 1098 54 1073 38 1055 c 1
 41 1054 l 1
 89 1080 131 1141 129 1226 c 1
 203 1226 l 17
-153 1021 m 0
 -130 1021 -115 1038 -112 1055 c 0
 -108 1072 -116 1089 -139 1089 c 0
 -161 1089 -176 1072 -180 1055 c 0
 -183 1038 -175 1021 -153 1021 c 0
EndSplineSet
Fore
Refer: 200 3658 N 1 0 0 1 -132 0 2
Layer: 2
Refer: 200 3658 N 1 0 0 1 -132 0 2
EndChar

StartChar: uni0E4B.left
Encoding: 63254 63254 126
Width: 0
Flags: W
HStem: 1072 74<-195 -117 -24 53>
VStem: -133 74<992 1066> -86 80<1146 1226>
DStem2: -133 992 -59 992 0.207912 0.978148<15.3855 80.6002 174.275 238.658>
LayerCount: 3
Back
SplineSet
64 1075 m 1
 -30 1074 l 1
 -49 995 l 1
 -122 995 l 1
 -107 1074 l 1
 -201 1075 l 1
 -185 1149 l 1
 -91 1150 l 1
 -75 1229 l 1
 4 1229 l 1
 -14 1150 l 1
 80 1149 l 1
 64 1075 l 1
EndSplineSet
Fore
Refer: 201 3659 N 1 0 0 1 -164 0 2
Validated: 1
Layer: 2
Refer: 201 3659 N 1 0 0 1 -164 0 2
EndChar

StartChar: uni0E4C.left
Encoding: 63255 63255 127
Width: 0
Flags: W
HStem: 895 42<-140.338 -69.0876>
VStem: -189 46<939.461 1009.76> -59 48<945.762 1018.67>
LayerCount: 3
Back
SplineSet
143 1201 m 17
 97 1104 -18 1086 -43 1080 c 1
 -44 1077 l 1
 -21 1075 0 1049 -9 1008 c 0
 -19 962 -61 926 -112 926 c 0
 -167 926 -192 968 -182 1014 c 0
 -174 1054 -134 1106 -39 1123 c 0
 9 1132 48 1166 70 1223 c 1
 143 1201 l 17
-103 968 m 0
 -77 968 -60 989 -55 1010 c 0
 -51 1030 -60 1051 -86 1051 c 0
 -115 1051 -133 1030 -137 1010 c 0
 -142 989 -132 968 -103 968 c 0
EndSplineSet
Fore
Refer: 202 3660 N 1 0 0 1 -147 0 2
Layer: 2
Refer: 202 3660 N 1 0 0 1 -147 0 2
EndChar

StartChar: uni0E01
Encoding: 3585 3585 129
Width: 602
Flags: W
HStem: 0 21G<83 191.233 410 515.257> 378 44<179 197 268.621 356> 544 54<300.167 451.661>
VStem: 83 104<0 104> 410 101<0 101> 499 102<323.062 499.534>
DStem2: 83 0 187 0 0.207912 0.978148<21.6228 383.699> 410 0 511 0 0.207912 0.978148<20.9991 441.492>
LayerCount: 3
Fore
SplineSet
511 0 m 1xf8
 410 0 l 1xf8
 495 399 l 2
 498 410 499 421 499 433 c 3
 499 500 449 544 373 544 c 3
 293 544 215 495 179 422 c 1
 366 422 l 1
 356 378 l 1
 307 378 l 2
 282 378 263 358 256 326 c 2
 187 0 l 1
 83 0 l 1
 150 315 l 2
 155 341 179 374 197 378 c 1
 114 378 l 1
 146 505 273 598 415 598 c 3
 525 598 601 535 601 444 c 3xf4
 601 429 600 417 597 404 c 2
 511 0 l 1xf8
EndSplineSet
Layer: 2
SplineSet
511 0 m 1,0,-1
 410 0 l 1,1,-1
 495 399 l 2,2,3
 499 414 499 414 499 433 c 0,4,5
 499 483 499 483 464.5 513.5 c 128,-1,6
 430 544 430 544 373 544 c 0,7,8
 313 544 313 544 259.5 510.5 c 128,-1,9
 206 477 206 477 179 422 c 1,10,-1
 366 422 l 1,11,-1
 356 378 l 1,12,-1
 307 378 l 2,13,14
 288 378 288 378 274.5 364 c 128,-1,15
 261 350 261 350 256 326 c 2,16,-1
 187 0 l 1,17,-1
 83 0 l 1,18,-1
 150 315 l 2,19,20
 154 335 154 335 169 355 c 128,-1,21
 184 375 184 375 197 378 c 1,22,-1
 114 378 l 1,23,24
 138 473 138 473 223.5 535.5 c 128,-1,25
 309 598 309 598 415 598 c 0,26,27
 497 598 497 598 549 555 c 128,-1,28
 601 512 601 512 601 444 c 0,29,30
 601 421 601 421 597 404 c 2,31,-1
 511 0 l 1,0,-1
EndSplineSet
EndChar

StartChar: uni0E02
Encoding: 3586 3586 130
Width: 585
Flags: W
HStem: -8 46<341.563 402.075> 298 35<157.119 234.14> 432 35<171.041 248.061> 542 56<209.84 312.608>
VStem: 102 50<336.733 452.35> 246 95<39.0421 167.133> 253 38<350.54 427.382> 326 98<439.818 527.547>
DStem2: 222.218 -8 325.633 -8 0.207912 0.978148<102.194 505.577> 389.846 -8 493.218 -8 0.207912 0.978148<70.5781 540.966>
LayerCount: 3
Fore
SplineSet
102 395 m 3xfb
 102 508 188 598 297 598 c 3
 376 598 424 552 424 477 c 3xfb
 424 462 423 448 420 436 c 2
 342 69 l 2
 341 67 341 66 341 63 c 3
 341 49 352 38 367 38 c 3
 383 38 403 53 406 68 c 2
 503 521 l 1
 568 584 l 2
 573 589 587 594 598 594 c 3
 610 594 615 587 615 572 c 3
 615 568 615 564 613 553 c 2
 520 118 l 2
 504 41 440 -8 357 -8 c 3
 291 -8 246 32 246 91 c 3xfc
 246 100 247 109 249 118 c 2
 324 472 l 2
 326 479 326 483 326 487 c 3
 326 519 299 542 262 542 c 3
 208 542 168 502 154 436 c 1
 172 457 193 467 220 467 c 3
 264 467 291 442 291 402 c 3
 291 346 241 298 184 298 c 3
 132 298 102 333 102 395 c 3xfb
213 432 m 3
 180 432 152 404 152 371 c 3
 152 348 167 333 192 333 c 3
 226 333 253 361 253 395 c 3
 253 418 237 432 213 432 c 3
EndSplineSet
Layer: 2
SplineSet
102 395 m 0,0,1
 102 480 102 480 158.5 539 c 128,-1,2
 215 598 215 598 297 598 c 0,3,4
 356 598 356 598 390 565.5 c 128,-1,5
 424 533 424 533 424 477 c 0,6,7
 424 452 424 452 420 436 c 2,8,-1
 342 69 l 2,9,10
 341 67 341 67 341 63 c 0,11,12
 341 52 341 52 348.5 45 c 128,-1,13
 356 38 356 38 367 38 c 0,14,15
 379 38 379 38 391.5 47.5 c 128,-1,16
 404 57 404 57 406 68 c 2,17,-1
 503 521 l 1,18,-1
 568 584 l 2,19,20
 578 594 578 594 598 594 c 0,21,22
 615 594 615 594 615 572 c 0,23,24
 615 564 615 564 613 553 c 2,25,-1
 520 118 l 2,26,27
 508 60 508 60 463.5 26 c 128,-1,28
 419 -8 419 -8 357 -8 c 0,29,30
 307 -8 307 -8 276.5 19.5 c 128,-1,31
 246 47 246 47 246 91 c 0,32,33
 246 104.5 246 104.5 249 118 c 2,34,-1
 324 472 l 2,35,36
 326 479 326 479 326 487 c 0,37,38
 326 511 326 511 308 526.5 c 128,-1,39
 290 542 290 542 262 542 c 0,40,41
 222 542 222 542 193.5 514 c 128,-1,42
 165 486 165 486 154 436 c 1,43,44
 181 467 181 467 220 467 c 0,45,46
 253 467 253 467 272 449.5 c 128,-1,47
 291 432 291 432 291 402 c 0,48,49
 291 360 291 360 259 329 c 128,-1,50
 227 298 227 298 184 298 c 0,51,52
 145 298 145 298 123.5 323.5 c 128,-1,53
 102 349 102 349 102 395 c 0,0,1
213 432 m 0,54,55
 188 432 188 432 170 414 c 128,-1,56
 152 396 152 396 152 371 c 0,57,58
 152 354 152 354 162.5 343.5 c 128,-1,59
 173 333 173 333 192 333 c 0,60,61
 217 333 217 333 235 351 c 128,-1,62
 253 369 253 369 253 395 c 0,63,64
 253 412 253 412 242 422 c 128,-1,65
 231 432 231 432 213 432 c 0,54,55
EndSplineSet
EndChar

StartChar: uni0E03
Encoding: 3587 3587 131
Width: 637
Flags: W
HStem: -8 46<392.379 452.626> 255 37<157.843 235.392> 390 37<171.304 249.105> 579 20G<198.5 258.595 360.757 416>
VStem: 98 55<295.386 422.121> 254 40<308.906 385.924> 295 97<38.8578 164.688> 378 102<452.887 524.422>
DStem2: 271.218 -8 376.633 -8 0.207912 0.978148<105.083 519.852> 439.846 -8 543.218 -8 0.207912 0.978148<68.08 540.966>
LayerCount: 3
Fore
SplineSet
294 359 m 3xfd
 294 302 245 255 185 255 c 3
 128 255 98 292 98 363 c 3
 98 469 153 558 244 599 c 1
 298 525 l 1
 384 599 l 1
 448 591 480 557 480 499 c 3xfd
 480 488 479 475 475 455 c 2
 393 69 l 2
 392 68 392 67 392 62 c 3
 392 47 402 38 418 38 c 3
 435 38 452 51 456 68 c 2
 553 521 l 1
 619 584 l 2
 625 589 639 594 649 594 c 3
 660 594 665 587 665 572 c 3
 665 566 665 562 663 553 c 2
 570 118 l 2
 554 41 491 -8 408 -8 c 3
 341 -8 295 34 295 94 c 3xfe
 295 102 296 110 298 118 c 2
 376 485 l 2
 378 495 378 496 378 501 c 3
 378 515 373 522 362 525 c 1
 284 459 l 1
 226 536 l 1
 178 507 155 465 149 395 c 1
 165 415 193 427 222 427 c 3
 266 427 294 401 294 359 c 3xfd
214 390 m 3
 181 390 153 362 153 330 c 3
 153 306 168 292 193 292 c 3
 227 292 254 320 254 354 c 3
 254 376 239 390 214 390 c 3
EndSplineSet
Layer: 2
SplineSet
294 359 m 0,0,1
 294 316 294 316 262 285.5 c 128,-1,2
 230 255 230 255 185 255 c 0,3,4
 98 255 98 255 98 363 c 0,5,6
 98 443 98 443 137 505.5 c 128,-1,7
 176 568 176 568 244 599 c 1,8,-1
 298 525 l 1,9,-1
 384 599 l 1,10,11
 480 587 480 587 480 499 c 0,12,13
 480 480 480 480 475 455 c 2,14,-1
 393 69 l 2,15,16
 392 68 392 68 392 62 c 0,17,18
 392 38 392 38 418 38 c 0,19,20
 431 38 431 38 442 46.5 c 128,-1,21
 453 55 453 55 456 68 c 2,22,-1
 553 521 l 1,23,-1
 619 584 l 2,24,25
 631 594 631 594 649 594 c 0,26,27
 665 594 665 594 665 572 c 0,28,29
 665 562 665 562 663 553 c 2,30,-1
 570 118 l 2,31,32
 558 60 558 60 514 26 c 128,-1,33
 470 -8 470 -8 408 -8 c 0,34,35
 358 -8 358 -8 326.5 20.5 c 128,-1,36
 295 49 295 49 295 94 c 0,37,38
 295 106 295 106 298 118 c 2,39,-1
 376 485 l 2,40,41
 378 495 378 495 378 501 c 0,42,43
 378 521 378 521 362 525 c 1,44,-1
 284 459 l 1,45,-1
 226 536 l 1,46,47
 158 495 158 495 149 395 c 1,48,49
 175 427 175 427 222 427 c 0,50,51
 255 427 255 427 274.5 408.5 c 128,-1,52
 294 390 294 390 294 359 c 0,0,1
214 390 m 0,53,54
 189 390 189 390 171 372 c 128,-1,55
 153 354 153 354 153 330 c 0,56,57
 153 292 153 292 193 292 c 0,58,59
 218 292 218 292 236 310 c 128,-1,60
 254 328 254 328 254 354 c 0,61,62
 254 371 254 371 243.5 380.5 c 128,-1,63
 233 390 233 390 214 390 c 0,53,54
EndSplineSet
EndChar

StartChar: uni0E04
Encoding: 3588 3588 132
Width: 589
Flags: W
HStem: 0 21G<89 196.272 399 505.257> 249 44<282.693 369.413> 398 46<296.288 383.032> 547 52<268.851 447.139>
VStem: 89 103<0 103> 106 51<324.091 452.998> 387 49<310.677 394.049> 399 102<0 102> 487 105<372.923 507.009>
DStem2: 89 0 192 0 0.207912 0.978148<21.4149 246.155> 399 0 501 0 0.207912 0.978148<21.207 443.946>
LayerCount: 3
Fore
SplineSet
106 361 m 3xf4
 106 492 226 599 374 599 c 3
 516 599 592 548 592 452 c 3xf480
 592 434 590 419 587 404 c 2
 501 0 l 1
 399 0 l 1xf1
 482 389 l 2
 485 404 487 418 487 436 c 3
 487 508 444 547 365 547 c 3
 255 547 157 470 157 383 c 3xf480
 157 362 162 349 182 319 c 1
 185 319 l 1
 226 407 276 444 352 444 c 3
 403 444 436 414 436 368 c 3
 436 302 381 249 313 249 c 3
 291 249 269 256 257 267 c 1
 250 258 243 238 236 206 c 2
 192 0 l 1
 89 0 l 1xfa
 139 233 l 2
 140 235 140 237 140 241 c 3
 140 252 137 261 127 282 c 0
 111 315 106 334 106 361 c 3xf4
345 398 m 3
 308 398 279 369 279 332 c 3
 279 308 295 293 322 293 c 3
 357 293 387 323 387 358 c 3xf2
 387 383 371 398 345 398 c 3
EndSplineSet
Layer: 2
SplineSet
106 361 m 0,0,1
 106 459 106 459 184.5 529 c 128,-1,2
 263 599 263 599 374 599 c 0,3,4
 481 599 481 599 536.5 561.5 c 128,-1,5
 592 524 592 524 592 452 c 0,6,7
 592 429 592 429 587 404 c 2,8,-1
 501 0 l 1,9,-1
 399 0 l 1,10,-1
 482 389 l 2,11,12
 487 414 487 414 487 436 c 0,13,14
 487 490 487 490 455.5 518.5 c 128,-1,15
 424 547 424 547 365 547 c 0,16,17
 282 547 282 547 219.5 497.5 c 128,-1,18
 157 448 157 448 157 383 c 0,19,20
 157 356 157 356 182 319 c 1,21,-1
 185 319 l 1,22,23
 216 385 216 385 255.5 414.5 c 128,-1,24
 295 444 295 444 352 444 c 0,25,26
 390 444 390 444 413 423.5 c 128,-1,27
 436 403 436 403 436 368 c 0,28,29
 436 319 436 319 400 284 c 128,-1,30
 364 249 364 249 313 249 c 0,31,32
 277 249 277 249 257 267 c 1,33,34
 246 253 246 253 236 206 c 2,35,-1
 192 0 l 1,36,-1
 89 0 l 1,37,-1
 139 233 l 2,38,39
 140 235 140 235 140 241 c 0,40,41
 140 255 140 255 127 282 c 0,42,43
 106 325 106 325 106 361 c 0,0,1
345 398 m 0,44,45
 317 398 317 398 298 379 c 128,-1,46
 279 360 279 360 279 332 c 0,47,48
 279 314 279 314 290.5 303.5 c 128,-1,49
 302 293 302 293 322 293 c 0,50,51
 348 293 348 293 367.5 312.5 c 128,-1,52
 387 332 387 332 387 358 c 0,53,54
 387 377 387 377 376 387.5 c 128,-1,55
 365 398 365 398 345 398 c 0,44,45
EndSplineSet
EndChar

StartChar: uni0E05
Encoding: 3589 3589 133
Width: 591
Flags: W
HStem: 0 21G<89 196.301 398 503.238> 218 45<278.108 364.508> 367 46<291.791 377.253> 578 20G<241.5 318.403 441.333 510.5>
VStem: 89 103<0 103> 106 51<307.51 447.18> 382 47<279.737 362.884> 398 101<0 101> 493 95<345.93 526.245>
DStem2: 89 0 192 0 0.207912 0.978148<21.4149 240.169> 301 598 283 535 0.687745 -0.725953<24.3489 101.977> 368 521 355 459 0.810068 0.586335<0 87.6051> 398 0 499 0 0.207912 0.978148<20.9991 476.788>
LayerCount: 3
Fore
SplineSet
429 336 m 3xf680
 429 271 373 218 306 218 c 3
 279 218 261 224 250 237 c 1
 244 229 235 204 232 186 c 2
 192 0 l 1
 89 0 l 1xfa
 138 229 l 2
 139 232 139 233 139 235 c 3
 139 241 134 257 127 273 c 0
 113 307 106 334 106 360 c 3
 106 466 182 559 301 598 c 1
 368 521 l 1
 468 596 l 1
 553 573 588 531 588 452 c 3xf480
 588 429 586 407 581 387 c 2
 499 0 l 1
 398 0 l 1xf1
 484 404 l 2
 490 432 493 452 493 468 c 3
 493 499 482 521 460 535 c 1
 355 459 l 1
 283 535 l 1
 221 521 157 441 157 379 c 3
 157 352 166 326 186 295 c 1
 189 295 l 1
 236 380 280 413 346 413 c 3
 397 413 429 384 429 336 c 3xf680
339 367 m 3
 304 367 274 338 274 303 c 3
 274 278 291 263 317 263 c 3
 352 263 382 292 382 326 c 3
 382 351 366 367 339 367 c 3
EndSplineSet
Layer: 2
SplineSet
429 336 m 0,0,1
 429 287 429 287 392.5 252.5 c 128,-1,2
 356 218 356 218 306 218 c 0,3,4
 266 218 266 218 250 237 c 1,5,6
 238 221 238 221 232 186 c 2,7,-1
 192 0 l 1,8,-1
 89 0 l 1,9,-1
 138 229 l 2,10,11
 139 232 139 232 139 235 c 0,12,13
 139 246 139 246 127 273 c 0,14,15
 106 324 106 324 106 360 c 0,16,17
 106 440 106 440 159 504.5 c 128,-1,18
 212 569 212 569 301 598 c 1,19,-1
 368 521 l 1,20,-1
 468 596 l 1,21,22
 532 579 532 579 560 545 c 128,-1,23
 588 511 588 511 588 452 c 0,24,25
 588 415 588 415 581 387 c 2,26,-1
 499 0 l 1,27,-1
 398 0 l 1,28,-1
 484 404 l 2,29,30
 493 446 493 446 493 468 c 0,31,32
 493 514 493 514 460 535 c 1,33,-1
 355 459 l 1,34,-1
 283 535 l 1,35,36
 237 525 237 525 197 475.5 c 128,-1,37
 157 426 157 426 157 379 c 0,38,39
 157 340 157 340 186 295 c 1,40,-1
 189 295 l 1,41,42
 224 359 224 359 260 386 c 128,-1,43
 296 413 296 413 346 413 c 0,44,45
 384 413 384 413 406.5 392.5 c 128,-1,46
 429 372 429 372 429 336 c 0,0,1
339 367 m 0,47,48
 313 367 313 367 293.5 348 c 128,-1,49
 274 329 274 329 274 303 c 0,50,51
 274 284 274 284 285.5 273.5 c 128,-1,52
 297 263 297 263 317 263 c 0,53,54
 343 263 343 263 362.5 282 c 128,-1,55
 382 301 382 301 382 326 c 0,56,57
 382 345 382 345 370.5 356 c 128,-1,58
 359 367 359 367 339 367 c 0,47,48
EndSplineSet
EndChar

StartChar: uni0E06
Encoding: 3590 3590 134
Width: 757
Flags: W
HStem: -8 66<242.593 288.642> 0 21G<563.5 666.265> 174 49<270.156 310> 255 37<157.843 235.392> 390 37<171.304 249.105> 579 20G<198.5 258.595 360.757 416>
VStem: 98 55<295.844 421.851> 190 51<59.8545 145.079> 254 40<308.906 385.924> 378 102<453.379 524.422>
DStem2: 271.315 -8 377.754 -8 0.207912 0.978148<65.9163 186.066 247.117 519.877> 559.793 -8 660.3 -8 0.207912 0.978148<130.86 539.791>
LayerCount: 3
Fore
SplineSet
294 359 m 3xbfc0
 294 302 245 255 185 255 c 3
 128 255 98 291 98 360 c 3
 98 469 153 559 244 599 c 1
 298 525 l 1
 384 599 l 1
 448 591 480 557 480 499 c 3
 480 486 478 472 475 455 c 2
 423 214 l 1
 497 194 551 163 587 120 c 1
 672 520 l 1
 737 583 l 2
 744 589 757 594 766 594 c 3
 777 594 783 587 783 574 c 3
 783 570 783 569 781 558 c 2
 662 0 l 9
 576 0 l 17x7fc0
 551 82 498 135 414 163 c 1
 409 139 l 2
 386 34 349 -8 281 -8 c 3
 224 -8 190 24 190 77 c 3
 190 149 250 217 320 223 c 1
 376 485 l 2
 378 496 378 497 378 501 c 3
 378 515 373 522 362 525 c 1
 284 459 l 1
 226 536 l 1
 178 507 155 466 149 395 c 1
 165 415 193 427 222 427 c 3
 266 427 294 401 294 359 c 3xbfc0
310 174 m 1
 274 170 241 130 241 91 c 3
 241 71 253 58 273 58 c 3xbfc0
 281 58 287 66 290 80 c 2
 310 174 l 1
214 390 m 3
 181 390 153 362 153 330 c 3
 153 306 168 292 193 292 c 3
 227 292 254 320 254 354 c 3
 254 376 239 390 214 390 c 3
EndSplineSet
Layer: 2
SplineSet
294 359 m 0,0,1
 294 316 294 316 262 285.5 c 128,-1,2
 230 255 230 255 185 255 c 0,3,4
 98 255 98 255 98 360 c 0,5,6
 98 442 98 442 137 505.5 c 128,-1,7
 176 569 176 569 244 599 c 1,8,-1
 298 525 l 1,9,-1
 384 599 l 1,10,11
 480 587 480 587 480 499 c 0,12,13
 480 483 480 483 475 455 c 2,14,-1
 423 214 l 1,15,16
 533 184 533 184 587 120 c 1,17,-1
 672 520 l 1,18,-1
 737 583 l 2,19,20
 750 594 750 594 766 594 c 0,21,22
 783 594 783 594 783 574 c 0,23,24
 783 569 783 569 781 558 c 2,25,-1
 662 0 l 1,26,-1
 576 0 l 1,27,28
 539 121 539 121 414 163 c 1,29,-1
 409 139 l 2,30,31
 392 60 392 60 362 26 c 128,-1,32
 332 -8 332 -8 281 -8 c 0,33,34
 238 -8 238 -8 214 14.5 c 128,-1,35
 190 37 190 37 190 77 c 0,36,37
 190 131 190 131 229 175 c 128,-1,38
 268 219 268 219 320 223 c 1,39,-1
 376 485 l 2,40,41
 378 496 378 496 378 501 c 0,42,43
 378 521 378 521 362 525 c 1,44,-1
 284 459 l 1,45,-1
 226 536 l 1,46,47
 157 495 157 495 149 395 c 1,48,49
 175 427 175 427 222 427 c 0,50,51
 255 427 255 427 274.5 408.5 c 128,-1,52
 294 390 294 390 294 359 c 0,0,1
310 174 m 1,53,54
 283 171 283 171 262 145.5 c 128,-1,55
 241 120 241 120 241 91 c 0,56,57
 241 58 241 58 273 58 c 0,58,59
 285 58 285 58 290 80 c 2,60,-1
 310 174 l 1,53,54
214 390 m 0,61,62
 189 390 189 390 171 372 c 128,-1,63
 153 354 153 354 153 330 c 0,64,65
 153 292 153 292 193 292 c 0,66,67
 218 292 218 292 236 310 c 128,-1,68
 254 328 254 328 254 354 c 0,69,70
 254 371 254 371 243.5 380.5 c 128,-1,71
 233 390 233 390 214 390 c 0,61,62
EndSplineSet
EndChar

StartChar: uni0E07
Encoding: 3591 3591 135
Width: 479
Flags: W
HStem: 0 21G<277.027 394.262> 399 46<309.423 371.497> 549 49<322.492 407.842>
VStem: 260 45<449.407 532.033> 413 84<463.385 544.554>
DStem2: 286.131 0 390 0 0.207912 0.978148<119.614 412.047>
LayerCount: 3
Fore
SplineSet
260 476 m 3
 260 544 318 598 391 598 c 3
 461 598 497 570 497 517 c 3
 497 505 496 499 494 488 c 2
 390 0 l 1
 290 0 l 1
 98 296 l 1
 112 353 l 1
 311 117 l 1
 372 403 l 1
 362 400 352 399 342 399 c 3
 292 399 260 429 260 476 c 3
370 549 m 3
 335 549 305 520 305 485 c 3
 305 460 322 445 348 445 c 3
 383 445 413 474 413 508 c 3
 413 533 397 549 370 549 c 3
EndSplineSet
Layer: 2
SplineSet
260 476 m 0,0,1
 260 527 260 527 298 562.5 c 128,-1,2
 336 598 336 598 391 598 c 0,3,4
 497 598 497 598 497 517 c 0,5,6
 497 504 497 504 494 488 c 2,7,-1
 390 0 l 1,8,-1
 290 0 l 1,9,-1
 98 296 l 1,10,-1
 112 353 l 1,11,-1
 311 117 l 1,12,-1
 372 403 l 1,13,14
 359 399 359 399 342 399 c 0,15,16
 304 399 304 399 282 420 c 128,-1,17
 260 441 260 441 260 476 c 0,0,1
370 549 m 0,18,19
 344 549 344 549 324.5 530 c 128,-1,20
 305 511 305 511 305 485 c 0,21,22
 305 466 305 466 316.5 455.5 c 128,-1,23
 328 445 328 445 348 445 c 0,24,25
 374 445 374 445 393.5 464 c 128,-1,26
 413 483 413 483 413 508 c 0,27,28
 413 527 413 527 401.5 538 c 128,-1,29
 390 549 390 549 370 549 c 0,18,19
EndSplineSet
EndChar

StartChar: uni0E08
Encoding: 3592 3592 136
Width: 565
Flags: W
HStem: -5 50<321.926 382.206> 237 44<198.593 253.284> 386 46<212.024 297.505> 540 57<274.26 425.48>
VStem: 149 45<285.804 368.99> 226 95<45.7934 170.352> 302 77<298.819 381.474> 461 106<330.312 505.284>
DStem2: 202.218 -5 304.995 -5 0.207912 0.978148<106.016 250.412> 369.208 -5 474.218 -5 0.207912 0.978148<71.2551 458.838>
LayerCount: 3
Fore
SplineSet
149 312 m 3xfd
 149 378 206 432 276 432 c 3
 343 432 379 404 379 353 c 3xfb
 379 345 378 336 376 327 c 2
 322 75 l 2
 321 72 321 70 321 69 c 3
 321 55 332 45 348 45 c 3
 366 45 382 57 386 74 c 2
 458 415 l 2
 460 426 461 436 461 445 c 3
 461 503 418 540 350 540 c 3
 276 540 197 496 152 430 c 1
 119 450 l 1
 182 542 280 597 382 597 c 3
 490 597 567 535 567 448 c 3
 567 435 566 424 563 413 c 2
 501 121 l 2
 484 45 419 -5 337 -5 c 3
 275 -5 226 40 226 98 c 3
 226 105 227 113 229 121 c 2
 254 240 l 1
 246 238 237 237 228 237 c 3
 180 237 149 267 149 312 c 3xfd
259 386 m 3
 224 386 194 356 194 322 c 3
 194 297 210 281 237 281 c 3
 272 281 302 311 302 346 c 3
 302 371 285 386 259 386 c 3
EndSplineSet
Layer: 2
SplineSet
149 312 m 0,0,1
 149 362 149 362 186.5 397 c 128,-1,2
 224 432 224 432 276 432 c 0,3,4
 379 432 379 432 379 353 c 0,5,6
 379 340 379 340 376 327 c 2,7,-1
 322 75 l 2,8,9
 321 72 321 72 321 69 c 0,10,11
 321 58 321 58 328.5 51.5 c 128,-1,12
 336 45 336 45 348 45 c 0,13,14
 362 45 362 45 372.5 53 c 128,-1,15
 383 61 383 61 386 74 c 2,16,-1
 458 415 l 2,17,18
 461 431.5 461 431.5 461 445 c 0,19,20
 461 489 461 489 431 514.5 c 128,-1,21
 401 540 401 540 350 540 c 0,22,23
 295 540 295 540 240.5 510 c 128,-1,24
 186 480 186 480 152 430 c 1,25,-1
 119 450 l 1,26,27
 166 519 166 519 236 558 c 128,-1,28
 306 597 306 597 382 597 c 0,29,30
 463 597 463 597 515 555 c 128,-1,31
 567 513 567 513 567 448 c 0,32,33
 567 428 567 428 563 413 c 2,34,-1
 501 121 l 2,35,36
 488 64 488 64 443 29.5 c 128,-1,37
 398 -5 398 -5 337 -5 c 0,38,39
 290 -5 290 -5 258 25 c 128,-1,40
 226 55 226 55 226 98 c 0,41,42
 226 109 226 109 229 121 c 2,43,-1
 254 240 l 1,44,45
 242 237 242 237 228 237 c 0,46,47
 192 237 192 237 170.5 257.5 c 128,-1,48
 149 278 149 278 149 312 c 0,0,1
259 386 m 0,49,50
 233 386 233 386 213.5 367 c 128,-1,51
 194 348 194 348 194 322 c 0,52,53
 194 303 194 303 205.5 292 c 128,-1,54
 217 281 217 281 237 281 c 0,55,56
 263 281 263 281 282.5 300.5 c 128,-1,57
 302 320 302 320 302 346 c 0,58,59
 302 365 302 365 290.5 375.5 c 128,-1,60
 279 386 279 386 259 386 c 0,49,50
EndSplineSet
EndChar

StartChar: uni0E09
Encoding: 3593 3593 137
Width: 615
Flags: W
HStem: -8 43<436.776 522.683> 0 21G<164 256.5> 195 45<149.655 205.504> 344 46<162.285 248.505> 542 57<293.715 467.549>
VStem: 101 44<244.128 326.674> 164 83<0 31.5989> 253 77<256.936 338.947> 386 47<39.2559 119.237> 511 103<331.188 502.014> 541 51<52.4474 135.543>
DStem2: 417.402 -8 520.262 -8 0.207912 0.978148<214.922 463.172>
LayerCount: 3
Fore
SplineSet
101 273 m 3x7fa0
 101 337 159 390 227 390 c 3
 294 390 330 363 330 312 c 3
 330 304 329 295 327 286 c 2
 299 154 l 2
 296 141 290 122 284 109 c 1
 330 151 392 177 458 183 c 1
 508 421 l 2
 510 430 511 438 511 446 c 3
 511 504 459 542 381 542 c 3
 298 542 215 498 165 430 c 1
 131 450 l 1
 190 542 299 599 414 599 c 3
 532 599 614 537 614 448 c 3x7fc0
 614 434 613 423 610 412 c 2
 570 226 l 2
 566 207 556 190 546 184 c 1
 545 181 l 1
 574 172 592 146 592 113 c 3
 592 46 535 -8 465 -8 c 3xbfa0
 419 -8 386 23 386 66 c 3
 386 85 391 101 404 120 c 1
 342 101 266 42 247 0 c 1
 164 0 l 1
 206 198 l 1
 196 196 187 195 179 195 c 3
 131 195 101 225 101 273 c 3x7fa0
210 344 m 3
 175 344 145 315 145 281 c 3
 145 256 161 240 188 240 c 3
 223 240 253 269 253 304 c 3
 253 329 236 344 210 344 c 3
498 140 m 3
 462 140 433 110 433 74 c 3
 433 50 449 35 475 35 c 3
 511 35 541 65 541 100 c 3xbfa0
 541 125 525 140 498 140 c 3
EndSplineSet
Layer: 2
SplineSet
101 273 m 0,0,1
 101 321 101 321 138.5 355.5 c 128,-1,2
 176 390 176 390 227 390 c 0,3,4
 330 390 330 390 330 312 c 0,5,6
 330 299 330 299 327 286 c 2,7,-1
 299 154 l 2,8,9
 293 129 293 129 284 109 c 1,10,11
 355 174 355 174 458 183 c 1,12,-1
 508 421 l 2,13,14
 511 434 511 434 511 446 c 0,15,16
 511 489 511 489 475.5 515.5 c 128,-1,17
 440 542 440 542 381 542 c 0,18,19
 319 542 319 542 261 511.5 c 128,-1,20
 203 481 203 481 165 430 c 1,21,-1
 131 450 l 1,22,23
 175 519 175 519 251.5 559 c 128,-1,24
 328 599 328 599 414 599 c 0,25,26
 502 599 502 599 558 557 c 128,-1,27
 614 515 614 515 614 448 c 0,28,29
 614 427 614 427 610 412 c 2,30,-1
 570 226 l 2,31,32
 563 194 563 194 546 184 c 1,33,-1
 545 181 l 1,34,35
 592 166 592 166 592 113 c 0,36,37
 592 63 592 63 555 27.5 c 128,-1,38
 518 -8 518 -8 465 -8 c 0,39,40
 431 -8 431 -8 408.5 13 c 128,-1,41
 386 34 386 34 386 66 c 0,42,43
 386 94 386 94 404 120 c 1,44,45
 358 106 358 106 309.5 69 c 128,-1,46
 261 32 261 32 247 0 c 1,47,-1
 164 0 l 1,48,-1
 206 198 l 1,49,50
 191 195 191 195 179 195 c 0,51,52
 143 195 143 195 122 216 c 128,-1,53
 101 237 101 237 101 273 c 0,0,1
210 344 m 0,54,55
 184 344 184 344 164.5 325 c 128,-1,56
 145 306 145 306 145 281 c 0,57,58
 145 262 145 262 156.5 251 c 128,-1,59
 168 240 168 240 188 240 c 0,60,61
 214 240 214 240 233.5 259 c 128,-1,62
 253 278 253 278 253 304 c 0,63,64
 253 323 253 323 241.5 333.5 c 128,-1,65
 230 344 230 344 210 344 c 0,54,55
498 140 m 0,66,67
 471 140 471 140 452 120.5 c 128,-1,68
 433 101 433 101 433 74 c 0,69,70
 433 56 433 56 444.5 45.5 c 128,-1,71
 456 35 456 35 475 35 c 0,72,73
 502 35 502 35 521.5 54.5 c 128,-1,74
 541 74 541 74 541 100 c 0,75,76
 541 140 541 140 498 140 c 0,66,67
EndSplineSet
EndChar

StartChar: uni0E0A
Encoding: 3594 3594 138
Width: 583
Flags: W
HStem: 0 45<167 234 336 399.22> 298 35<157.119 234.14> 393 52<422 447.757> 432 35<171.041 248.061> 541 57<210.695 312.179>
VStem: 102 50<336.733 452.35> 253 38<350.54 427.382> 325 100<447.797 527.748> 471 102<166.831 384.622> 565 114<544.08 594>
DStem2: 224.435 0 326.435 0 0.207912 0.978148<67.2123 425.797>
LayerCount: 3
Fore
SplineSet
102 395 m 3xdf80
 102 508 188 598 297 598 c 3
 375 598 425 551 425 478 c 3
 425 467 424 456 422 445 c 1
 485 448 547 514 565 594 c 1
 679 594 l 17xef40
 646 498 588 441 498 418 c 1
 545 416 573 368 573 289 c 3
 573 135 478 0 369 0 c 2
 157 0 l 1
 167 45 l 1
 234 45 l 1
 324 470 l 2
 325 474 325 477 325 484 c 3
 325 518 299 541 261 541 c 3
 208 541 168 502 154 436 c 1
 172 457 193 467 220 467 c 3
 264 467 291 442 291 402 c 3
 291 346 241 298 184 298 c 3
 132 298 102 333 102 395 c 3xdf80
365 45 m 2
 415 45 471 181 471 302 c 3xef80
 471 344 463 374 448 386 c 0
 443 390 426 393 410 393 c 1
 336 45 l 1
 365 45 l 2
213 432 m 3xdf
 180 432 152 404 152 371 c 3
 152 348 167 333 192 333 c 3
 226 333 253 361 253 395 c 3
 253 418 237 432 213 432 c 3xdf
EndSplineSet
Layer: 2
SplineSet
102 395 m 0,0,1
 102 480 102 480 158.5 539 c 128,-1,2
 215 598 215 598 297 598 c 0,3,4
 355 598 355 598 390 565.5 c 128,-1,5
 425 533 425 533 425 478 c 0,6,7
 425 461.5 425 461.5 422 445 c 1,8,9
 469 447 469 447 510 490.5 c 128,-1,10
 551 534 551 534 565 594 c 1,11,-1
 679 594 l 1,12,13
 630 452 630 452 498 418 c 1,14,15
 533 416 533 416 553 382 c 128,-1,16
 573 348 573 348 573 289 c 0,17,18
 573 173 573 173 512 86.5 c 128,-1,19
 451 0 451 0 369 0 c 2,20,-1
 157 0 l 1,21,-1
 167 45 l 1,22,-1
 234 45 l 1,23,-1
 324 470 l 2,24,25
 325 474 325 474 325 484 c 0,26,27
 325 509 325 509 307.5 525 c 128,-1,28
 290 541 290 541 261 541 c 0,29,30
 221 541 221 541 192.5 513 c 128,-1,31
 164 485 164 485 154 436 c 1,32,33
 181 467 181 467 220 467 c 0,34,35
 253 467 253 467 272 449.5 c 128,-1,36
 291 432 291 432 291 402 c 0,37,38
 291 360 291 360 259 329 c 128,-1,39
 227 298 227 298 184 298 c 0,40,41
 145 298 145 298 123.5 323.5 c 128,-1,42
 102 349 102 349 102 395 c 0,0,1
365 45 m 2,43,44
 402 45 402 45 436.5 128 c 128,-1,45
 471 211 471 211 471 302 c 0,46,47
 471 368 471 368 448 386 c 0,48,49
 439 393 439 393 410 393 c 1,50,-1
 336 45 l 1,51,-1
 365 45 l 2,43,44
213 432 m 0,52,53
 188 432 188 432 170 414 c 128,-1,54
 152 396 152 396 152 371 c 0,55,56
 152 354 152 354 162.5 343.5 c 128,-1,57
 173 333 173 333 192 333 c 0,58,59
 217 333 217 333 235 351 c 128,-1,60
 253 369 253 369 253 395 c 0,61,62
 253 412 253 412 242 422 c 128,-1,63
 231 432 231 432 213 432 c 0,52,53
EndSplineSet
EndChar

